<svg width="512" height="512" xmlns="http://www.w3.org/2000/svg" viewBox="0 0 512 512"><g class="hexatar-base"><path class="col-obj" fill="transparent" d="M-.004.003h512v512h-512z"/></g><path class="col-obj" fill="#f5dac3" d="M380.515 465L301 451V334h-90v117l-79.364 14-37.521 47h323.92z"/><path class="shadow-obj" fill="#eebf97" d="M380.541 465L301 451V334h-45v178h162.062z"/><path class="shadow-obj-2x" opacity=".5" fill="#e7a46b" d="M301.054 387.482l-45.056 40.211-45.056-43.078v-51.13h90.112z"/><g class="hexatar-base"><path class="col-obj" d="M382.755 464.994l-65.947-13.116s-18.458 37.255-60.549 37.255-59.201-37.731-59.201-37.731l-67.814 13.592-35.127 47h325.666l-37.028-47z" fill="#c7eef9"/><path class="shadow-obj" d="M256.258 489.134c-42.091 0-59.201-37.731-59.201-37.731l-9.545 1.953c4.928 9.093 25.848 47.451 68.735 47.451 43 0 65.106-38.11 70.284-46.986l-9.724-1.942c0-.001-18.457 37.255-60.549 37.255z" opacity=".8" fill="#99e0f4"/></g><g><g class="hexatar-base"><g class="hexatar-ears-righ"><path class="col-obj" fill="#f5dac3" d="M172.639 157.704v91.744h-44.952l-9.374-45.872 9.374-45.872z"/><path class="shadow-obj" d="M136.733 172.72h35.329v61.713h-35.329a70.666 70.666 0 0 1 0-61.713z" fill="#eebf97"/></g><g class="hexatar-ears-left"><path class="shadow-obj" fill="#eebf97" d="M339.621 157.704v91.744h43.355l9.012-45.872-9.012-45.872z"/><path class="shadow-obj-2x" d="M373.93 172.72h-34.309v61.713h34.309a70.666 70.666 0 0 0 0-61.713z" fill="#e7a46b"/></g></g><g class="hexatar-base"><path class="col-obj" fill="#f5dac3" d="M256.005 7.17l-102.4 64.185v250.883l88.882 63.812h27.855l88.062-64.098V71.355z"/><path class="shadow-obj" fill="#eebf97" d="M256.006 7.17l-.001 378.88h14.338l88.061-64.098.001-250.597z"/></g><g class="hexatar-base"><path class="col-obj" fill="#df9081" d="M220.382 310.507h71.913l-19.804 14.299h-32.305z"/><path class="shadow-obj" fill="#d56c58" d="M260.983 303.468h-9.288l-13.464-5.867-27.035 12.886h90.285l-27.373-12.996z"/></g><g class="hexatar-base"><path class="shadow-obj" fill="#eebf97" d="M272.866 248.602l-10.514-61.4h-12.686l-10.512 61.4-8.884 3.215-5.94 15.316 12.081 5.744H274.799l12.889-5.744-5.939-15.316z"/><path class="shadow-obj-2x" fill="#e7a46b" d="M272.866 248.602l-10.514-61.4h-6.342v85.675h18.789l12.889-5.744-5.939-15.316z"/></g><g class="hexatar-base"><g class="hexatar-eye-right"><path class="white-obj" d="M226.791 199.695s-.085-8.325-2.842-11.454c-12.502-3.883-27.715-1.712-32.493 0-2.452 4.164-2.517 5.234-2.517 5.234s1.08 8.351 15.032 8.953c13.952.602 20.879-1.87 20.879-1.87s1.837 1.656 1.941-.863z" fill="#fff"/><circle class="shadow-obj" cx="209.239" cy="193.582" r="7.994" opacity=".3" fill="#2da4d4"/><circle class="col-obj" cx="209.239" cy="193.582" r="4.137" fill="#57b6dd"/><circle class="white-obj" cx="206.342" cy="196.124" r="2.573" fill="#fff"/><path class="hair-col" d="M228.303 190.195c-5.162-4.126-17.609-8.038-37.205-2.447l-2.158 5.727 3.253-4.484c.039-.059 19.969-5.68 31.577-.091 2.158 5.326 3.167 8.924 3.022 10.795.432-2.23-.143-5.685-1.727-10.363a21.38 21.38 0 0 1 3.238.863z" fill="#424242"/><path class="skin-col" d="M193.342 200.288c2.23 1.078 12.904 6.514 28.628.775-10.271 3.601-26.469-.129-28.628-.775zm32.586-14.915c-8.275-3.382-16.911-3.957-25.979-1.798-6.548 1.512-11.01 3.526-13.385 5.901 3.383-1.728 7.628-3.238 12.593-4.461 10.003-2.375 18.928-2.303 26.771.358z" fill="#e7a46b"/></g><g class="hexatar-eye-left"><path class="white-obj" d="M286.353 199.695s.085-8.325 2.842-11.454c12.502-3.883 27.715-1.712 32.493 0 2.452 4.164 2.517 5.234 2.517 5.234s-1.08 8.351-15.032 8.953c-13.952.602-20.879-1.87-20.879-1.87s-1.836 1.656-1.941-.863z" fill="#fff"/><circle class="shadow-obj" cx="303.906" cy="193.582" r="7.994" opacity=".3" fill="#2da4d4"/><circle class="col-obj" cx="303.906" cy="193.582" r="4.137" fill="#57b6dd"/><circle class="white-obj" cx="306.802" cy="196.124" r="2.573" fill="#fff"/><path class="hair-col-2x" d="M284.842 190.195a21.38 21.38 0 0 1 3.238-.863c-1.583 4.678-2.158 8.133-1.727 10.363-.145-1.87.863-5.468 3.022-10.795 11.608-5.589 31.538.032 31.577.091l3.253 4.484-2.158-5.727c-19.596-5.591-32.043-1.679-37.205 2.447z" fill="#282828"/><path class="skin-col-2x" d="M313.987 185.015c4.965 1.223 9.21 2.733 12.593 4.461-2.375-2.375-6.836-4.39-13.385-5.901-9.068-2.158-17.704-1.583-25.979 1.798 7.844-2.661 16.768-2.733 26.771-.358zm-22.812 16.048c15.724 5.739 26.397.303 28.628-.775-2.159.646-18.358 4.376-28.628.775z" fill="#e0893f"/></g></g><g class="hexatar-base"><g class="hexatar-eyebrows-right"><path class="col-obj" d="M178.292 176.866l3.943-1.287a76.394 76.394 0 0 1 15.758-3.356l9.245-.966a38.136 38.136 0 0 1 16.23 1.821l1.724.586a6.524 6.524 0 0 0 7.833-3.063l-9.242-3.073a38.213 38.213 0 0 0-19.524-1.215l-5.595 1.115a47.785 47.785 0 0 0-20.372 9.438z" fill="#424242"/></g><g class="hexatar-eyebrows-left"><path class="col-obj" d="M334.47 176.866l-3.943-1.287a76.394 76.394 0 0 0-15.758-3.356l-9.246-.966a38.13 38.13 0 0 0-16.229 1.821l-1.724.586a6.524 6.524 0 0 1-7.833-3.063l9.242-3.073a38.213 38.213 0 0 1 19.524-1.215l5.595 1.115a47.78 47.78 0 0 1 20.372 9.438z" fill="#424242"/><path class="shadow-obj" d="M334.47 176.866l-3.943-1.287a76.394 76.394 0 0 0-15.758-3.356l-9.246-.966a38.13 38.13 0 0 0-16.229 1.821l-1.724.586a6.524 6.524 0 0 1-7.833-3.063l9.242-3.073a38.213 38.213 0 0 1 19.524-1.215l5.595 1.115a47.78 47.78 0 0 1 20.372 9.438z" opacity=".4" fill="#282828"/></g></g><g class="hexatar-base"><path class="col-obj" d="M331.696 11.157L286.554-1.292a114.93 114.93 0 0 0-61.106 0l-45.143 12.449c-10.879 3-18.306 22.754-17.997 34.035l.063 2.302-6.025 6.734a17.012 17.012 0 0 0-4.308 10.411l-4.924 89.757L153 164.723s28.335-49.574 101.994-49.574S359 165.387 359 165.387l5.885-10.992-4.924-89.757a17.014 17.014 0 0 0-4.308-10.411l-6.024-6.734.063-2.302c.31-11.28-7.117-31.034-17.996-34.034z" fill="#222"/><path class="shadow-obj" d="M172.333 42.668s33.18-18.64 82.95-18.64 81.649 15.841 81.649 15.841-25.391-20.389-81.386-20.389-83.213 23.188-83.213 23.188z" opacity=".4" fill="#080808"/></g></g><desc>Avatar generated from Hexatar.com - created with Snap</desc><text transform="translate(0 528)" font-size="12">Avatar generated from Hexatar.com</text></svg>