<svg xmlns="http://www.w3.org/2000/svg" preserveAspectRation="none" viewBox="0 0 1245.5 901.28" version="1"><path d="M756.98 951.14c-.13-.13-8.31-.26-18.17-.3s-19.95-.53-22.43-1.09c-2.47-.55-11.92-.86-21-.69-23.82.46-40.61.18-74.5-1.25-16.5-.7-47.32-1.39-68.5-1.55-21.17-.16-48.17-.62-60-1.03-22.89-.8-25.4-.81-59.5-.29-18.45.29-56.08-.36-91-1.57-32.924-1.13-72.51-1.53-195.87-1.94-77.49-.26-141.14-.73-141.47-1.05-.32-.33-.08-1.38.52-2.35.82-1.32.76-2.38-.25-4.21-.75-1.34-1.37-4.15-1.39-6.24s-.8-5.24-1.73-7C.28 917.91 0 914.33 0 898.88c0-16.49.36-20.45 3.25-36.5 4.86-27.02 6.83-33.02 18.68-57.19 7.26-14.81 9.11-19.94 12.03-33.31.78-3.57 2.35-9.65 3.49-13.5 5.65-19.07 7.09-24.94 8.85-36.14 1.06-6.67 2.7-13.65 3.65-15.5 2.04-3.94 7.47-10.7 16.15-20.1 3.42-3.7 8.24-9.78 10.71-13.5 2.46-3.71 7.19-9.75 10.51-13.4 5.3-5.83 7.63-7.44 19.29-13.31 7.3-3.68 15.299-7.95 17.774-9.51 6.276-3.95 17.459-10.06 31.166-17.03 6.415-3.27 16.765-9.18 23-13.15 23.479-14.93 27.184-16.14 38.473-12.54 2.674.85 6.848 1.85 9.277 2.23 6.211.96 17.483 4.93 23.494 8.27 2.8 1.55 7.697 3.87 10.884 5.14l5.793 2.31 2.207-2.06c1.213-1.13 4.681-3.33 7.706-4.88 4.829-2.48 6.598-2.82 14.5-2.82 7.181-.01 9.859.42 13.25 2.12 4.8 2.4 5.569 1.32 2.155-3.02-3.687-4.69-2.036-5.96 6.864-5.28 48.107 3.7 264.13 7.68 302.48 5.58 10.53-.57 10.75-.54 10.75 1.57 0 1.19-1.36 4.82-3.03 8.08-4 7.84-8.18 21.39-10.77 34.94-4.44 23.25-6.2 33.51-6.2 36.3 0 8.65-9.47 52.96-13.59 63.61-.7 1.81-.59 1.82 2.18.36 1.6-.84 4.49-2.21 6.41-3.03 1.93-.83 5.53-2.39 8-3.49 2.48-1.09 6.05-2.32 7.93-2.73 5.66-1.24 25.35-12.58 41.24-23.74 14.58-10.25 31.83-25.79 31.83-28.68 0-2.69-2.23-8.54-6.53-17.1-4.73-9.41-8.46-21.52-8.48-27.56-.01-2.17-.91-8.17-2-13.34s-2.02-13.5-2.06-18.5c-.09-11.02-1.6-15.96-5.01-16.44-1.33-.18-3.32-1.16-4.42-2.16-2.06-1.9-7.45-3.27-13.41-3.41-4.13-.11-4.92-1.76-2.15-4.53 2.25-2.24 2.69-4.06.99-4.06-.61 0-.94-1.37-.75-3.16.19-1.9-.18-3.34-.93-3.59-.68-.23-1.25.27-1.25 1.1 0 3.92-11.49 8.06-15.86 5.72-2.21-1.18-2.89-4.49-1.14-5.57.55-.34 1-1.41 1-2.39 0-1.59-.82-1.73-7.86-1.32-8.21.47-10.48-.46-8.1-3.33.95-1.14.94-1.78-.03-2.95-.99-1.19-.91-2.28.36-5.48 1.9-4.72.8-9.31-2.11-8.82-1.38.23-1.82-.53-2.07-3.51-.33-4.06 3.17-11.4 6.64-13.9 3.81-2.75 3.31-3.58-2.09-3.43-4.82.12-5.26-.06-5.58-2.28-.2-1.44.3-2.76 1.25-3.3.88-.49 1.59-2.01 1.59-3.39s1.13-4.16 2.5-6.18c1.38-2.03 2.5-4.16 2.5-4.75s.57-1.63 1.25-2.32c.69-.69 1.3-3.81 1.36-6.95.05-3.13.95-7.72 1.99-10.2 2.39-5.67 2.39-24.06 0-30.76-.83-2.35-2.66-12.09-4.07-21.64l-2.55-17.38-9.26-18.36c-11.12-22.01-15.01-33.07-15.01-42.61v-6.75l-4.96-.21c-3.56-.16-6.29-1.07-9.67-3.24-3.97-2.55-5.21-4.17-7.99-10.5-2.68-6.09-4.67-8.8-10.72-14.55-9.96-9.46-10.38-10.746-5.2-15.93 2.24-2.238 4.69-4.068 5.45-4.068 2.71 0 1.31-2.032-3.61-5.242-6.02-3.934-6.97-6.103-4.03-9.231 1.99-2.121 2.06-2.645.93-6.664-.69-2.4-1.32-5.713-1.41-7.363s-.92-4.44-1.83-6.2c-1.96-3.772-2.15-6.3-.46-6.3.67 0-.68-1.929-3-4.288-2.31-2.358-4.21-4.824-4.21-5.481 0-.656-1.23-1.464-2.75-1.795-4.36-.957-5.25-1.321-5.23-2.154.01-.43 2.83-3.765 6.25-7.41 5.37-5.712 7.06-6.865 12.23-8.343 5.06-1.445 7.06-2.769 12.75-8.449 5.7-5.678 6.76-7.272 6.77-10.158.01-1.882.25-4.322.53-5.422.37-1.403-.81-3.483-3.94-6.971-3.79-4.223-4.38-5.428-3.89-8 .31-1.666.71-3.193.88-3.393.16-.201 2.27.587 4.67 1.75 5.32 2.575 7.73 2.688 7.74.364.01-1.882 4.79-10.429 7.73-13.825 2.67-3.08 7.03-5.689 8.24-4.938.59.363 3.2-1.107 5.8-3.267 2.6-2.159 5.26-3.739 5.91-3.51 2.52.88 6.52-3.298 12.05-12.572 4.99-8.358 8.36-12.857 17.03-22.727 1.01-1.149 2.62-2.526 3.57-3.06.98-.547 3.15-5.133 4.97-10.506 1.99-5.857 5.25-12.607 8.47-17.497 2.87-4.38 5.22-8.31 5.22-8.73 0-1.37 6.23-10.03 10.52-14.62 2.31-2.47 7.08-7.57 10.6-11.33 10.87-11.62 21.57-21.79 24.54-23.33 1.57-.81 3.74-2.26 4.84-3.23 4.51-3.97 18.3-12.86 22.5-14.49 2.48-.97 6.08-2.8 8-4.09 6.32-4.21 17.32-8.36 24-9.04 3.58-.36 10.04-1.98 14.37-3.59 9.71-3.61 21.12-4.48 54.08-4.12 19.11.21 23.78-.02 27.9-1.39 6.18-2.06 25.91-1.5 32.15.9 2.2.85 6.53 1.8 9.61 2.12 5.55.57 12.59 3.2 16.34 6.09 1.06.83 3.75 1.5 5.96 1.5 4.05 0 23.91 6.23 41.61 13.06 9.34 3.6 15.15 7.21 25.29 15.69 2.79 2.34 5.66 4.25 6.38 4.25s1.31.45 1.31 1 .86 1 1.91 1 5.21 3.15 9.25 7 10.49 9.59 14.34 12.75 10.6 9.37 15 13.78c4.4 4.42 9.65 9.28 11.66 10.8s3.93 3.88 4.27 5.25c.39 1.55 2.59 3.72 5.85 5.77 5.95 3.74 14.09 7.65 15.96 7.66.7 0 2.63.83 4.29 1.84 1.66 1.02 4.81 2.422 7 3.124s6.33 2.336 9.21 3.631c3.54 1.595 6.19 2.162 8.21 1.758 6.74-1.349 11.02 2.587 11.43 10.52.1 1.991 1.18 5.514 2.4 7.829 1.23 2.316 2.22 5.353 2.22 6.75 0 2.906.78 3.224 2.42.986 1.47-2.015 4.01-1.013 5.45 2.156 1.77 3.883 1.35 6.984-1.37 10.216-2.54 3.023-2.97 4.771-1.89 7.6.91 2.372 1.74 1.948 3.85-1.963 2.6-4.837 5.54-4.406 7.13 1.045.64 2.2 2.15 5.673 3.37 7.717 1.33 2.24 2.49 6.414 2.93 10.5l.73 6.783 1.19-4c.65-2.2 1.19-6.002 1.19-8.45.01-5.336 1.17-4.474 3.3 2.45 2.62 8.526 2.92 12.182 1.25 15.416-1.06 2.04-1.2 3.179-.46 3.637.59.366.81 1.741.48 3.056-.49 1.93-.21 2.391 1.42 2.391 2.68 0 2.55 1.503-.32 3.666l-2.33 1.76 3.08 2.07c2.5 1.68 3.14 2.865 3.39 6.287.35 4.79.01 5.004-3.53 2.217-2.45-1.921-5.28-2.666-5.28-1.387 0 .337 2.02 3.296 4.49 6.574 5.28 7.023 7.28 13.014 5.48 16.38-.66 1.233-.89 2.739-.52 3.347 1.13 1.833-.45 5.086-2.48 5.086-1.04 0-2.38-.9-2.97-2-1.17-2.191-3.26-2.75-2.8-.75.39 1.686-.68 2.022-4.07 1.277-1.99-.437-3.96.034-6.57 1.572l-3.72 2.195 2.8 2.235c2.23 1.776 2.57 2.523 1.64 3.636-.75.905-.83 1.923-.23 2.869 1.39 2.196 1.14 3.966-.55 3.966-.82 0-1.5.62-1.5 1.378 0 .757-.68 1.945-1.51 2.638-1.09.903-1.34 2.232-.88 4.679.54 2.881.13 4.052-2.6 7.447-2.38 2.962-2.94 4.323-2.12 5.143 1.76 1.763 1.35 3.776-2.35 11.493-1.9 3.972-4.01 10.034-4.68 13.472-.68 3.438-1.79 6.928-2.48 7.758s-2.41 7.13-3.83 14c-3.02 14.63-3.78 17.14-8.05 26.55-2.3 5.05-3.4 9.3-3.91 15-.99 10.99-5.03 29.48-6.68 30.5-4.84 2.99-11 8.78-11.81 11.1-.52 1.5-2.86 3.93-5.21 5.41l-4.25 2.69 3.43 2.84c1.89 1.57 3.67 2.86 3.95 2.88.29.01 2.31 2.29 4.5 5.06 3.39 4.29 4.36 4.95 6.48 4.43 1.38-.34 3.52-1.57 4.77-2.73 2.89-2.7 4.02-1.6 4.89 4.75l.67 4.91-5.21 4.59c-3.35 2.96-5 5.12-4.62 6.05 1.01 2.51 8.84 7.68 12.65 8.36 2.01.36 4.12 1.21 4.69 1.9 1.59 1.91-.27 14.45-2.5 16.84-1.01 1.09-2.89 3.05-4.17 4.36-1.65 1.68-2.14 3.01-1.67 4.5.74 2.31-1.16 11.74-2.76 13.76-.78.98-1.32 1-2.43.08-.79-.66-2.53-1.24-3.87-1.3-1.99-.08-2.44.38-2.44 2.54 0 2.1 1.5 3.81 7.25 8.27 3.99 3.1 9.73 8.59 12.75 12.21 3.03 3.62 8.35 9.81 11.82 13.76 3.48 3.95 7.7 9.58 9.39 12.51 1.72 2.98 4.68 6.34 6.72 7.63 6.15 3.88 29.64 26.16 34.32 32.54 1.41 1.93 3.12 5.4 3.81 7.73 1.23 4.16 1.35 4.25 9.34 6.78 8.65 2.73 11.8 4.24 23.6 11.29 10.99 6.55 14.19 9.26 27.29 22.63l11.9 12.07-.6 7.5c-.3 4.13-1 12.23-1.6 18-1.8 17.31-2.9 29.86-3.9 42-.5 6.33-1.4 14.88-2 19-.6 4.13-1 11.86-1.1 17.18 0 5.32-.4 12.97-1 17-.5 4.03-1.9 18.57-3 32.32s-2.3 25.75-2.6 26.67c-.2.92-1.1 7.44-1.8 14.5-1.3 12.13-2.8 19.98-6.3 33.83-4.7 18.83-16.04 35.71-34.29 51.26-7.59 6.46-17.69 10.21-36 13.35-12.13 2.09-14.98 2.15-98.5 2.1-111.77-.07-200.59-.02-253.33.15-23.28.08-42.43.04-42.57-.1zm-25.95-23.15l10.15-.11 1.25-5.25c2.44-10.36 8.2-25.25 15.95-41.3l7.89-16.34-1.01-8.8c-.56-4.85-1.39-17.13-1.85-27.31-.76-16.76-2.26-29.95-3.66-32.21-.48-.77-2.14 1.04-4.87 5.3-8.53 13.36-20.72 31.1-25.69 37.41-3.47 4.4-7.14 9.57-8.16 11.5s-2.96 4.97-4.31 6.75c-1.34 1.79-2.81 4.49-3.27 6-2 6.64-4.13 14.36-6.13 22.25-1.18 4.68-3.05 11.36-4.16 14.85-1.1 3.49-2.56 9.05-3.24 12.34-1.13 5.51-1.06 6.34.86 10.16 2.05 4.04 2.26 4.17 8.1 4.72 3.3.31 7.35.47 9 .36s7.57-.25 13.15-.32zm144.8-.34c.08-.15 1.75-2.74 3.7-5.77 1.96-3.02 6.89-11.06 10.96-17.85 4.07-6.8 8.92-14.9 10.78-18 8.62-14.38 14.4-24.69 20.84-37.15 9.65-18.67 14.33-27 15.17-27 .4 0 1.55-1.91 2.55-4.25 3.38-7.83 20.67-42.11 22.63-44.85 1.06-1.49 1.92-2.92 1.92-3.19 0-1.05-10.91-4.82-15.07-5.21-8.76-.81-19.57-2.37-27.26-3.92-9.94-2-11.4-1.98-12.1.17-.31.96-5.36 6.7-11.22 12.75-11.44 11.81-19.98 22.52-24.21 30.38-1.45 2.69-4.71 7.98-7.24 11.76-2.54 3.77-5.88 9.11-7.42 11.86s-3.59 5.9-4.54 7c-1.39 1.6-7.96 12.54-12.9 21.5-4.32 7.83-4.48 9.28-4.47 40.42.01 16.56.4 30.72.86 31.47.69 1.11 4.23 1.25 18.86.75 9.91-.33 18.08-.73 18.16-.87zm-579.21-9.25c.455-2.19 1.263-4.42 1.795-4.95s.967-1.71.967-2.61c0-2.93 3.214-8.31 8.742-14.65 5.72-6.56 20.764-19.94 24.834-22.09 1.64-.87 2.42-2.14 2.42-3.94 0-2.59 5.72-13.22 10.92-20.28 3.48-4.74 14.66-16 15.88-16 .54 0 3.17-1.82 5.85-4.04 2.67-2.22 7.87-5.55 11.55-7.4 3.69-1.86 7.7-4.07 8.92-4.93 2.48-1.73 2.06-2.03-4.35-3.09-4.5-.75-5.76-2.75-5.79-9.22-.02-3.38-.98-6.75-3.25-11.32-3.04-6.12-3.65-6.71-10.42-10.15-3.96-2.01-8.22-4.38-9.48-5.26-4.55-3.18-12.78-11.84-15.94-16.76l-3.22-5.03-1.48 2.85c-4.31 8.36-12.31 14.35-19.144 14.35h-3.239l2.123 3.6c2.83 4.79 3 13.6.369 18.98-3.48 7.12-4.746 8.57-9.795 11.18-5.715 2.95-18.358 4.2-24.732 2.44l-3.71-1.02-.605 3.66c-1.465 8.88-3.437 11.71-13.453 19.32-9.422 7.16-18.973 11.51-29.913 13.61-5.838 1.12-9.68 2.36-10.116 3.27-.386.8-1.92 4.13-3.41 7.38-5.7 12.47-19.48 27.4-27.191 29.46-2.237.6-2.99 1.61-3.92 5.25-1.392 5.46-7.703 18.75-11.72 24.69-1.607 2.38-2.623 4.62-2.256 4.99s11.319.82 24.339 1c13.019.19 23.832.5 24.029.7.196.2 16.829.27 36.963.17l36.606-.18.827-3.98zm-213.43-.48c1.71-1.63 3.9-4.22 4.87-5.75.98-1.53 2.35-3.15 3.05-3.59s1.27-1.93 1.27-3.31c0-1.39.4-3.28.88-4.2.89-1.73.19-9.86-1.99-23.07-.91-5.57-2.03-8.51-4.56-12-13.05-17.99-14.33-21.76-15.4-45.12-.44-9.62-.83-18.03-.86-18.67-.04-.65-1.17-2.49-2.53-4.1-1.35-1.61-4.79-7.38-7.64-12.83-4.3-8.2-5.27-11.01-5.65-16.4-.47-6.46 1.06-15 2.68-15 .47 0 1.15 2.14 1.53 4.75s2.44 8.42 4.59 12.9c3.97 8.26 7.13 11.73 17.91 19.62 6.94 5.09 8.34 8.33 9.13 21.22.76 12.5 1.68 14.94 9.57 25.48 6.03 8.05 12.31 11.49 23.739 13.01 5.688.75 9.73 2.02 14.458 4.53l6.564 3.48 8.868-1.08c11.498-1.39 14.277-2.65 23.23-10.45 9.541-8.32 11.611-9.16 14.676-5.93 2.902 3.06 3.846 3.05 14.008-.13 9.466-2.96 17.081-6.98 20.987-11.08 2.879-3.02 9.817-18.43 9.811-21.79-.005-2.62-11.892-9.03-15.257-8.22-17.378 4.14-19.631 4.78-28.673 8.16-5.399 2.01-24.41 3.77-34.888 3.23-7.132-.37-8.283-.76-16.179-5.48-13.628-8.16-16-10.06-16-12.78 0-2.28.348-2.44 5.25-2.41 8.074.03 12.371 1.42 19.083 6.14l6.167 4.33h13.5c12.491 0 13.799-.18 17.5-2.41 5.669-3.41 9.393-7.02 11.534-11.18 1.969-3.83 7.242-7.11 9.878-6.14.874.32 3.329 2.06 5.456 3.85 4.94 4.18 7.559 4.71 17.242 3.47 16.784-2.14 21.843-5.28 27.133-16.84 2.458-5.37 2.616-9.11.75-17.76-1.167-5.41-6.104-7.6-19.421-8.63-6.364-.5-14.905-1.47-18.98-2.18-7.776-1.34-12.68-.95-25.092 2.01-25.412 6.05-28.546 6.54-45.587 7.03-14.43.42-17.571.25-20.2-1.11-1.712-.88-3.923-1.61-4.913-1.62-.99 0-5.172-3-9.294-6.67-10.87-9.67-12.89-12.72-10.55-15.92 1.2-1.64 1.67-1.68 5.57-.39 2.35.78 6.615 3.55 9.48 6.17 2.866 2.62 6.429 5.23 7.918 5.79 1.488.57 9.315 1.03 17.39 1.02 14.935 0 24.49-1.47 44.596-6.86 7.788-2.08 8.874-3.15 11.159-11.01 1.97-6.78 4.902-11.12 7.512-11.12 1.855 0 3.361 2.5 6.798 11.25 1.921 4.9 5.883 6.37 19.386 7.2 18.1 1.11 27.846.76 29.876-1.08 2.438-2.2 8.858-14.77 8.858-17.33 0-1.19-.46-3.03-1.023-4.08-.729-1.36-.658-2.5.25-3.98 1.116-1.81.965-2.3-1.227-3.99-1.375-1.06-4.3-2.57-6.5-3.36s-7.825-2.86-12.5-4.6c-21.863-8.14-29.024-8.91-48.5-5.23-7.134 1.35-19.18 2.46-34.282 3.17-19.705.92-24.468 1.45-31 3.47-11.945 3.7-13.715 3.89-19.157 2.08-7.795-2.59-15.455-12.53-12.175-15.8 1.25-1.25 5.68.82 9.886 4.62 1.623 1.47 3.406 1.98 6.254 1.82 7.431-.44 32.001-7.2 39.296-10.8 3.948-1.96 8.453-3.54 10.011-3.52 1.997.02 2.677-.37 2.305-1.34-.289-.75.372-2.51 1.47-3.91 2.9-3.68 4.563-9.45 6.903-23.93 1.142-7.06 2.81-14.71 3.704-17 3.134-8.01 8.676-14.66 12.22-14.66.636 0 1.065 2.43 1.065 6.04 0 8.49 2.7 20.8 5.505 25.1 2.803 4.29 9.114 6.86 16.923 6.87 2.79.01 9.572 1.16 15.072 2.57 7.218 1.85 12.966 2.61 20.657 2.74 10.105.17 10.796.05 13.35-2.32 4.404-4.09 7.794-11.71 7.11-15.99-.794-4.97 1.348-8.07 4.322-6.25 1.134.69 2.061.84 2.061.32 0-1.4-5.069-4.68-8.5-5.51-3.302-.79-10.11-3.34-27.495-10.31-12.305-4.93-26.012-9.29-35.199-11.19-7.235-1.51-11.39-.44-19.892 5.1-7.104 4.63-24.66 14.74-32.414 18.66-2.75 1.39-7.475 4.17-10.5 6.19-7.478 4.98-49.734 26.98-51.824 26.98-1.47 0-5.89 5.42-11.42 14-5 7.77-11.69 15.31-21.02 23.68-2.16 1.95-4.4 5.45-5.74 9-2.17 5.74-2.18 5.95-.53 14.6 1.99 10.46 1.18 14.23-3.87 18.08-1.82 1.39-3.87 4.01-4.56 5.83s-2.32 6.01-3.62 9.31-3.08 8.93-3.97 12.5c-3.43 13.9-12.34 37.9-21.02 56.64-3.51 7.58-9.07 29.02-11.37 43.87-1.11 7.15-2.49 15.92-3.06 19.49-1.06 6.63-.44 31.94.82 33.17 1.38 1.34 6.33 1.56 37.79 1.7l32.1.13 3.1-2.96zm134.19-232.04c0-.55.45-1 1-1s1 .45 1 1-.45 1-1 1-1-.45-1-1zm602.98 233.48c-.69-.84-1.52-1.27-1.84-.95s.08 1 .89 1.51c2.12 1.34 2.4 1.18.95-.56zm-174.98-.48c0-.55-.47-1-1.05-1-.59 0-.79.45-.45 1s.82 1 1.06 1c.25 0 .44-.45.44-1zm-7.42-13.77c-1.73-1.65-1.76-1.62-.61.61.66 1.28 1.47 2.06 1.81 1.72.33-.33-.21-1.38-1.2-2.33zm8.42-1.23c0-.55-.47-1-1.05-1-.59 0-.79.45-.45 1s.82 1 1.06 1c.25 0 .44-.45.44-1zm124.5-17c.34-.55.15-1-.44-1-.58 0-1.06.45-1.06 1s.2 1 .45 1c.24 0 .71-.45 1.05-1zm-127.5-11.12c0-.55-.45-.72-1-.38s-1 1.07-1 1.62.45.72 1 .38 1-1.07 1-1.62zm-442.75-11.09c1.891-2.17 2.381-8.28.746-9.29-.552-.34-3.364.64-6.25 2.19-6.016 3.22-6.908 5.57-3.683 9.67 2.086 2.65 2.234 2.68 4.795 1.09 1.453-.91 3.43-2.55 4.392-3.66zm196.75-11.79c0-.55-.45-1-1-1s-1 .45-1 1 .45 1 1 1 1-.45 1-1zm117-39.84c4.68-.58 12.85-1.35 18.17-1.7l9.67-.63.7-5.16c.39-2.84 1.59-7.56 2.68-10.49 1.09-2.92 1.82-5.48 1.62-5.68s-3.89.13-8.19.74c-6.52.91-7.97.86-8.72-.32-.73-1.16-.9-1.11-.91.29-.01 1.15-1.06 1.85-3.27 2.17-10.57 1.51-56.17 5.89-79.25 7.61-26.55 1.97-38.64 3.67-40.51 5.68-.42.46-1.05 1.79-1.4 2.97-.55 1.81-.16 2.21 2.63 2.69 4.47.76 24.02 2.65 30.78 2.98 13.41.65 68.31-.18 76-1.15zm196-16.66c-.68-.82-1.36-1.5-1.51-1.5s-.53.68-.85 1.5c-.4 1.04.07 1.5 1.52 1.5 1.74 0 1.88-.25.84-1.5zm-79.5-.5c.34-.55.15-1-.44-1-.58 0-1.06.45-1.06 1s.2 1 .45 1c.24 0 .71-.45 1.05-1zm7.5-2.06c0-1.13-.43-1.79-.95-1.46-.53.32-.7 1.25-.4 2.05.8 2.07 1.35 1.83 1.35-.59zm-11.11-3.01c-1.6-.99-2.34-.46-1.42 1.02.37.6 1.14.8 1.71.44.67-.41.57-.93-.29-1.46zm-106.84-4.97c16.05-1.25 28.92-3.46 34.59-5.94 2.28-.99 7.54-4.1 11.7-6.91 17.5-11.81 24.04-30.32 34.63-98.11 1.17-7.45 1.67-10.18 6.63-36 1.43-7.42 3.95-17.02 5.6-21.32s2.73-8.08 2.4-8.41-14.66-.51-31.85-.39c-43.42.29-73.88.16-74.68-.34-.37-.23-16.85-.65-36.62-.94-46.47-.69-118.66-2.52-138.45-3.52-8.52-.42-15.65-.65-15.85-.49-.19.16.55 3.35 1.64 7.1 3.97 13.54 6.5 29.83 8.28 53.31 1.5 19.72 3.91 42.32 4.58 42.95.32.3.32-1.7-.01-4.45-2.25-19.18-1.32-28.93 1.25-13 1.14 7.09 4.98 21.56 10.09 38 3.9 12.56 10.61 26.17 15.55 31.55 2.29 2.5 4.35 4.97 4.57 5.5.3.71 12.51 10.87 15.82 13.16.23.16.21.5-.04.75-.99.99-13.45-2.65-15.42-4.5-1.15-1.08-2.54-1.96-3.09-1.96-2.33 0-13.59-12.67-16.88-19-2.09-4.03-7.45-21.31-7.56-24.41-.05-1.15-.3-1.54-.57-.88-.92 2.26 2.76 18.59 5.34 23.7 5.27 10.4 15.39 21.49 23.38 25.61 7.3 3.76 21.16 6.88 35.42 7.95 7.7.58 15.58 1.21 17.5 1.39 9.07.84 90.15.52 102.05-.4zM410.38 635.88c0-.55.45-1 1-1s1 .45 1 1-.45 1-1 1-1-.45-1-1zm209.39 147.45c.34-.89.17-1.29-.4-.94-.54.34-.99 1.03-.99 1.55 0 1.44.72 1.12 1.39-.61zm51.61-7.01c0-.85-.45-1.27-1.01-.93-.56.35-.76 1.05-.44 1.56.85 1.39 1.45 1.13 1.45-.63zm73.21-7.21c8.43-6.39 19.94-12.58 27.29-14.69 3.3-.95 6.45-2.09 7-2.52.55-.44 1.83-.96 2.85-1.16 1.46-.28.93-1.04-2.56-3.65-2.43-1.82-7.42-6.62-11.1-10.68-6.35-7.02-15.67-14.88-20.82-17.57-1.3-.68-5.09-3.61-8.42-6.51-8.05-7.01-13.5-9.81-17.41-8.96-1.65.37-3.24 1.03-3.52 1.48-.27.45.43 3 1.56 5.67 1.13 2.68 2.53 5.99 3.11 7.36.58 1.38 1.68 3.7 2.44 5.16.75 1.46 1.37 3.41 1.37 4.34s2.53 9.36 5.61 18.74c4.02 12.23 5.46 17.98 5.08 20.34-.48 2.96.05 7.42.88 7.42.18 0 3.17-2.15 6.64-4.77zm229.35-9.39c1.34-1.46 4.63-7.76 7.3-14 2.67-6.23 6.1-14.04 7.63-17.34 3.32-7.19 13.71-36.5 12.93-36.5-.3 0-2.08 3.31-3.95 7.36-3.01 6.52-4.8 10.96-10.02 24.8-4.45 11.83-19.26 37.84-21.54 37.84-1.32 0-1.11 2.4.34 3.85 1 1 1.62.79 3.06-1.05.99-1.26 2.9-3.49 4.25-4.96zm-14.09-9.59c1.28-5.21 8.54-18.97 11.86-22.49 2.02-2.15 4.43-6.6 6.16-11.39 2.58-7.16 40.74-83.99 44.09-88.78.78-1.12 1.42-2.66 1.42-3.43 0-2.43-2.77.62-4.02 4.42-.62 1.88-1.55 3.42-2.06 3.42s-4.19 2.83-8.17 6.29c-3.99 3.45-8.78 7.36-10.65 8.68-5 3.51-17.96 16.91-20.84 21.53-3.23 5.19-21.77 23.23-30.76 29.93-12.74 9.51-20.57 14.48-21.95 13.95-1.41-.54-17.52 7.46-25.55 12.68-2.47 1.61-5.65 3.39-7.05 3.96-1.41.58-5.01 2.4-8 4.06-3 1.65-7.8 4.14-10.68 5.53-8.89 4.29-7.98 4.75 7.84 3.97 16.7-.82 33 .53 41.47 3.45 3.16 1.08 8.03 1.99 10.83 2.01 5.31.03 15.3 1.96 19.59 3.78 4.17 1.76 5.74 1.38 6.47-1.57zm-307.01.82c.32-.51.12-1.21-.44-1.56-.56-.34-1.02.08-1.02.93 0 1.76.6 2.02 1.46.63zm40.54-1.07c0-.55-.47-1-1.05-1-.59 0-.79.45-.45 1s.82 1 1.06 1c.25 0 .44-.45.44-1zm127.94-7.02c4.08-1.09 9.6-1.98 12.26-1.98 8.21 0 23.94-2.95 31.8-5.97 9.36-3.6 28.09-13.89 35.69-19.63 1.75-1.32 3.48-2.4 3.85-2.4s2.67-1.35 5.12-3c2.44-1.65 8.58-4.44 13.64-6.21l9.2-3.21 18.55-18.6c16.99-17.02 18.9-19.31 22.71-27.04 3.98-8.08 6.92-19.39 8.73-33.49.78-6.11 1.96-8.4 3.52-6.84 1.26 1.26 3.96 10.83 3.98 14.07.02 3.03 2.56 3.3 9.01.94 9.37-3.42 12.78-6.09 15.78-12.4 1.5-3.14 2.97-5.94 3.27-6.22.31-.27 2.06-2.97 3.89-6 1.83-3.02 4.34-6.7 5.57-8.17s5.94-9.12 10.47-17 9.29-15.81 10.57-17.63c2.97-4.22 7.08-16.68 8.47-25.7.59-3.85 1.73-9.22 2.53-11.93 2.07-7.02 1.92-8.45-.58-5.76-2.39 2.57-5.61 2.82-8.02.65-1.54-1.4-2.57-1.4-10.58-.01-4.87.85-11.79 2.22-15.37 3.03-8 1.82-14.11 1.92-16.19.27-2.92-2.31-8.81-10.88-8.81-12.82 0-2.7 1.13-2.41 4.84 1.21 1.77 1.73 3.38 2.97 3.57 2.75.2-.21.68-2.26 1.05-4.55.64-3.85.46-4.34-2.38-6.44-3.49-2.58-4.02-4.9-1.12-4.9 1.87 0 1.86-.21-.49-5.25-3.76-8.06-3.37-9.24 1.81-5.55 2.89 2.06 3.04 2.07 2.28.25-1.47-3.53-1.79-6.37-1.12-9.93.82-4.41 2.96-4.53 4.49-.27 2.63 7.3 6.92 14.27 9.22 14.97 1.3.39 5.18 1.57 8.64 2.61l6.28 1.9-1.37-2.11c-.75-1.17-3.47-3.24-6.05-4.62-2.84-1.52-4.57-3.09-4.4-4 .9-4.89 13.72.33 19.38 7.9 4.24 5.69 5.33 6.3 4.62 2.6-.45-2.35-.22-2.5 3.89-2.57 2.4-.04 5.18-.39 6.18-.78 1.53-.61 1.27-.98-1.65-2.37-4.36-2.07-7.26-5.91-13.11-17.28-3.63-7.06-4.57-9.86-4.34-12.99.41-5.78 3-5.86 5.17-.16 1.78 4.64 4.11 6.07 8.24 5.03 1.2-.3 3.24.14 4.53.97 2.05 1.33 3.01 1.34 7.66.12 5.79-1.51 9.35-1.14 16.02 1.69 5.86 2.49 6.96 2.32 4.16-.66-1.44-1.53-3.45-2.5-5.2-2.5-1.82 0-3.08-.63-3.48-1.75-.34-.96-1.3-2.54-2.14-3.51-.83-.97-1.58-2.72-1.67-3.88-.11-1.56-1.45-2.61-5.08-3.98-2.71-1.03-5.48-2.62-6.17-3.55-1.98-2.69-2.7-.66-.8 2.25 1.29 1.96 1.44 2.93.6 3.76-1.53 1.54-6.02-1.02-8.01-4.56-1.39-2.48-1.33-2.9.84-5.84l2.34-3.16L1051 434c-4.91-4.94-6.62-7.37-6.62-9.39 0-3.55 1.68-3.47 6.9.31 4.78 3.47 9.6 10.48 10.5 15.27.5 2.63 1.13 3.3 3.3 3.48l2.69.22-2.69-2.81c-2.74-2.86-3.5-5.2-1.7-5.2 4.6 0-6.79-11.96-15.76-16.56-1.79-.92-4.42-3.06-5.84-4.75-1.42-1.68-5.35-4.45-8.74-6.13l-6.16-3.07-2.78-7.96c-4.7-13.43-4.64-25.12.12-24.95 1.62.06 2.16-.5 2.16-2.25 0-1.54.59-2.33 1.75-2.34 1.03-.01.1-.96-2.23-2.28-5.12-2.89-6.41-6.31-4.18-11.01 2.21-4.65 2.1-7.61-.38-10.24-2.18-2.32-3.12-7.52-1.46-8.07 1.33-.43 7.85 8.28 7.8 10.43-.02.92 1.04 2.84 2.35 4.26 3.21 3.46 4.63 15.49 1.95 16.52-1.52.59-1.48.8.36 2.08 2.86 2 2.55 3.93-.87 5.44-2.65 1.18-2.79 1.47-1.53 3.27.77 1.09 1.13 3.01.82 4.27-.38 1.49.17 3.25 1.56 5.06 8.22 10.68 10.11 13.87 9.56 16.13-.41 1.65-.2 2.22.71 1.91.71-.24 4.22.88 7.79 2.49 5.56 2.51 7.29 2.84 11.89 2.32 3.57-.41 6.35-1.43 8.24-3.02 1.58-1.33 3.71-2.68 4.75-3.01 1.19-.38 2.66-2.85 4.04-6.82 1.2-3.42 2.83-7.7 3.63-9.5.8-1.81 1.45-4.55 1.45-6.1 0-4.05 3.01-12.18 8.74-23.62 4.89-9.76 5.02-10.26 5.56-21 .33-6.58 1.35-13.61 2.53-17.5 2.59-8.527 3.53-17.926 2.15-21.553-.59-1.571-1.71-7.151-2.49-12.4-2.43-16.521-2.68-17.407-6.84-23.795-2.24-3.437-4.36-6.25-4.72-6.25s-1.89-.97-3.4-2.156c-2.92-2.297-5.14-2.728-15.69-3.043-6.15-.183-7.08.08-12.15 3.448-8.17 5.421-12.46 9.494-15.41 14.638-2.64 4.588-6.5 9.795-10.1 13.613-1.04 1.1-2.21 3.8-2.61 6s-2.04 6.144-3.65 8.765c-3.35 5.478-3.46 6.042-1.42 7.735 1.91 1.578 1.93 4.4.06 5.954-1.57 1.301-1.33 7.364.63 16.384.9 4.14.81 5.09-.63 6.5-1.57 1.55-1.82 1.49-3.72-.82-1.72-2.1-1.98-3.59-1.67-9.67.2-3.96.08-7.11-.28-7.02-.55.15-3.99-3.347-6.78-6.891-2.18-2.766-3.1-5.609-2.55-7.822.47-1.867.15-2.574-1.41-3.068-2.95-.938-7.89-6.954-9-10.969-1.85-6.727 3.51-18.578 8.41-18.578.79 0 1.44-.717 1.44-1.593 0-.877.92-1.835 2.05-2.129 2.28-.595 5.16-5.619 6.87-11.955l1.12-4.166 7.73.58 7.73.58-3.75-4.161c-4.14-4.598-4.73-7.086-1.85-7.838 1.72-.45 1.76-.743.5-3.157-2.03-3.891-2.78-8.988-1.55-10.473 1.2-1.443.95-22.06-.3-24.938-.99-2.28 1.04-2.321 2.31-.047.8 1.436 1.2 1.495 2.55.378 2.17-1.804 2.09-2.14-1.91-8.081-2.45-3.654-3.5-6.32-3.5-8.965 0-2.327-.81-4.799-2.12-6.471-2.71-3.445-1.29-5.53 2.57-3.772 2.08.948 2.66.851 3.46-.577.74-1.308.35-2.364-1.65-4.454-3.34-3.505-2.5-4.306 2.39-2.266 6.25 2.612 9.35 6.215 9.4 10.942.03 2.235.91 5.638 1.96 7.563s2.41 4.696 3.02 6.158c1.37 3.304 4.26 4.072 12.25 3.258 5.46-.556 6.93-.302 11.93 2.07 4.54 2.153 5.92 3.378 6.79 6.005.9 2.708 1.49 3.202 3.3 2.756 1.21-.299 3.07-1.443 4.13-2.544 1.91-1.979 1.9-2.024-.66-4.225-3.2-2.752-6.23-8.418-5.1-9.544.46-.459 2.51-.457 4.56.005 3.59.809 3.68.762 2.59-1.3-.62-1.176-2.63-3.985-4.47-6.242-1.84-2.256-3.35-4.802-3.35-5.656 0-1.347-4.23-2.554-11.16-3.18-2.42-.219-1.41-1.584 1.82-2.482 5.53-1.536 9.32-1.337 16.51.867l6.33 1.946-2.75-2.234c-1.51-1.228-2.75-2.554-2.75-2.945 0-2.511 12.51 1.881 17.25 6.056 1.6 1.401 1.75 1.374 1.75-.293 0-1.009-.51-3.268-1.15-5.02-.95-2.629-2.06-3.472-6.34-4.821-2.85-.899-5.69-1.635-6.3-1.635-2.41 0-10.21-5.551-10.21-7.262 0-1.865.41-1.849 9 .354 4.98 1.275 5 1.263 5-2.485 0-2.093-.57-3.613-1.5-3.968-2.25-.865-1.81-3.706 1.04-6.681l2.54-2.651-4.79-3.876c-2.63-2.133-5.33-4.61-5.99-5.507-.78-1.053-3.43-1.856-7.5-2.272-3.78-.386-8.7-1.804-12.3-3.542-7.97-3.854-12.44-5.499-13.11-4.83-1.89 1.887 6.77 8.72 11.04 8.72 3.18 0 .28 2.791-3.52 3.399-4.74.758-6.16.085-11.41-5.41-2.2-2.304-6.58-6.844-9.75-10.089-5.99-6.152-6.85-8.182-4.11-9.712 1.45-.81 1.25-1.57-1.74-6.57-2.13-3.56-3.88-5.46-4.73-5.13-1.82.7-5.31-2.2-9.73-8.09-5.76-7.69-13.28-15.14-21.44-21.24-4.12-3.08-12.03-9.95-17.56-15.27-12.51-12.01-12.84-12.19-48.35-25.56-3.52-1.33-8.92-2.59-12-2.8-3.07-.21-9.64-1.8-14.59-3.53-4.95-1.72-12.6-3.79-17-4.59-4.4-.81-9.35-1.87-11-2.37-1.65-.49-6.28-1.2-10.3-1.58-6.07-.56-7.61-.39-9.15 1-1.02.92-4.4 2.27-7.52 3-4.74 1.1-7.17 1.08-14.85-.09-5.05-.77-15.47-1.58-23.16-1.8-11.85-.34-14.83-.11-19.5 1.5-3.03 1.04-12.04 2.99-20.02 4.32-7.97 1.33-17.2 3.43-20.5 4.67-7.63 2.85-25.92 12.33-30.5 15.81-3.34 2.54-6.48 4.63-15.6 10.38-4.27 2.69-29.39 24.6-29.41 25.65-.01.33-2.51 3.53-5.56 7.1-5.06 5.93-13.43 21.13-13.43 24.39 0 .74-.9 2.49-2 3.89-1.1 1.39-2 3.01-2 3.59 0 .57-1.02 2.554-2.27 4.4-1.57 2.301-2.71 6.326-3.65 12.795-1.3 9.004-2.82 13.638-5.56 16.937-.69.825-1.57 2.835-1.95 4.466-.39 1.63-1.58 4.868-2.64 7.195-1.06 2.326-1.93 4.741-1.93 5.366 0 .626-1.15 4.493-2.57 8.594s-2.46 8.902-2.31 10.668c.35 4.434-1.19 15.639-2.25 16.293-.48.295-.87 2.132-.87 4.082 0 2.33-1.08 5.139-3.15 8.191-2.57 3.78-3.12 5.523-2.95 9.353.35 8.274-5 14.356-7.57 8.6-1.62-3.639-4.02 12.384-2.49 16.625.64 1.765 1.17 6.102 1.18 9.638s.67 9.129 1.46 12.429c1.85 7.643 1.86 8.844.1 8.166-1.13-.43-1.31.174-.88 2.829.3 1.857.05 4.786-.55 6.508-.96 2.753-.88 3.093.63 2.806 1.33-.251 1.84-1.685 2.22-6.24.51-5.958 2.11-8.176 3.52-4.861 1.37 3.234 1.39 19.129.02 20.265-1.53 1.268-1.04 10.429 1.11 20.525.81 3.85 1.74 8.67 2.04 10.71.37 2.42 2.14 5.55 5.09 9 2.48 2.91 5.32 7.09 6.3 9.29s1.81 3.42 1.85 2.71c.11-1.93 7.79-11.99 10.11-13.23 1.11-.59 1.76-1.5 1.45-2.01-.32-.51-.09-1.84.51-2.96.91-1.71.75-2.17-1.04-2.83-1.97-.73-2-.89-.46-2.18.92-.76 4.22-1.75 7.34-2.2 3.12-.44 8.14-1.19 11.16-1.65 3.49-.54 6.1-.48 7.12.16 1.19.74 3.39.3 8.26-1.65 3.66-1.46 8.55-2.67 10.88-2.69 2.34-.02 5.37-.68 6.74-1.47 3.2-1.82 10.72-1.89 16.22-.13 2.36.75 6.83 2.13 9.94 3.07 4.46 1.33 6.2 2.48 8.2 5.38 1.39 2.02 5.03 6.35 8.09 9.62 3.05 3.26 5.62 6.86 5.7 8 .08 1.13.3 27.49.5 58.56.19 31.08.43 58.08.54 60 .1 1.93-.18 7.39-.63 12.14-1.25 13.29-.11 20.85 3.96 26.18 6.34 8.3 17.93 11.19 27.46 6.84 2.46-1.12 4.68-1.83 4.94-1.58.93.93-7.18 8.2-11.72 10.51-3.5 1.77-6.74 2.47-12.7 2.72-7.12.31-8.54.05-13-2.33l-5-2.67 2.44 2.61c3.64 3.9 7.3 4.49 23.15 3.75 2.53-.12 6.24-1.94 12.74-6.27 9.53-6.34 12.29-9.25 20.72-21.85 2.78-4.15 7.01-10.47 9.39-14.05 2.39-3.57 6.44-8.97 9.01-12 2.57-3.02 5.43-6.61 6.36-7.97 3.71-5.41 1.23-12.62-6.66-19.36-4.98-4.25-5.92-4.67-10.65-4.67-4.8 0-11 2.34-11 4.14 0 .4-1.35 1.39-3 2.21-2.41 1.21-3 1.24-3 .17 0-1.96 9.4-9.48 13.2-10.58 6.05-1.73 17.34 1.61 26.01 7.7 2.88 2.03 9.08 5.63 13.77 7.99 4.69 2.37 9.65 4.94 11.02 5.71 7.21 4.08 15.6 5.85 32 6.77 9.08.51 18.41 1.57 20.75 2.35 3.86 1.29 4.81 1.23 10.5-.61 6.67-2.17 13.45-5.26 20.75-9.47 7.62-4.4 14-4.83 14-.95 0 .73-2.02 5.69-4.5 11.02-2.47 5.33-4.5 10.54-4.5 11.59 0 2.82 3.81 12.44 6.05 15.29 2.82 3.58 2.42 7.12-1.46 13-4.1 6.23-5.46 10.96-5.7 19.93-.13 5.06.24 7.22 1.47 8.58 2.06 2.28 2.09 5.84.1 10.61-1.97 4.72-4.68 4.49-5.51-.46-.31-1.92-1.11-4.47-1.76-5.67-.77-1.41-1.19-7.61-1.2-17.5 0-8.43-.3-17.1-.66-19.28-1.21-7.31-13.58-16.95-23.46-18.28-5.59-.75-7.1.63-7.57 6.97-.4 5.37-.34 5.51 2.78 6.8 4.27 1.77 8.67 5.58 10.47 9.06 1.89 3.65 1.07 14.77-1.77 23.91-1.45 4.66-2.01 9.27-2.01 16.26.01 9.2-.72 12.24-2.33 9.64-1.72-2.79-2.7-9.43-3.36-22.9-.39-7.97-1.24-15.47-1.88-16.66-.78-1.43-2.56-2.39-5.33-2.86-4.06-.69-4.29-.57-9.29 4.66-2.82 2.95-7.14 8.04-9.6 11.32-5.69 7.58-24.48 26.42-30.42 30.5-2.49 1.72-7.58 4.25-11.3 5.63-3.71 1.38-8.11 3.12-9.76 3.88-4.67 2.14-21.29 6.71-27.97 7.69-3.31.49-11.2 1.31-17.53 1.82-6.32.52-13.03 1.39-14.91 1.96-7.98 2.38-10.45 8.85-5.33 13.97 4.91 4.92 14.44 6.48 35.66 5.86 9.95-.29 18.65-.32 19.33-.06 3.95 1.46-3.09 11.29-9.56 13.36-2.03.64-5.71 2.39-8.19 3.88-2.47 1.5-5.85 3.05-7.5 3.46s-6.72 2.4-11.28 4.42c-7.82 3.47-8.34 3.9-9.37 7.67-.59 2.2-1.7 5.7-2.46 7.78-.77 2.07-2.3 7.17-3.41 11.32s-2.63 8.53-3.38 9.72c-4 6.45-2.1 17.37 5.65 32.36 5.96 11.54 6.91 12.27 18.56 14.36 6.93 1.24 7.4 1.2 9.33-.73 2.54-2.54 7.7-17.1 8.52-24.06.75-6.35 2.75-6.93 6.91-2 3.6 4.28 5.43 8.82 5.43 13.47 0 3.17.61 4.27 3.75 6.77 3.72 2.97 3.81 2.98 20.79 3.68 9.38.38 19.06.93 21.51 1.21 3.22.38 6.96-.26 13.47-2.29 15.86-4.94 21.48-9.03 21.48-15.6 0-4.77 5.34-21.27 8.75-27.06 1.63-2.77 3.54-6.75 4.23-8.86.7-2.11 2.79-6.39 4.66-9.53 2.73-4.57 3.61-7.46 4.5-14.62 1.29-10.47.65-22-1.45-26.06-.82-1.59-2.03-5.62-2.69-8.97-1.05-5.32-.93-7.37.92-16.42 2.15-10.57 4.06-14.97 6.5-14.97 2.32 0 2.66 2.93 1 8.64-1.8 6.18-1.41 11.6 1.65 23.12 1.07 4 1.96 8.5 1.99 10 .04 2.12.58 1.37 2.38-3.26 4.39-11.26 5.01-12.52 6.04-12.16 1.3.44.84 16.32-.67 23.16-.61 2.75-2.12 6.35-3.36 8s-3.2 6.15-4.36 10c-3.05 10.08-6.14 17.7-8.12 20-.95 1.1-3.15 6.05-4.9 11-9.91 28.14-14.85 39.5-17.16 39.5-.5 0-.91.65-.91 1.43 0 2.48-5.56 5.53-13.16 7.22-4.04.9-10.42 3.17-14.18 5.06-6.11 3.05-8 3.48-17.5 3.99-5.86.31-11.11.9-11.66 1.31-.55.4-5.05.8-10.02.87-9.08.14-18.98 2.72-18.98 4.94 0 .56-.33 1.35-.75 1.77-.41.41-.75.01-.75-.9 0-1.33-.6-1.5-3.25-.91-5.98 1.33-22 .68-25.28-1.03-1.67-.86-6.84-2.12-11.5-2.79s-9.68-1.83-11.17-2.59c-3.15-1.6-3.8-1.68-3.8-.5 0 .48 3.78 3.97 8.4 7.75 16.27 13.34 29.02 21.31 34.15 21.36 1.13.01 2.48.45 3 .96.53.52 3.2 1.11 5.95 1.32s5.23.45 5.5.54c.28.08 3.85-.73 7.94-1.82zm172.31-254.6c-6.31-6.58-5.44-9.62 1.54-5.37 3.5 2.14 5.21 5.29 4.45 8.2-.64 2.46-1.13 2.23-5.99-2.83zm21.78-12.05c-2.72-5.79-2.99-10.51-.72-12.78.93-.93 1.7-2.22 1.7-2.87s.47-2.87 1.05-4.93c2.13-7.69 5.33-2.37 3.76 6.27-.54 2.97-1.06 8.31-1.15 11.86-.1 3.74-.64 6.61-1.29 6.83-.61.2-2.12-1.77-3.35-4.38zm-21.03 2.22c0-.25 1.02-2 2.25-3.88 1.24-1.88 2.73-4.23 3.32-5.22 1.18-2.01 3.43-1.22 3.43 1.21 0 1.76-6.23 8.34-7.9 8.34-.6 0-1.1-.2-1.1-.45zm-34.12-6.2c-1.88-2.26-1.64-10.09.42-14.35 6-12.34 9.37-15.7 9.03-9-.35 6.79-2.14 21.52-2.84 23.25-.89 2.22-4.81 2.27-6.61.1zm97.84-10.13c-2.44-2.49-3.72-4.73-3.72-6.51 0-1.49.4-2.71.88-2.71 1.66 0 9.25 9.1 8.94 10.72-.55 2.83-2.29 2.41-6.1-1.5zm-31.73-1.9c-3.19-5.04-3.49-7.9-.81-7.7 1.18.09 1.77-1.13 2.24-4.71.35-2.65 1.08-5.1 1.61-5.43.54-.33.97-4.41.97-9.07 0-8.79-1.26-13.38-4.96-18.08-2.71-3.45-1.45-5.07 1.67-2.15 5.21 4.86 6.73 9.46 6.76 20.53.03 8.73-.23 10.4-1.78 11.53-1.74 1.28-1.73 1.43.25 3.95 2.45 3.12 2.82 8.81.56 8.81-.99 0-1.5 1-1.5 2.94 0 4.73-1.75 4.51-5.01-.62zm-20.56-14.55c-.96-2.87-2.4-5.88-3.2-6.69-1.16-1.16-1.33-3.04-.79-9.02.73-8.23 3.11-17.66 4.69-18.64.55-.34 1.42-1.72 1.93-3.08.52-1.35 1.39-2.18 1.94-1.84 1.95 1.2.97 6.63-2.4 13.31-3.13 6.22-3.36 7.28-2.86 13.45.59 7.37 2.26 8.24 2.26 1.18 0-2.44.44-4.44.97-4.44 3.22 0 4.27 11.12 1.64 17.4-.83 1.98-1.72 3.6-1.97 3.6-.26 0-1.26-2.35-2.21-5.23zm-225.43-9.44c0-2.08 8.47-10.33 10.61-10.33 2.18 0 1.58 1.07-3.9 6.9-5.02 5.35-6.71 6.21-6.71 3.43zm221.33-29.73c.3-.78 1.28-5.46 2.19-10.41 1.61-8.74 1.6-9.22-.43-16.6-2.23-8.15-2.61-12.15-1.22-13.01 1.07-.65 3.37 1.89 5.48 6.06 1.26 2.49 1.54 5.91 1.35 16.52-.21 11.49-.52 13.75-2.22 16.08-2.07 2.83-6.13 3.9-5.15 1.36zm-66-38.89c-5.93-4.81-8.43-5.93-11.69-5.22-8.31 1.82-12.81.81-19.32-4.33-4.35-3.44-5.63-3.91-11.88-4.36-10.6-.76-15.15 1.73-7.94 4.34 2.35.85 3.5 1.9 3.5 3.18 0 1.52-.45 1.77-2.25 1.22-5.3-1.62-18.47-2.35-24.26-1.33-4.24.74-7.5.74-11-.01-4.47-.96-5.21-.86-7.13.94-1.38 1.29-3.17 1.9-5 1.69-2.43-.28-3.36-1.36-6.22-7.2l-3.36-6.88-2.14 2.47c-1.17 1.35-3.34 3.2-4.82 4.1-1.84 1.13-2.79 2.65-3 4.84-.51 5.14-2.82 4.79-2.82-.43 0-4.99 3.06-10.45 6.93-12.38 1.3-.65 3.34-2.4 4.53-3.89 2.98-3.74 5.41-2.74 11.17 4.6 4.87 6.2 5.64 6.53 11.37 4.99 1.93-.52 5.98-1.17 9-1.45 3.03-.28 9.55-1.73 14.5-3.21 15.27-4.57 26.93-3.14 34.66 4.26 2.26 2.17 3.94 2.65 11.57 3.28 9.93.82 10.06.87 16.02 6.43 6.04 5.63 5.68 9.3-.42 4.35zm120.71-2.64c-1.69-3.16-1.17-9.94 1.57-20.57 1.42-5.5 2.82-11.04 3.12-12.31.36-1.59-.24-3.15-1.94-5-1.37-1.48-4.18-5.54-6.25-9.02-2.96-4.96-3.88-7.669-4.25-12.499-.46-5.955-.32-6.391 3.86-12.58 5.66-8.365 12.08-15.444 16.44-18.144 2.95-1.82 4.37-2.056 8.92-1.487 5.02.627 5.68 1.031 8.94 5.475 2.07 2.806 4.21 7.447 5.18 11.182 1.95 7.555 2.27 21.29.58 25.443-.65 1.62-1.57 8.03-2.04 14.25-.9 11.83-2.62 16.25-6.65 17.04-1.59.31-1.69-.15-.92-4.5.83-4.69.91-8.27.47-19.85-.11-3.02.31-7.98.94-11.023 1.11-5.337 1.02-5.845-2.59-14.551-3.17-7.641-4.06-8.975-5.83-8.722-2.26.324-2.41 1.876-1.05 10.972l.71 4.673-4.25 1.273c-3.69 1.105-4.63 1.051-7.19-.415l-2.94-1.687.32 2.741c.31 2.666.51 2.749 7.35 3.031 8.64.355 9.18 1.015 10.66 13.078.9 7.33.82 9.58-.56 14.32-.9 3.09-1.64 7.08-1.64 8.86 0 2.56-1.06 4.3-5.03 8.27-2.77 2.77-4.97 5.74-4.88 6.61.31 3.33-.2 4.09-3.71 5.56-4.75 1.99-6.09 1.91-7.34-.42zm-52.94-2.32c-1.38-3.63-.46-12.82 1.86-18.75 1.19-3.02 2.32-6.63 2.53-8.02.2-1.38.45-2.96.56-3.5.1-.54.07-1.43-.08-1.98-.87-3.24-1.3-19.498-.53-20.267 1.38-1.377 2.52 1.72 3.01 8.157.29 3.78.92 7.38 1.41 7.99.49.62.94 4.47 1 8.55.09 6.51-.21 7.84-2.42 10.75-1.73 2.26-2.67 4.98-2.98 8.57-.24 2.89-.63 6.15-.87 7.25s-.47 2.34-.51 2.75c-.17 1.63-2.17.62-2.98-1.5zm-202.1-15.21c0-.86 1.75-1.96 4.25-2.68 7.85-2.25 12.75-6.46 12.75-10.93 0-1.47.68-3.24 1.5-3.93.83-.68 1.5-1.71 1.5-2.28 0-4.29 13.05-13.46 17.27-12.13.97.31 3.27-.38 5.12-1.52 2.15-1.324 5.1-2.084 8.23-2.112 2.69-.024 6.68-.692 8.88-1.485 2.73-.982 8.3-1.445 17.52-1.456 11.91-.013 13.99.239 17.5 2.121 2.19 1.174 4.57 2.972 5.29 4.002 1.88 2.68 3.68 2.32 8.02-1.6 5.67-5.119 8.33-5.854 14.24-3.922 4.54 1.486 5.13 1.486 7.4-.001 2.38-1.562 8.53-2.269 8.53-.981 0 1.215-5.51 5.364-7.12 5.364-.9 0-2.14.62-2.77 1.37-.63.76-3.2 1.61-5.71 1.89-3.58.4-5.45 1.36-8.55 4.38l-3.97 3.86 3.17 2.67c3.1 2.6 3.28 4.83.4 4.83-.8 0-1.45.44-1.45.98s2.25.94 4.99.87c4.03-.09 5.69.43 8.68 2.71 2.59 1.97 4.99 2.87 8.02 2.98 2.57.1 5.13.89 6.32 1.97 2.64 2.39 2.55 3.86-.15 2.42-1.18-.64-3.79-.93-5.8-.66-2.67.36-5.12-.23-9.07-2.19-5.23-2.59-5.58-2.63-10.45-1.24-7.85 2.24-12.76 2.5-15.04.79-1.57-1.19-1.77-1.88-.93-3.25.59-.96 1.71-2.04 2.5-2.4 4.51-2.08 5.41-2.89 5.09-4.61-.53-2.85-.94-2.9-4.19-.5-2.83 2.09-3.92 2.22-17.74 2.03-9.1-.12-16.39.27-19.08 1.02-2.39.67-4.56 1-4.81.75-.72-.72-12.42 4.1-14.47 5.95-1.59 1.44-2.85 1.52-10.09.59-6.55-.84-8.59-.79-9.78.24-.82.71-3.28 1.62-5.46 2.01s-5.15 1.33-6.6 2.07c-1.45.75-3.57 1.12-4.73.82-1.15-.3-3.54.17-5.3 1.05-3.91 1.95-3.91 1.95-3.91.14zm39.29-13.95c1.65-1.26 1.59-1.4-.9-2.03-2.87-.72-5.04.58-3.94 2.36.89 1.44 2.66 1.32 4.84-.33zm54.71-9.53c1.34-.08 1.34-.2 0-1.06-1.84-1.19-7-1.31-7-.16 0 1.49 1.24 2.11 3.39 1.71 1.16-.22 2.79-.44 3.61-.49zM785.1 315.4c-1.33-2.785-1.47-4.373-.69-7.997.54-2.486 1.42-6.658 1.97-9.271.77-3.705 2.06-5.777 5.84-9.418 4.71-4.539 7.44-5.752 16.36-7.273 2.06-.351 5.57-2.189 7.92-4.155 7.09-5.922 9.19-6.596 22.31-7.141 12.23-.509 17.39-1.93 20.47-5.635 2.01-2.428 10.81-3.822 16.86-2.674 3.42.649 6.14.656 7.81.021 1.41-.536 3.84-.975 5.39-.975 4.83 0 15.58 3.848 19.54 6.996 2.08 1.653 4.35 3.004 5.06 3.004 1.68 0 13.44 10.174 13.44 11.628 0 .62.68 1.688 1.5 2.372 1.6 1.323 2.08 5 .66 5-.47 0-1.65-.888-2.63-1.974-.99-1.086-2.74-2.263-3.91-2.615-1.16-.352-3.06-1.5-4.21-2.551-1.27-1.163-5.37-2.511-10.5-3.449-4.62-.847-10.31-2.242-12.63-3.101-3.98-1.47-4.54-1.439-9.5.511-7.16 2.811-12.59 4.166-16.78 4.181-1.92.006-6.87 1.159-11 2.561-4.12 1.402-11.1 3.001-15.5 3.554s-11.27 2.103-15.27 3.444c-4 1.342-7.92 2.439-8.73 2.439-.8 0-4.28 1.339-7.73 2.975-3.44 1.636-8.89 3.476-12.1 4.089-5.24 1-5.98 1.455-7.23 4.434-.76 1.825-1.96 3.526-2.66 3.78-1.03.37-1.03.877-.03 2.578 1.58 2.672 1.6 5.402.05 6.942-1.79 1.8-2.27 1.53-4.08-2.28zm218.28-55.268c.01-.962.85-4 1.87-6.75 2.31-6.178 2.02-13.45-.7-17.26-2.7-3.793-3-6.262-.92-7.599 1.47-.946 2.57-.305 6.9 4.027l5.15 5.153.36 7.609.35 7.608-4.13 4.481c-4.37 4.736-8.88 6.124-8.88 2.731zm6.77-31.319c-2.73-1.593-6.77-9.284-6.77-12.903 0-4.499 2.09-11.125 3.71-11.744.72-.28 1.99.048 2.81.727 1.22 1.016 1.5.904 1.56-.638.22-5.225 2.11-15.695 3.5-19.373.92-2.422 3.42 1.755 3.42 5.705 0 1.827.54 4.176 1.19 5.22 2.35 3.762-3.25 15.034-6.79 13.674-1.03-.396-1.4.372-1.4 2.932 0 1.908-.45 3.469-1 3.469-1.63 0-1.12 3.285 1 6.5 1.96 2.95 2.72 7.529 1.25 7.47-.41-.017-1.52-.484-2.48-1.04zm31.23-66.86c-2.47-.365-5.4-1.163-6.51-1.774-2.99-1.656-5.77-5.033-5.06-6.169.33-.549-.52-2.132-1.91-3.518-1.38-1.385-2.52-3.457-2.52-4.604s-.83-3.755-1.85-5.796c-2.91-5.794-3.36-8.848-1.6-10.614 1.4-1.398 1.4-1.992 0-6.107-.85-2.507-1.55-5.421-1.55-6.475 0-7.806-5.56-19.446-11.82-24.736-2.83-2.39-2.04-5.21.83-2.96 3.6 2.82 12.07 14.15 14.52 19.43 1.47 3.17 4.88 10.156 7.57 15.538 5.09 10.159 5.69 12.894 3.76 17.138-.78 1.708-.83 2.928-.14 3.797.55.703 1.28 2.404 1.62 3.779.72 2.959 4.86 7.366 9.46 10.084 1.82 1.071 3.03 2.39 2.69 2.932-.65 1.055-.69 1.055-7.49.055zm-714.66 551.81c-.95-6.81-1.85-12.54-1.99-12.75-.14-.2-2.16 1.04-4.5 2.75-3.21 2.36-5.294 3.12-8.574 3.12-4.893 0-7.069 2.52-3.828 4.44 7.225 4.27 16.942 11.2 18.352 13.09.94 1.25 1.83 2.15 1.99 2s-.49-5.84-1.45-12.65zm416.7-20.66c-3.34-6.06-6.6-12.53-7.24-14.37s-2.62-5.38-4.4-7.85c-4.76-6.63-7.05-13.42-7.86-23.23-.89-10.87.51-15.6 7.47-25.32 10.61-14.83 10.53-16.95-.85-22.55-4.02-1.98-8.72-5-10.44-6.72-2.69-2.69-3.17-3.97-3.51-9.4-.22-3.51.31-9.68 1.2-13.99.91-4.39 1.59-12.54 1.59-18.96v-11.25l-4.2-4.29c-2.32-2.36-4.78-4.29-5.48-4.29-2.51 0-4.46-5.01-5.54-14.27l-1.11-9.44 3.85-6.88c2.12-3.79 5.8-8.97 8.19-11.53 5.02-5.36 4.59-5.91-4.54-5.83l-5.67.04-5.11 8.71-5.11 8.7-.64 14.79c-.58 13.31-.45 15.22 1.28 19.02 2.79 6.14 7.17 22.31 7.34 27.09.07 2.26-.24 9.3-.69 15.64-.87 12.1-.24 15.14 4.23 20.24 1.18 1.34 1.28 2.05.4 2.93-.64.64-1.32.96-1.51.73-6.57-8.26-7.66-11.65-8.65-26.94-.78-11.89-1.04-13.01-5.46-22.96-2.56-5.75-5.29-11.17-6.07-12.03-.77-.86-2.62-4.2-4.09-7.42-2.58-5.62-2.66-6.29-1.99-16.97l.7-11.12-3.31 4.99c-2.89 4.34-3.36 5.95-3.64 12.5-.2 4.72.27 9.74 1.28 13.51.88 3.3 2.05 12.08 2.6 19.5 2.43 32.63 3.01 37.95 4.96 45.5 1.14 4.4 2.49 13.63 3.01 20.5 1.32 17.45 4.05 29.66 8.36 37.37 6.11 10.93 11.02 14.3 19.58 13.46 3.48-.34 4.53-1.5 5.49-6.07.47-2.22 1.07-2.69 3.2-2.52 3.19.27 7.58 6.68 9.91 14.47.85 2.86 3.44 8.12 5.74 11.69 2.31 3.57 5.97 9.33 8.13 12.8 6.42 10.26 5.37 4.33-1.4-7.98zm-496.04-15.03c0-.44-2.162-1.36-4.804-2.04-2.643-.68-6.13-1.95-7.75-2.83s-5.313-1.95-8.206-2.38c-4.694-.68-5.904-.45-11.25 2.23-3.294 1.64-5.99 3.12-5.99 3.28s5.063.11 11.25-.11c7.474-.27 13.264.07 17.25 1 7.331 1.71 9.5 1.91 9.5.85zm67.053-15.01c-2.835-9.37-8.052-17.12-18.408-27.36-4.049-4-5.456-3.51-1.816.64 1.669 1.9 4.799 7.19 6.956 11.75 3.925 8.3 12.409 20.79 14.122 20.79.499 0 .116-2.62-.854-5.82zm2.523-26.34c-1.28-9.17-1.558-9.86-6.363-15.97-6.795-8.65-11.653-11.3-20.713-11.3-7.006.01-14.44 2.46-15.231 5.04-.188.61 2.263 1.85 5.445 2.75 3.183.9 8.036 2.94 10.786 4.53 6.829 3.95 21.793 17.25 24.428 21.71 1.188 2.01 2.338 3.47 2.568 3.24s-.19-4.73-.92-10zm326.95-73.64c-.67-.67-3.53 1.82-3.53 3.08 0 .57.91.22 2.01-.78s1.79-2.04 1.52-2.3zm133.32 1.48c.61-.72 1.22-2.85 1.38-4.74l.27-3.42-6.68-.67c-3.67-.37-7.57-.95-8.67-1.3-1.44-.46-2.16-.08-2.62 1.37-1.3 4.1 2.58 8.13 8.81 9.15 6.29 1.03 6.34 1.03 7.51-.39zm21.75.56c3.69-2.46 4.16-12.87.54-11.83-.9.26-4.34.76-7.64 1.11-8.96.96-9.5 1.22-9.5 4.62 0 5.81 1.35 6.86 8.79 6.85 3.69-.01 7.21-.35 7.81-.75zm-158.4-3.11c6.28-4.2 8.33-4.6 11.59-2.28 2.68 1.91 2.87 1.92 5.14.21 2.53-1.91 2.06-4.3-.75-3.83-1.16.19-1.68-.44-1.7-2.06-.04-3.42-3.02-4.73-7.26-3.2-3.09 1.12-3.66 1.03-5.5-.81-1.71-1.71-1.84-2.31-.76-3.6.71-.86 1.9-1.56 2.64-1.56s2.04-1.33 2.88-2.95c1.96-3.78 1.92-4.28-.23-3.09-4.6 2.55-9.97 4.63-11.05 4.27-2.21-.73-1.27-3.23 1.22-3.23 2.27 0 2.42-.34 2.37-5.47-.03-3.95.68-6.96 2.58-10.85 1.45-2.96 2.63-5.58 2.63-5.82s-1.23-.42-2.75-.4c-2.45.04-2.72-.28-2.48-2.96.91-10.33.59-14.43-1.64-21.25-2.4-7.31-7.33-16.25-8.96-16.25-.49 0-1.15 2.22-1.47 4.93-.32 2.72-1.57 6.86-2.77 9.21-1.85 3.63-2.01 4.75-1.05 7.39 1.61 4.46 1.48 4.99-2.13 9.1-2.37 2.71-3.25 4.67-3.25 7.29 0 3.03-.35 3.6-2.28 3.7-2.86.14-4.26 1.38-1.56 1.38 2.75 0 6.12 3.88 6.51 7.5l.33 3 2.41-2.71c2.84-3.22 4.09-2.8 4.09 1.37 0 2.09-.94 3.92-3.01 5.86-1.66 1.54-3.67 4.68-4.48 6.96-1.31 3.71-1.29 4.41.12 6.58.88 1.34 1.32 3.14.99 4.01-.34.88-.34 2.68-.01 4.01.47 1.85 1.28 2.42 3.45 2.42 1.61 0 3.39.8 4.14 1.84.72 1.02 2.65 2.33 4.3 2.93 1.65.59 3.09 1.11 3.2 1.15.11.05 2.14-1.21 4.5-2.79zm-6.2-41.63c0-.91.49-1.5 1.08-1.31.59.2 1.07.79 1.07 1.31s-.48 1.11-1.07 1.31-1.08-.39-1.08-1.31zm181.57 40.03c3.12-.82 6.29-2 7.05-2.63 1.41-1.16 2.02-10.9.69-10.9-.64 0-17.43 5.21-18.13 5.63-.18.1-.02 2.26.36 4.78.79 5.27 1.23 5.41 10.03 3.12zm-59.53-3.59c1.37-2.57.03-4.46-3.83-5.4-1.49-.36-4.39-1.76-6.46-3.11-4.19-2.75-4.87-1.66-1.84 2.94 1.64 2.48 8.16 7.26 10.31 7.54.39.05 1.21-.84 1.82-1.97zm80.02-3.58c2.52-1.01 4.46-2.57 5.02-4.07.96-2.52.15-10.58-1.01-10.08-13.37 5.78-14.16 6.28-13.61 8.49 1.97 7.82 2.88 8.35 9.6 5.66zm-175.37-1.55c-.32-.79-.56-.56-.61.61-.04 1.05.2 1.64.53 1.31s.37-1.19.08-1.92zm191.37-6.98c3.7-2.97 3.94-3.49 3.94-8.5 0-2.93-.43-5.33-.95-5.33-.79 0-10.76 5.48-11.89 6.53-.87.82 3.3 10.47 4.53 10.47.24 0 2.21-1.42 4.37-3.17zm216.94 1.17c0-.55-.45-1-1-1s-1 .45-1 1 .45 1 1 1 1-.45 1-1zm3.2-3.25c-1.21-1.2-2.2-1.67-2.2-1.04 0 1.49 3.07 4.56 3.82 3.81.31-.31-.41-1.56-1.62-2.77zm-249.7-4.93c3.3-1.09 7.35-2.6 9-3.35 1.65-.76 6.38-2.71 10.5-4.34 14.11-5.58 30.68-15.64 43.6-26.47 7.91-6.63 8.49-7.38 7.96-10.16-.31-1.65-.85-5.02-1.19-7.5-.72-5.13-7.42-15.42-12.65-19.39-3.78-2.88-12.83-6.61-16.03-6.61-1.23 0-3.13-.61-4.21-1.35-1.09-.75-5.27-1.62-9.29-1.95l-7.32-.59-6.18 4.43c-3.4 2.44-7.86 5.64-9.9 7.11-10.92 7.87-18.32 21.11-33.91 60.61-3.08 7.81-2.66 9.43 2.87 11.18 6.02 1.91 18.33 1.16 26.75-1.62zm43.33-9.32c2.36-3.02 3.8-5.5 3.19-5.5-1.53 0-8.75 3.77-9.48 4.94-.7 1.14.38 6.06 1.34 6.06.36 0 2.58-2.47 4.95-5.5zm-135.55-20.5c-3.42-16.55-4.08-18.66-6.73-21.73-1.3-1.52-2.54-2.54-2.75-2.27-.2.28-1.38 3.03-2.62 6.11-2.14 5.33-2.19 6.08-1.05 15 1.44 11.2 3.55 15.92 9.75 21.75l4.62 4.37.58-5.87c.42-4.18-.1-9.14-1.8-17.36zm297 5.3c3.41-.69 4.62-2.3 1.72-2.3-1.17 0-3.04-.48-4.15-1.08-2.36-1.27-2.36-1.27-3.26 2.46-.6 2.49-.45 2.78 1.11 2.18.99-.38 3.05-.95 4.58-1.26zm-11.28-.27c1.12-.71 1.2-1.23.34-2.09-.87-.87-1.43-.63-2.28.95-1.2 2.25-.49 2.67 1.94 1.14zm25.99-9.78c-.01-.41-.46-1.42-1-2.25-.88-1.33-1.09-1.33-1.95 0-.86 1.34-.13 2.13 2.71 2.93.14.04.25-.27.24-.68zm-19.99-6.75c-1.29-1.37-2.79-2.5-3.34-2.5s.05 1.13 1.34 2.5c1.3 1.38 2.8 2.5 3.35 2.5s-.05-1.12-1.35-2.5zm-346.79-15.95c8.65-2.38 12.14-3.85 24.71-10.46 12.77-6.71 20.81-13.16 27.92-22.38 5.32-6.9 10.13-20.99 10.24-30 .04-3.42.44-8.68.89-11.71 1.04-6.99-.5-15.63-2.49-13.98-2.12 1.76-3.71-2.28-2.93-7.46.54-3.64.26-4.9-1.7-7.56-2.36-3.21-7.57-6.61-8.57-5.6-.3.29.03 1.92.72 3.6 1.56 3.76.35 5.34-1.73 2.25-.83-1.24-1.98-2.25-2.56-2.25s-1.83-.71-2.79-1.58c-1.6-1.44-2.18-1.33-7.11 1.41-2.94 1.64-7.59 3.29-10.33 3.66-12.39 1.68-26.44 5.05-31.48 7.54-3.02 1.49-8.65 3.74-12.5 4.99-5.43 1.76-8.03 3.32-11.6 6.94-2.53 2.56-4.84 5.31-5.13 6.1-.44 1.22-.8 1.19-2.26-.21-1.66-1.57-1.65-1.9.07-6.4 1.24-3.25 2.85-5.36 5.12-6.69 2.11-1.25 3.31-2.73 3.31-4.11 0-2.66 3.84-8.43 10.9-16.4 6.25-7.05 9.18-8.37 29.59-13.32 7.15-1.74 15.18-4.26 17.83-5.6 2.9-1.47 6.1-2.32 8-2.14 2.64.26 3.25.81 3.68 3.3.44 2.57 1.05 3.07 4.42 3.62 4.06.66 6.57 2.98 6.57 6.06 0 1.67 8.8 11.83 10.25 11.83.37 0 .39-4.6.05-10.23-.58-9.41-.94-10.8-4.55-17.51-4.48-8.3-9.3-11.89-16.5-12.3-18.83-1.07-38.26.54-42.52 3.52-1.19.84-3.89 1.52-5.99 1.52-4.4 0-10.63 2.9-15.89 7.38-2.02 1.72-5.44 4.31-7.61 5.76-6.86 4.58-11.03 17.07-9.89 29.58.49 5.26.18 7.1-1.97 11.98-2.14 4.83-2.44 6.61-1.88 11.14.54 4.26.4 5.29-.66 4.94-1.72-.58-1.72-10.69.02-20.28 1-5.56 1.01-8.26.04-13.15-.95-4.78-.96-7.74-.04-13.3.65-3.94.84-7.72.41-8.4-.42-.68-2.73-3.81-5.14-6.95-4.03-5.26-4.68-5.7-8.38-5.7-3.33 0-4.6.63-7.5 3.7-3.44 3.65-3.47 3.77-2.82 10.2.81 7.85 3.96 19.96 6.49 24.96 1.02 2 4.62 10.08 8.01 17.96 4.85 11.25 6.38 16.06 7.17 22.5 1.64 13.45 3.96 21.78 8.2 29.35 3.24 5.81 4.86 7.61 8.47 9.47 5.07 2.6 6.89 4.95 8.66 11.09 1.11 3.87 1.83 4.57 7.65 7.46 7.49 3.71 8.11 3.78 15.13 1.86zm-14.82-63.08c-1.97-3.01-1.01-4.68 1.09-1.89 1.41 1.86 2.02 4.42 1.05 4.42-.26 0-1.23-1.14-2.14-2.53zm8.11-4.35c-2.2-1.04-4.83-2.17-5.84-2.51-1.02-.34-2.08-1.52-2.37-2.61-.69-2.64-1.17-2.55-5.59 1.1-2.09 1.73-4.4 2.85-5.22 2.53-1.62-.62-2.01-4.18-.57-5.07.5-.31.68-2.25.41-4.31-.57-4.37 1.14-9.6 2.94-8.98.77.26 1.12 1.8.92 4.05-.46 5.13.47 6.1 3.53 3.7 3.79-2.98 5.87-2.54 7.96 1.71 1.43 2.91 2.61 3.89 5.33 4.44 3.57.72 15.87-.71 19.5-2.27 1.1-.47 3.24-1.3 4.75-1.85 2.06-.75 2.75-1.66 2.75-3.66 0-3.93 3.34-8.63 9.52-13.4 3.01-2.33 5.48-4.8 5.48-5.49s.68-1.81 1.5-2.5c2.41-2 1.93 3.79-.85 10.13-1.29 2.95-2.6 7.27-2.9 9.6-.41 3.18-1.47 5.09-4.29 7.75-2.05 1.94-4.32 3.52-5.04 3.52s-2.81.9-4.66 1.99c-2.4 1.41-5.45 2.04-10.61 2.18-3.99.1-7.48.56-7.76 1.01-.85 1.38-4.67.92-8.89-1.06zm-29.13-34.6c-.85-2.22-.03-2.77 4.35-2.9 3.16-.1 3.78.21 3.78 1.88 0 1.59-.77 2.07-3.75 2.31-2.73.23-3.93-.13-4.38-1.29zm96.18 85.88c1.35-6.52 2.44-12.76 2.42-13.88-.03-1.77-.34-1.66-2.53.98-3.72 4.49-9.44 16.37-9.44 19.63 0 2.29.66 3.14 3.25 4.23 1.79.75 3.39 1.25 3.55 1.12.16-.12 1.39-5.56 2.75-12.08zm350.11-9.94c.86-2.25-.1-2.74-3.76-1.93l-3.25.71 2.42 1.35c3.17 1.75 3.88 1.73 4.59-.13zm-422.61-74.98c3.05-1.58 3.95-3.48 1.65-3.48-.72 0-2.83 1.13-4.7 2.5-3.88 2.87-1.85 3.51 3.05.98zm48.45-13.43c5.48-2.61 2.97-2.55-3.36.09-2.93 1.21-5.14 2.77-5.14 3.62 0 1.27.33 1.25 2.25-.16 1.24-.9 4.05-2.5 6.25-3.55zm-123.8-29.14c.6-.6 1.91-.94 2.91-.75 1.03.2 3.34-1.07 5.35-2.96 1.95-1.82 4.82-3.99 6.38-4.82 1.84-.99 2.62-2.04 2.25-3.03-.32-.83-.62-3.39-.65-5.68l-.07-4.17-1.23 4.56c-.67 2.5-2.73 6.42-4.56 8.7-2.75 3.42-4.25 4.34-8.46 5.19-7.09 1.44-9.82 1.89-11.92 1.98-1 .04-1.54.52-1.2 1.07.84 1.35 9.83 1.28 11.2-.09zm18.92-31.522c2.02-4.849 1.69-5.303-1.2-1.636-1.41 1.788-3.2 3.25-3.99 3.25-.78 0-1.43.375-1.43.834 0 3.4 4.94 1.574 6.62-2.448zm-14.3-4.517c3.74.216 3.81.157 3.5-3.034l-.32-3.255-5.38.291c-5.36.291-5.38.284-4.86-2.42.41-2.177-.16-3.303-2.9-5.714-1.88-1.652-4.54-5.374-5.92-8.272-3.09-6.532-6.14-8.679-11.73-8.262l-4.21.314 4.5 2.174c2.48 1.195 5.33 2.428 6.33 2.738 2.82.876 1.55 3.888-2.08 4.93-1.79.512-3.24 1.203-3.23 1.536s2.37 1.73 5.25 3.105c4.74 2.266 5.61 3.22 9.2 10.169 3.62 7.002 4.14 7.574 6 6.575 1.12-.602 3.75-.996 5.85-.875zm.05-21.969c.76-3.789 5.5-9.957 9.17-11.917 2.58-1.382 2.67-1.705 2.1-7.175-.75-7.165.64-18.358 3.32-26.688 1.12-3.509 2.04-7.531 2.04-8.937v-2.557l-2.75 2.558c-3.75 3.489-8.18 6.215-8.91 5.484-1.99-1.988 6.58-12.555 11.43-14.094 1.16-.367 2.94-2.822 4.26-5.853 1.86-4.278 2.31-7.309 2.5-16.786.13-6.36.54-13.11.91-15l.67-3.435-3.05 3.5c-1.68 1.925-3.33 4.525-3.67 5.777s-1.43 2.714-2.44 3.25c-2.4 1.287-6.95 1.247-6.95-.062 0-1.52 3.2-6.264 5.24-7.772.97-.718 1.76-1.782 1.76-2.365 0-1.205-4.28 1.322-8 4.717-1.37 1.257-3.57 2.436-4.89 2.62-2.56.358-3.22 1.198-5.53 7.085-1.25 3.192-1.93 3.75-4.52 3.75-3 0-3.06.098-3.21 5.25-.33 11.004-2.04 18.354-4.9 21.017-1.07.996-1.95 2.575-1.95 3.508 0 3.4-5.29 12.26-7.67 12.86-2.94.735-2.91.936.42 3.916l2.75 2.455-2.25 1.908c-1.23 1.05-2.25 2.345-2.25 2.88s-1.01 1.245-2.25 1.578c-2.22.596-2.21.636.75 3.042 1.86 1.506 3.37 2.084 3.95 1.512 1.55-1.508 2.25-1.108 4.39 2.512 1.11 1.891 3.44 4.17 5.17 5.065 2.86 1.481 3.36 1.486 5.54.062 3.36-2.207 5.32-1.948 6.61.871 1.64 3.596.45 5.562-3.37 5.58-1.81.008-3.96.447-4.79.975-1.26.808-1.06 1.361 1.25 3.516 1.5 1.407 3.43 3.893 4.27 5.525 1.99 3.841 4.07 3.784 4.85-.132zm15.63-1.4c0-.825-.17-1.5-.39-1.5-.21 0-.65.675-.97 1.5-.31.825-.14 1.5.4 1.5.53 0 .96-.675.96-1.5zm415.44-16.374c.86-1.664 1.56-3.499 1.56-4.076 0-1.476-1.98-1.312-2.42.2-.2.688-1.13 3.821-2.05 6.964-.94 3.162-1.33 6.288-.89 7 .52.829 1.06-.198 1.52-2.887.39-2.296 1.42-5.536 2.28-7.201zm83.56-6.876c0-.412-1.35-.844-3-.96-1.65-.115-3 .223-3 .75 0 .528 1.35.96 3 .96s3-.337 3-.75zm-11.18-9.511c.27-1.447-.44-1.739-4.24-1.739-2.52 0-4.58.211-4.58.468 0 .912 5.53 3.475 6.99 3.244.82-.129 1.64-1.017 1.83-1.973zm-8.98-8.262l3.33-.672-2.14-1.992c-2.9-2.71-2.12-4.209 2.55-4.855l3.92-.542-3.87-1.708c-2.13-.939-4.25-1.708-4.71-1.708-.47 0-3-1.196-5.63-2.659-13.18-7.32-14.74-9.34-7.23-9.34 2.17 0 3.94-.205 3.94-.454 0-1.851-2.62-5.547-3.93-5.547-2.74 0-6.07-2.99-6.07-5.45 0-3.944-6.18-4.886-10.79-1.643-1.49 1.049-5.86 2.48-9.71 3.182-3.85.701-7.18 1.413-7.4 1.582-.22.168.64 2.94 1.92 6.16 2 5.03 3.3 6.578 9.24 11.011 5.59 4.167 7.67 5.158 10.86 5.158 3.28 0 4.09.418 4.88 2.5.53 1.375 1.75 2.504 2.73 2.508.98.005 4.02 1.328 6.77 2.941 2.75 1.612 5.68 2.767 6.5 2.566.83-.201 3-.668 4.84-1.038zm-42.72-7.477c-4.45-4.409-5.36-4.872-4.43-2.25.94 2.633 2.52 4.381 4.78 5.299 3.77 1.529 3.71.967-.35-3.049zm59.88-8c0-.55-.42-1-.94-1-.51 0-1.22.45-1.56 1s.09 1 .95 1c.85 0 1.55-.45 1.55-1zm1.17-5.5c.27-1.567 1.27-2.066 4.59-2.307 4.09-.296 5.72-2.16 3.24-3.693-.55-.34-1-1.668-1-2.95 0-1.72-.72-2.506-2.75-2.989-1.51-.36-3.48-.873-4.38-1.139-1.13-.335-1.84.33-2.3 2.163-.58 2.308-1.04 2.57-3.61 2.056-2.62-.524-2.96-.317-2.96 1.825 0 1.329-.45 2.694-1 3.034-1.67 1.033-1.13 2.118 1.68 3.399 2.25 1.023 2.82.968 3.55-.34 1.44-2.564 2.77-1.772 2.77 1.641 0 3.377 1.53 2.883 2.17-.7zm-484.48-51.687c-.32-.798-.56-.56-.61.604-.04 1.054.2 1.645.53 1.312.33-.332.37-1.194.08-1.916zm-115.69 419.26c0-.5 1.55-1.87 3.43-3.03 1.89-1.17 3.64-2.67 3.88-3.34.78-2.09-.52-11.14-1.82-12.71-.69-.82-1.56-2.52-1.94-3.77-.89-2.9-11.76-12.01-15.34-12.85-1.49-.35-4.11-1.48-5.82-2.51-2.28-1.36-5.77-2-12.92-2.34-8.32-.41-10.37-.86-13.6-3-2.1-1.39-4.51-3.87-5.36-5.51-2.22-4.29-2.35-11.6-.26-13.7 1.58-1.57 1.65-1.46 1.12 1.83-.78 4.82 2.85 13.17 6.45 14.83 1.48.68 7.18 1.7 12.68 2.26 11.48 1.18 19.05 3.55 25.59 8.04 4.44 3.04 10.91 11.34 10.91 13.99 0 .71.67 2.24 1.49 3.41.91 1.3 1.44 4.18 1.37 7.47-.11 4.73-.52 5.73-3.56 8.6-3.32 3.14-6.3 4.24-6.3 2.33zm-123.33-40.74c-1.36-1.37-.6-3.12 1.58-3.64 1.24-.3 3.27-.85 4.5-1.23 3.45-1.07 2.89 2.15-.7 4.01-3.24 1.68-4.38 1.86-5.38.86zm-12.55-2.93c-1.56-.66-4.86-3.69-7.35-6.74-3.68-4.52-4.65-6.56-5.2-10.97-1.09-8.71 1.45-15.04 2.79-6.95.34 2.06.63 5.53.63 7.7.01 3.46.69 4.59 5.49 9.25 3.53 3.41 6.34 5.3 7.88 5.3 1.96 0 5.82 2.68 4.52 3.13-1.81.63-6.47.24-8.76-.72zm32.05-.96c-1.29-.67-1.92-1.48-1.4-1.8 1-.62 5.08 1.9 4.23 2.6-.27.23-1.55-.13-2.83-.8zm95.83-15.45c0-.55.48-1 1.06-1 .59 0 .78.45.44 1s-.81 1-1.05 1c-.25 0-.45-.45-.45-1zm7-3.5c0-.82.45-1.5 1-1.5s1 .68 1 1.5c0 .83-.45 1.5-1 1.5s-1-.67-1-1.5zm6 .44c0-.58.45-.78 1-.44s1 .82 1 1.06-.45.44-1 .44-1-.47-1-1.06zm14-2.94c0-.55.71-1 1.56-1 .86 0 1.28.45.94 1s-1.04 1-1.55 1c-.52 0-.95-.45-.95-1zm3-3.94c0-1.07.4-2.19.89-2.49s1.11-2.01 1.39-3.81c.84-5.35-3.65-15.36-9.77-21.76-2.89-3.02-5.72-6.38-6.29-7.46s-2.51-2.46-4.32-3.07c-3.85-1.3-5.03-3.47-1.88-3.47 3.45 0 14.98 8.86 14.98 11.51 0 .61 1.4 2.15 3.11 3.41 3.75 2.78 7.89 11.69 8.09 17.42.07 2.29-.59 5.85-1.48 7.91-1.7 3.96-4.72 5.12-4.72 1.81zm-163-9.06c0-.55.45-1 1-1s1 .45 1 1-.45 1-1 1-1-.45-1-1zm4.48-3.04c-.37-.59-.41-2.1-.09-3.36.41-1.63-.13-2.95-1.88-4.59-2.62-2.46-5.16-8.7-4-9.82.38-.38 2.45 1.34 4.59 3.81 3.34 3.85 3.9 5.18 3.9 9.19 0 4.6-1.21 6.9-2.52 4.77zm63.61-5.24c.23-.16 1.31-.94 2.41-1.75 1.85-1.36 1.9-1.34.63.28-.75.96-1.84 1.75-2.41 1.75-.58 0-.86-.13-.63-.28zm10.91-5.72c0-.55.45-1 1-1s1 .45 1 1-.45 1-1 1-1-.45-1-1zm3.19-4.06c.24-.72 1.03-1.51 1.75-1.75.75-.25 1.13.12.88.87-.24.73-1.03 1.51-1.75 1.75-.75.25-1.13-.12-.88-.87zm3.76-4.99c-.03-.25-.23-2.65-.44-5.33-.28-3.58-1.09-5.62-3.03-7.64-1.66-1.74-2.24-3-1.56-3.42.59-.37 2.16.5 3.49 1.94 2.78 3 4.53 11.96 2.7 13.8-.61.6-1.13.9-1.16.65zm-85.54-2.32c-.84-2.21.28-3.34 1.81-1.81.9.9.91 1.46.02 2.35s-1.33.76-1.83-.54zm1.26-4.29c-.37-.37-.67-2.13-.67-3.91 0-5.45 6.96-18.19 9.18-16.82 1.35.84.93 2.39-.65 2.39-1.45 0-5.87 12.23-5.47 15.15.47 3.43-.65 4.92-2.39 3.19zm-40.17-13.27c-2.2-1.06-5.04-1.95-6.31-1.99-7.824-.25-14.346-10.54-13.828-21.81.173-3.76.85-5.86 2.441-7.55 1.211-1.29 2.201-3.08 2.201-3.97 0-.9.45-1.91 1-2.25 1.578-.97 1.171 4.12-.435 5.45-4.33 3.59-2.406 14 3.982 21.55 3.659 4.33 5.239 5.32 11.719 7.41 10.04 3.22 19.79 2.6 26.72-1.71 5.32-3.3 13.01-5.03 13.01-2.91 0 .82-1.24 1.31-3.27 1.31-2.05 0-5.6 1.43-9.47 3.83-5.73 3.53-6.86 3.85-14.98 4.19-7.12.3-9.53.01-12.78-1.55z"/></svg>