<svg xmlns="http://www.w3.org/2000/svg" viewBox="0 0 185.76 131.76"><g clip-rule="evenodd" fill-rule="evenodd"><path d="M162.24 14.4c-1.598 0-3.706 4.332-4.851 5.47-1.125 1.12-3.569 4.304-3.79 6.05-1.841 0-3.462 4.419-4.319 5.76-.94 1.461-1.947 2.862-2.88 4.32-.933 1.453-2.616 2.22-2.88 4.32-1.723 0-1.13 3.463-3.36 3.84-.052-2.892 2.751-5.688 4.143-7.218.887-.976 1.918-3.173 2.663-4.456.792-1.362 2.968-4.646 3.754-4.646-.221-1.579 4.827-7.68 5.76-7.68.398-1.826 4.344-7.609 6.24-8.16.16 1.008-.76 1.327-.47 2.4-.24 0-.36-1.322 0 0z"/><path d="M137.76 43.2c0-1.021 3.275-5.76 4.32-5.76.098-2.746 3.769-4.359 3.84-6.72 1.567-1.03 2.8-5.826 4.8-5.76-.271-.958.752-.962.48-1.92 1.544 0 2.042-2.401 3.102-3.619.866-.995 5.189-5.824 3.243-6.023-2.563-.262-5.866.896-8.5 1.246-1.632.217-10.843.327-10.325 2.635-1.498.917-3.12 4.154-4.8 4.32-.257-1.838 3.395-4.522 4.602-5.719 2.596-2.575 7.677.108 10.519-2.441 2.629-.378 7.715.636 9.84-.96 2.576-.178-3.339 6.479-3.36 7.2-1.376 1.305-1.884 2.47-2.88 3.84-.437.602-1.807 2.887-2.36 3.147-2.106.99-4.253 6.081-5.757 8.175-1.72 2.398-3.64 7.569-6.76 8.359 0-.48 1.28-.323 0 0zM161.76 22.08a2.703 2.703 0 0 1-.96 1.2c.077 1.351 1.44-1.636 1.44 2.16-4.78 1.355-1.21-6.878-.48-3.36-.02.704-.35-1.701 0 0z"/><path d="M143.52 24.96c-.272-.958.751-.962.479-1.92a67.78 67.78 0 0 1-1.44 1.68c-.215.818 2.613-.496.467 1.546-1.56 1.484-2.758-1.813-4.786.134-5.014-2.626 4.287-6.074 3.359-3.36 1.716-.681.57-1.169 2.287-.998 1.059.106 1.873-.66 2.993-.442 0 1.377-2.06 3.123-3.36 3.36-.32-1.117 1.76-.32 0 0zM163.2 24.96c1.973.259.118 3.19-.96 3.36-.23-1.444.47-2.133.96-3.36.71.093-.41 1.031 0 0zM157.44 26.4c1.879 0 3.359 5.594 3.359 7.68-.899-.192-3.033-4.116-1.92-5.04-.15-.655-1.9-.951-1.44-2.64.32 0-.36 1.323 0 0zM142.08 27.84c0 1.912-1.444 2.25-3.36 1.92.07-1.807 1.99-1.929 3.36-1.92 0 .48-1.77-.012 0 0z"/><path d="M164.16 28.32c.183.752-.814.325-.48 1.2 1.005.659 1.209 2.06 1.44 3.12-.886.317-1.242.034-1.068-.851a2.87 2.87 0 0 1-1.332.371c.05-1.06-1.04-4.441 1.44-3.84.18.74-1.27-.307 0 0zM155.52 29.76c2.782 0 .672 3.909.628 3.844-.43-.618-.8-3.29-.63-3.844.32 0-.38 1.233 0 0zM52.32 30.24c4.489.356 8.933 1.007 13.44.48-1.404 2.366-12.675 2.153-13.44-.48 4.962.394.524 1.805 0 0zM93.6 32.16h.96c-.051.972-.53 1.612-1.439 1.92-.273-.957.751-.962.479-1.92.32 0 .317 1.117 0 0zM17.76 33.12c-.06 1.009 1.361 2.215 2.4 1.92.994 3.875-1.188 4.591-1.92 8.16-1.519.612-5.256 1.061-5.76-1.2-.34-1.494-.984 1.858-1.314-1.815-.134-1.491-.343-4.665 1.314-4.665-.153.894-1.03 2.296.24 2.88.692-2.859 1.358-5.839 5.04-5.28-.041.681-4.056-.616 0 0zm-1.92 2.4c.48.16.64 0 .48-.48-.48-.16-.64 0-.48.48.16 0 0-.16 0 0zm-.96.96v.96a2.46 2.46 0 0 1 1.92-.48c.23-.564.07-.884-.48-.96.227.865-1.103.381-1.44.48 0 .32.495-.145 0 0zm1.92 2.4c.785.105 1.265-.215 1.44-.96-1.009.148-1.327-.774-2.4-.48-.121 1.046 1.554-.009.96 1.44.919.119.556-1.356 0 0zm-2.88.48c.239.982-2.133 2.227-.212 2.806 2.15.648 2.604-1.647 2.612-3.286-1.073-.294-1.392.628-2.4.48.335 1.375 1.125.165 0 0zm2.88.48c.48.16.64 0 .48-.48-.48-.16-.64 0-.48.48.16 0 0-.16 0 0zm-.48.96c.104.536.424.856.96.96-.099-.337.385-1.667-.48-1.44.031.35-.13.511-.48.48.104.536.408.088 0 0zM32.16 34.08c.213 1.567-1.36 1.513-2.4 1.44.277 1.539 4.03 1.058-.48 2.4-1.105-.379-2.394-1.652-1.743-2.895.757-1.443 3.368-.96 4.623-.945.202 1.482-2.348-.028 0 0zM156.48 34.08c1.648 0 2.406 3.84.48 3.84.146-1.005-.174-1.805-.96-2.4-.05-.754.79-.53.48-1.44.32 0 .33.972 0 0zM33.12 34.56c1.34.285 2.764.776 2.88 2.4 1.09.102.521-1.334 1.44-1.44.552-.085 1.155 1.92-.48 1.92.759.775 1.278 1.162.96 2.4 1.149-.999 2.579-1.705 2.88-3.36 2.334-.134 3.36 2.623 3.36 4.32-.996-.915-2.385-.974-3.606-.563-1.108.374-2.747-.252-3.594.563.064-1.071-1.317-1.922-2.16-2.4-.503.714-.463 1.676-1.68 1.44v-5.28c1.452.308 0 1.76 0 0zm2.4 2.88c.32-.96 0-1.28-.96-.96.105.536.424.855.96.96 0-.32-.536-.104 0 0zM155.04 36c.396-.158 1.496 3.878 1.439 4.32-1.448 0-1.501-2.5-2.399-3.84.56.229.88.07.96-.48.77-.306.24.722 0 0zM109.92 37.44c-.029.52-1.586.737-1.92.96a9.298 9.298 0 0 0-2.16.48c-.91.371-.541 1.814-1.68 1.92-.711 2.183-.799 5.863 1.417 7.223 1.14.7 1.693 1.545 3.099 1.461.735-.043 2.687-.529 3.164.436-1.105 1.757-5.653.296-6.7-.769-1.461-1.485-2.358-2.678-2.493-5.158-.141-2.598 1.294-4.197 2.297-5.65.52-.76 5.23-1.654 4.97-.903-.05.944.26-.764 0 0zM113.28 37.92c2.779.364 2.725 3.753 3.84 5.28-.9 0-3.48-3.904-3.84-5.28 1.84.241.56 2.158 0 0zM32.64 38.4c-.104 2.15-4.042 2.384-4.8.48 1.574.078 3.303.108 4.8-.48-.081 1.679-1.264.496 0 0zM157.92 38.4c.854 0 .854.96 0 .96v-.96c.16 0 0 .32 0 0zM149.28 39.36c1.12-.32 1.439.16.96 1.44-.74-.175-1.06-.655-.96-1.44.32 0-.12.919 0 0zM150.24 41.76c.479-.16.64 0 .479.48-.48.16-.64 0-.48-.48.16 0 0 .16 0 0zM147.36 42.24c1.078 0 2.403 2.328.96 2.88-.7-.826-1.02-1.786-.96-2.88.32 0 .05 1.232 0 0zM58.56 45.6c3.391 0 0 3.391 0 0 .48 0 0 .48 0 0zM115.68 45.6h.96c-.652.625-.184 2.328-1.439 2.4-.29-1.073.63-1.392.48-2.4.32 0 .17 1.125 0 0zM54.72 46.56c.71 4.206-4.373-.446 0 0 .179 1.059-1.158-.118 0 0zM62.4 52.32a2.865 2.865 0 0 1 1.92.24c-.325.874-.964 1.274-1.92 1.2v-1.44c.574.146 0 .48 0 0zM57.12 54.24c.867-.228.334.945.48 1.44-.867.227-.335-.945-.48-1.44zM98.88 55.68c.48-.16.641 0 .48.48-.48.16-.64 0-.48-.48.16 0 0 .16 0 0zM105.12 55.68c.364.909 2.223-.137 2.399.96h-2.88c-.29-.77.78-.19.48-.96.32.799.3.777 0 0zM61.44 56.16a2.47 2.47 0 0 1 1.44 1.44c-.841.875-2.681.509-2.4-.96.564.23.884.07.96-.48.687.273.242.722 0 0zM99.84 62.4c.48-.16.641 0 .48.48-.48.16-.64 0-.48-.48.16 0 0 .16 0 0zM166.08 74.88c-.733 2.158-2.49 4.455-3.418 6.182-.421.782-1.658 4.474-3.302 4.858 0-1.995 4.26-11.04 6.72-11.04-.73 2.149-.32 0 0 0zM75.84 77.28c.96-.32 1.28 0 .96.96-.826.187-1.146-.134-.96-.96.32 0-.186.826 0 0zM81.6 77.76c-.249 1.76-2.571 1.648-3.84 1.92-.049-1.473 2.794-1.914 3.84-1.92-.238 1.682-1.114.006 0 0zM153.6 77.76c1.251.357 4.632 4.896 4.32 6.24-1.59 0-4.32-4.908-4.32-6.24 1.49.427 0 .48 0 0zM77.76 81.12h2.88c-.078 1.275-2.88 1.753-2.88 0 .96 0 0 .32 0 0zM57.12 82.56c1.59 0 3.609 3.166 3.84 4.801-1.818-1.09-2.887-2.984-3.84-4.801.32 0 .991 1.889 0 0zM160.32 86.88c.63.17 1.079.521.96 1.44-.63-.171-1.08-.521-.96-1.44zM145.44 88.32c1.495.358 2.521 1.385 2.88 2.88 1.511.312 2.442 1.285 2.399 2.88-1.54-.989-5.28-4.036-5.28-5.76 1.55.371 0 .32 0 0zM144 89.28c0 1.786-2.909 6.34-4.8 7.199-.24-1.807 3.42-7.199 4.8-7.199 0 .48-.32 0 0 0zM132 90.72c1.375.797 4.652 3.492 4.8 5.28-1.55-.271-5.28-3.579-4.8-5.28 1.05.608-.32 1.117 0 0zM77.76 99.36h-1.44c.258-1.68 2.1-2.425 3.36-2.881.275 1.709-1.992 1.324-1.92 2.881-.48 0-.077-1.677 0 0zM48.96 96.96h1.44c.156 2.101-6.62 6.72-8.64 6.72.968-1.78 7.603-4.907 7.2-6.72.48 0 .332 1.496 0 0zM138.24 97.92c-.042 1.398-1.095 1.785-1.92 2.4-.12-1.559.58-2.303 1.92-2.4zM51.36 98.4c1.045 0 4.871 4.108 4.8 5.279-1.294-.493.053 1.963-1.779-.501-1.321-1.78-2.303-2.79-3.021-4.78.32 0 .212.588 0 0zM68.64 98.88c1.351.033 4.8 6.246 4.8 6.72-1.751.1-4.736-4.9-4.8-6.72.866.021.071 2.01 0 0zM75.84 102.24c-.176-1.098 2.411-3.418 3.36-3.36-.216 1.93-2.137 2.27-3.36 3.36-.307-1.91 1.186-1.05 0 0zM77.76 101.28h.96c-.208 1.33-1.071 2.192-2.4 2.399 0-1.9 1.591-.37 1.44-2.4.32 0 .077 1.04 0 0zM124.32 101.28c1.78 0 3.84 1.675 3.84 3.359-1.23-.52-3.93-1.91-3.84-3.36.48 0-.04.68 0 0zM108 102.72c1.602 0 5.737 4.534 6.72 6.24-.844.188-2.52-1.066-2.894-1.746-.77-1.39-3.55-2.15-3.83-4.49.32 0 .13 1.08 0 0zM107.52 103.68c-.862 2.193-5.017 8.538-7.199 8.641.138-2.153 2.023-2.938 2.962-4.639.68-1.22 2.36-3.55 4.24-4-.59 1.49-1.55.37 0 0zM58.56 107.52c2.625 1.059 3.712 6.157 6.248 5.529 3.73-.925 5.845-4.637 9.592-5.529-.603 2.177-5.824 5.021-7.585 6.015-3.472 1.957 3.11 5.445 3.746 7.906-1.708-.344-2.433-2.211-3.808-3.106-1.859-1.212-1.056-1.695-3.904-1.723-2.498-.024-5.031 2.409-7.168 3.389 0-2.06 1.831-2.124 3.504-3.264.529-.359 3.268-2.177 3.695-2.017.137-3.2-4.864-4.17-4.32-7.21 1.254.5-.418 2.34 0 0zM100.32 113.28c1.639.667 2.85 1.937 3.84 3.359-1.42 0-3.76-1.55-3.84-3.36 1.7.7.08 1.84 0 0zM78.72 114.72c1.205.238-.087 1.773-.96 1.44 0-1.16 1.133-.92.96-1.44 1.156.23.242.72 0 0zM152.64 16.8c-1.691.875-1.217 1.862-3.22 1.901-1.503.029-1.289.454-2.717.528-1.437.075-6.063 2.034-6.063-.029a2.883 2.883 0 0 0-1.439 1.92c-1.024-.649-1.149-.923-2.4-.48 0-1.61 5.28-6.012 5.28-3.36 1.65-1.729 3.845-.312 5.28-1.44a3.42 3.42 0 0 1-.96 2.16c1.508.641 1.812-2.229 3.359-2.16.272.958-.752.962-.479 1.92 1.542-.896 2.444-2.536 4.319-2.88-.05.997-1.25.709-.96 1.92 1.176-.18.988-1.632 2.4-1.44-.049 1.824-1.244 2.851-2.88 3.36-.27-.958.75-.962.48-1.92-.84.436.32 1.117 0 0zm-10.08 1.92c.48.16.641 0 .48-.48-.48-.16-.64 0-.48.48.16 0 0-.16 0 0z"/><path d="M174.72 32.4c-6.433-2.065-6.955-15.738-10.199-21.24-1.977-3.351-17.82.684-21.832 1.068-2.408.23-4.473-.054-5.881 1.82a47.753 47.753 0 0 0-1.509 1.611c-.843 1.232-.945.564-1.379 1.141a3.97 3.97 0 0 1-1.293 2.546c-1.69 1.565-1.778-.146-2.612-1.521-1.288-2.122-1.277-5.16-1.665-7.775-.549-3.702-.725-5.611-4.873-5.253-2.276.196-5.643 1.103-5.543 3.99.07 2.036 1.61 3.796 1.434 5.832-.196 2.26-3.062.786-4.562.413-.849-.211-5.002-.733-5.375-1.372-.471-.808-9.665-1.403-11.207-1.528-8.147-.664-16.868-1.354-25.14.267-4.527.887-7.08 3.022-8.83 7.385-.82 2.043-.396 1.236-.413 2.777-.016 1.46-1.839 1.967-2.614 3.146-1.371 2.084-4.356 1.329-6.717 1.587-1.802.197-2.46 1.34-3.921 1.681-2.379.555.855 4.912.772 6.066-2.983-.575-5.047-3.119-8.16-3.36-1.528-2.092-4.926-2.642-6.902-3.97-1.515-1.019-4.287-2.351-5.884-2.828-2.427-.725-4.062-2.571-6.564-3.084-1.363-.279-4.778.692-4.649 2.682-1.708-.563-4.115 2.864-5.76 3.36-.618 1.146-7.308 7.114-8.16 6.72-.309 2.4-.048 5.07.798 7.842.882 2.89 1.076 5.381 1.599 8.344.415 2.347 3.203 3.762 3.354 5.184.239 2.262 1.154 5.601 1.367 8.31.06.767 1.484 5.215 2.483 4.88.299 3.085.928 6.197 1.135 9.226.221 3.229.428 6.465.873 9.646.393 2.812 1.832 4.86 1.832 7.701 0 4.983 2.865 10.625 5.28 14.946 1.74.84 1.647 1.489 3.634 2.024 1.543.415 2.978 1.108 4.446 1.725 2.947 1.237 6.074 1.545 8.904 3.028 8.411 4.409 18.565 7.85 28.376 10.743 8.885 2.603 15.598-1.134 23.85-3.87 1.344-.446 9.626-2.623 9.51-4.29 2.433-.074 5.27-1.623 7.21-2.69 2.232-1.228 4.663-1.579 6.671-2.809 2.735-1.674 7.487-5.165 10.84-5.061 2.288-2.002 5.066-2.83 7.621-4.26 1.244-.696 1.863-1.061 3.059-1.62.938-.438 2.974-.947 3.852-1.909.909-.996 4.024-2.482 5.628-2.291.936-1.265 4.071-2.174 5.394-2.575 4.835-1.467 9.709-4.751 12.857-8.406 2.586-3.003 2.881-8.425 3.59-12.059.166-.856.691-3.61 1.439-4.08-.204-3.121.286-6.189.478-9.294.187-3.008 1.159-5.551 1.192-8.513.03-2.705 1.164-4.267 1.605-6.715.9-5.025 1.95-10.154.56-15.307-1.27-.408.47 1.733 0 0zm-4.8.24c.761.165 1.236-.171.96.96-.83.186-1.15-.134-.96-.96 0 0-.19.826 0 0zm.96 5.28c-.231 1.462-2.688 2.142-4.32 2.4.33-.801 3.46-2.578 4.32-2.4 0 0-1.11-.23 0 0zm-37.44-18.24c1.378.333 3.7-3.235 4.381-4.259 1.562-2.353 10.439-2.315 13.626-2.805 2.445-.375 11.482-2.547 12.11.107.585 2.478 1.69 4.849 2.691 7.268 1.066 2.578 1.475 4.538 2.272 7.135.318 1.033 2.011 3.785 1.08 4.716-.393.394-1.327 1.163-1.602 1.758-.59 1.277-2.825 6.33-4.32 6.24.845-3.181 4.324-5.825 4.642-8.254.465-3.553-1.458-6.813-2.613-9.99-.981-2.696-2.094-10.222-5.156-4.924-.788 1.363-1.713 2.252-2.33 3.549-.616 1.294-2.78 2.917-2.702 4.259-.918-.104-4.269 5.695-4.888 6.58-.688.984-3.256 3.81-3.752 5.9-4.267 2.914-5.532 7.619-3.359 12-1.458.498-1.924-2.096-2.289-3.052-.957-2.514-2.439-1.29-4.432-1.748v-3.2c0-2.225 2.725-.17 2.4-2.56-.885-.302-1.41 1.116-1.979.059-.903-1.68-.367-5.299-.404-7.619-.05-3.113-.291-4.961-2.246-7.371a7.206 7.206 0 0 0-2.092-1.869c.05-.997 1.25-.709.96-1.92 1.27.307.31 1.267 0 0zm32.64 20.64c-.241.241.226.652-.48.48-.17-.706.24-.238.48-.48zm-3.36-1.92c.826 3.009-8.038 5.565-10.56 6.72-.051-.972-.531-1.612-1.44-1.92 2.228 2.164-1.684 2.816-2.618 3.302-1.858.966-3.289 3.144-4.43.746-2.606-5.479 3.518-6.801 4.648-11.728.741-.268 3.734-4.327 3.84-5.28 1.923-.913 2.904-4.013 4.37-5.47.944-.939 1.175-3.383 2.375-4.064.699-.396 3.389-4.429 3.335-5.346.983.146 1.92 2.633 1.92 3.44 0 2.813 1.88 5.591 2.694 8.345.567 1.915 1.211 2.701.453 4.322-.542 1.159-1.33 1.614-1.852 2.789-.33.747-1.79 4.504-2.73 4.144.36 1.323.78.297 0 0zm.48 3.84c-2.007.101-4.219 1.66-6.24 2.4.54-1.237 6.47-3.266 6.24-2.4 0 0 .23-.867 0 0zm-6.72 2.4c-.171 1.51-4.563 2.34-5.76 2.88-.05-1.481 4.58-2.977 5.76-2.88-.1.861-2.27-.187 0 0zm-7.2 3.36c.283-.182.02-.761.96-.48-.08.549-.4.709-.96.48 0 0 .42-.055 0 0zm-3.84 1.44c-.171.63-.521 1.079-1.44.96.09-.707 1.05-.55 1.44-.96zm18.24-8.16c.242.242.652-.226.48.48-.71.172-.24-.239-.48-.48zm-24 9.6c-.012-.609.239-3.146.96-2.88a2.862 2.862 0 0 1-.371 1.332c.1.238 1.73 1.688-.59 1.548-.02-1.267.68.041 0 0zm.48.96c-.241.241.226.652-.48.48-.17-.706.24-.238.48-.48zm.96-.96c1.074.294 1.392-.628 2.4-.48a6.896 6.896 0 0 1-2.4 1.44v-.96c1.32.363 0 0 0 0zm-2.88 1.92c.283-.182.02-.761.96-.48-.08.55-.4.71-.96.48 0 0 .42-.055 0 0zm-1.44 0c.659.461.979 1.102.96 1.92-.957-.272-.962.751-1.92.48.28-1.101 1.32-1 .96-2.4.63.328.38 1.503 0 0zm-8.64-35.04c-.291 1.311 1.251 1.09.96 2.4-1.011-1.333-4.141-.253-4.32-2.4h3.36c-.32 1.441 0 0 0 0zm-3.6-.96a6.172 6.172 0 0 1-2.64.96c.007-2.032 3.103-1.374 4.32-1.44.19.906-1.33.367-1.68.48-.65.554.54-.175 0 0zm1.68-9.6c1.165.435-.12 3.32.96 3.84-1.87.267-.58-2.619-.96-3.84zm-3.84-.48c2.335-.303 2.446 1.696 2.399 4.32-3.38.628-2.4-1.702-2.4-4.32.42-.055 0 0 0 0zm2.88 5.76c-.428.849-1.713.48-2.88.48.1-1.049 2.33-.322 2.88-.48 0 0-.87.251 0 0zm-3.84.48c.241.241.652-.225.479.48-.7.172-.24-.238-.48-.48zm.48 1.44c.859-.204 5.122-.722 5.28.48-2.305-.445-4.009 1.067-6.24.96l.96-1.44c1.16-.276.03.828 0 0zM120 7.68c1.575.185.763 2.757.96 4.32-1.58-.185-.76-2.757-.96-4.32zm-30.72 5.76c5.648.544 12.606.283 18 1.92 2.437.744 5.03.596 7.544 1.423 3.719 1.225 8.034 2.793 11.655 3.538 5.613 1.154 8.143 4.312 9.128 9.562.214 1.141-.646 9.994-.149 10.339 1.365.95-.209 5.857-.259 7.512-.055 1.81.416 3.148.712 4.844.339 1.945-5.163 2.633-6.791 3.103-.826-2.232-.668-4.877-.48-7.2.023-.293.251-3.922.011-3.67 1.138-1.193-.144-7.412.47-9.53 1.204-4.149-2.398-9.428-5.949-10.589-2.934-.958-5.997-1.908-8.896-3.019-3.017-1.155-6.792-2.235-9.577-2.597-.794-.104-8.125-1.374-8.623-2.03-.709-.933-6.179-1.406-7.439-1.427-.61-.01-4.657-.44-5.044-.993-.93-1.326-4.426.472-5.832-1.186 3.847.26 7.693-.37 11.528 0 .532.051-3.736-.36 0 0zM120 60.48c-2.982.092-8.492 2.371-10.56 4.32-2.853.963-6.077 2.557-9.12 2.88 1.433-2.561 7.133-2.7 9.234-4.017 3.115-1.953 7.201-3.792 10.925-4.143.29.77-.78.19-.48.96-2.72.083-.3-.776 0 0zM86.88 69.6c-.29-.964 2.087-.483 2.16-.479 1.084-.248 2.403-5.111 2.718-6.114.763-2.427 2.833-4.751 3.182-7.266.37-2.677-4.693-3.502-6.793-3.611-2.396-.124-3.287-1.329-5.149-1.265-1.849.063-3.531-.123-5.239-.464-1.076-.215-2.456-.551-3.36-.96-3.261-1.472-4.077 1.025-5.281 3.519-.67 1.388-1.418 2.581-1.977 3.623-.575 1.07-1.249 3.227-2.066 4.366-.906 1.264-1.716 3.061-1.716 4.492 0 1.073 3.742 1.93 4.79 1.805 2.263-.27 17.195 4.238 17.291 3.795-1.444-.229-2.133.474-3.36.96.124-2.058-6.136-2.076-7.68-2.4-2.625-.548-4.927-2.247-7.438-1.943-1.163.141-4.45-.638-5.042-1.656.495-1.229.696-2.635 1.488-3.732.768-1.064.991-3.104 2.352-3.708 1.57-2.79 1.996-8.343 4.8-11.04 4.477 1.832 10.266 2.049 14.4 2.88 2.403.484 5.23 1.052 7.669 1.832 2.171.694 4.654-.181 3.851 2.968-.022.091-1.824 2.932-1.92 2.88-.603 1.596-.721 5.114-2.399 6.24-.373.896-1.091 2.781-.96 3.84 2.321-.478 5.294-7.954 5.279-10.08.218.112 2.358-3.875 2.4-4.32 2.372 1.532 3.198 4.44 5.167 6.354 2.084 2.027 3.11 3.294 2.033-.593 1.558.381 2.644 1.62 4.32 1.68-.379 1.059-5.57 3.838-6.721 3.6 1.434-2.344-.855-4.091-2.88-5.76.616-2.773-3.648-3.337-3.359.48-1.671 1.496-2.881 5.625-2.881 7.785 0 .949-7.036 3.665-7.68 2.292-.344-1.144.66 1.406 0 0zm1.92 1.44c-.328.632-1.024.896-1.92.96.131-.829.828-1.093 1.92-.96zM84.96 60c-.548-2.263 2.131-1.292 2.88-1.92.104.784-.215 1.264-.96 1.44v-.96L84.96 60c-.307-1.267.955-.165 0 0zm1.44 12.479c-.743.07-6.56 2.68-6.72.961 1.087.159 6.568-1.957 6.72-.961-1.608.153-.197-1.289 0 0zM85.92 55.2v-.96h.48c.274.921-.379.727-.48.96zm3.36 4.32c1.136.433.96-1.857.96-2.4 0-2.087.984-2.746 3.359-2.4-.791.888-1.591 1.768-2.399 2.64.545.786.62 1.604.224 2.456-.727 1.676-.771 1.69-1.904 1.624-.824.628.564 1.124.24 1.92.172-.058-1.897-1.749-1.92-1.92.276-1.08 1.833-.372 1.44-1.92.777.296.381 1.501 0 0zm-1.92-3.36c-.311-1.271.169-1.75 1.44-1.44-.584.551-.185 1.737-1.44 1.44 0 0 1.258.298 0 0zm-2.88 12.48h-.96c-.294-.771.774-.188.48-.96.549.076.709.396.48.96 0 0-.055-.425 0 0zm-.96-3.84c.104-.536.424-.855.96-.96-.105.535-.424.856-.96.96zm-.48-5.28a2.71 2.71 0 0 1-.96 1.2c.271.25.59.33.96.24-.104.536-.424.855-.96.96v-.96c-.026-.01-1.938.824-1.44-.48 2.402.819.913-4.387 2.4-3.84.195.866-.724 2.181 0 2.88-.016.704-.873-.843 0 0zm-5.76.96c-1.506-.575-.106 2.99-1.92 2.88.888-1.096.769-3.797-.24-4.8-.169 1.172-1.076 5.333-2.64 4.8.076-1.38 1.728-7.049 2.88-7.68.683.413 1.039 4.063 2.228 1.748.488-.949.141-3.03 1.612-3.188-.502 2.128-1.569 4.069-1.92 6.24-.777-.296.379-2.341 0 0zm1.44 2.88c-.104.536-.424.856-.96.96-.319-1.304.333-.59.96-.96-.104.536 0 0 0 0zM72 59.52c-.581.556-1.38 4.459-1.44 5.28-.775-.759-1.162-1.278-2.4-.96-.114-1.011 3.189-3.826 1.171-3.811-.009 0 1.222-7.321 4.109-4.349.041.681-4.344 3.432-1.44 3.84-.654.626-1.618-.228 0 0zm7.68 0c1.1.171.299 2.082-.48 1.92-.24-1.04.268-1.332.48-1.92zm0-.96c.104-.536.424-.856.96-.96-.104.536-.424.856-.96.96zm.48 9.6c.242.241.652-.226.48.479-.705.173-.239-.238-.48-.479zm.96-11.52v-.96h.48c.275.921-.379.727-.48.96zM78.72 72c-.241.241.225.652-.48.479-.172-.705.239-.238.48-.479zm-.96 1.92c.147.946-1.317.282-1.92.48-.147-.947 1.318-.282 1.92-.48zM75.36 72c-.146-.946 1.318-.282 1.92-.48.147.947-1.318.283-1.92.48zm0 1.92c-.955 1.423-8.011.038-8.64-1.44 2.873-.209 5.471 1.872 8.64 1.44-.565.842-2.408.328 0 0zm-1.44-2.4c.283-.182.02-.76.96-.479-.076.549-.396.708-.96.479 0 0 .425-.055 0 0zM64.8 72h1.44c.358 1.367-1.633-.106-1.44 0zm-.48-2.4v-.96a2.493 2.493 0 0 1 1.44.96h-1.44zm-12.48-1.92c.158-.429-8.873-3.209-9.766-3.354-1.929-.312-10.042-1.764-10.394-3.846-1.074-.294-1.392.628-2.4.48.548-1.505 6.183-4.26 7.68-4.32-1.196 1.898-3.721 2.129-5.28 3.6-.071.915 3.473-1.191 3.725-1.375 2.098-1.527 3.737-.036 5.708-.259 1.126-.127 5.015.766 6.407 1.394 1.107.5 7.76.193 8.017 1.197.439 1.719 6.615-1.296 5.123 2.823-.537 1.481-1.557 2.223-.606 3.726.208.329 1.864 2.011 1.866 2.334-3.325-1.007-6.585-2.154-10.08-2.4.372-1.013 3.887.273 0 0zm7.68 3.36c.283-.183.019-.762.96-.48-.076.549-.396.71-.96.48 0 0 .425-.055 0 0zm-1.92-.48c.283-.182.02-.76.96-.479-.076.549-.396.708-.96.479 0 0 .425-.055 0 0zm-1.44-.96c-.242.242.226.652-.48.48-.172-.706.239-.239.48-.48zm-2.4 0c.294-.16.431-.773 1.44-.479.227.864-1.103.38-1.44.479 0 0 .495-.145 0 0zm-.96-.48c-.863-.257-1.978-.262-2.4-.96 1.192-.072 1.981.259 2.4.96zm-17.76-5.28c-1.196.056-8.02-1.51-7.68-2.4 5.014.876 9.551 2.532 13.92 3.84.713.218 7.638 1.413 8.16 2.88-1.772-.278-14.735-3.443-14.4-4.32-3.022.142-.297.777 0 0zm-10.56-7.68c.376-.987-6.1-3.02-7.2-3.36.883-2.155 4.5-3.711 6.176-5.044 1.114-.887 1.082-.859 2.517-1.623 2.359-1.256 3.951.266 6.48 1.644 3.108 1.693 16.323 5.047 15.068 9.344-2.979-.505-7.158-1.979-9.543-1.983-2.918-.004-5.192 3.845-7.736 3.903-.249-1.459-3.992-2.81-5.762-2.881.296-.777 2.461.099 0 0zm8.16-9.12c.242-.242-.225-.652.48-.48.172.705-.238.238-.48.48zm12 .96c.331 1.759 1.453.335 2.4 1.92-1.484-.102-2.99-.612-3.84-1.92-1.693.207-2.722-.562-4.102-1.338-1.835-1.033-7.14-2.159-7.418-3.941 3.37 2.24 8.905 4.09 12.96 5.279 0 0-3.217-.943 0 0zm-1.92-1.92c.242-.242-.225-.652.48-.48.173.705-.238.238-.48.48zm8.64-2.88c.564.229.884.07.96-.48 2.521.331-.497 2.9-1.92 2.88-.292-1.31 1.252-1.089.96-2.4.425-.054.321 1.441 0 0zm12.72 0c1.103-1.911-3.803-2.449-.096-3.665 3.711-1.217.73 2.17.815 3.185 1.074.294 1.392-.628 2.4-.48.412 4.574-5.007.827-7.2.96-.034-3.267 3.821.078 4.081 0 .775-1.343-.801.241 0 0zm-1.2-5.28c.133-1.052 1.92-.123 1.92-1.31 0-.82-.482-3.01.48-3.01.821 0 1.452 5.19-2.4 4.32.108-.852 1.447.327 0 0zm4.32 11.76c-.149 3.792-4.029-.406-4.32-2.16-.881-.552-3.807 0-4.86 0-2.54 0 .085-2.906 1.104-3.276 1.746-.636 1.907-.336 3.376.776 1.974 1.494-.06.914.38 2.26 2.218.683 3.205.432 4.32 2.4-.03.77-.318-.562 0 0zm-1.92 5.04c-1.94 0-3.98.441-4.782-1.818-.66-1.861 2.528-1.681 3.592-1.494 2.758.488.878 1.89 1.19 3.312 0 0-.248-1.128 0 0zm-12 3.84v-.96c1.639.091 5.86-.866 5.76 1.92-1.985.016-3.795-.847-5.76-.96 0 0 2.118.122 0 0zM56.64 60c-.242.242.225.652-.48.48-.172-.705.238-.238.48-.48zm1.44-17.04c-.161 1.915-2.479 1.784-3.84 1.68.127-1.738 3.712-3.88 3.84-1.68-.143 1.697-.022-.378 0 0zm.24 8.4c.731-2.325-.759-1.487-.72-2.16-.509-1.698 4.137-.636 4.805-.085 1.54 1.266-.948 1.603-1.644 1.855-.629.216-.883.667-.762 1.35-1.522-.026-2.755-.742-4.32-.48-.183-1.25.429-1.871 1.44-2.4-.378 1.313-.144 2.12 1.201 1.92.191-.609 0 0 0 0zm2.16 2.88c-1.106 3.21-4.486 2.4-7.2 2.4.276-3.016 5.846-6.199 7.2-2.4-.369 1.071-.71-1.994 0 0zm.96 7.68c-1.169-.431-2.088-1.111-3.84-.96.736-.986 4.128-.659 3.84.96zM60 60c.186-1.296-.637-1.767-.96-2.88.789-1.768 2.531-2.181 4.32-1.92l.96 1.44a21.053 21.053 0 0 0-1.623 2.697c-1.609 2.542-1.066.125-2.697.663.214-1.494 1.075-.354 0 0zm-.96-21.6c-.644-.166-3.214-.327-3.36-.96 2.024.16 4.277-.443 6.24.24.089 1.301-2.324.863-2.88.72-.436-.113 1.014.262 0 0zm-.96.96c.562 1.935 4.189-1.848 3.36 1.44-1.355-.051-4.036 1.882-3.84-.48-1.806.309-2.123 1.992-4.32 1.92.818-2.15 2.503-3.13 4.8-2.88.162.558-2.873-.313 0 0zm-2.4 5.76c-.703 3.248 1.639 4.32-3.2 4.32-2.997 0 .633-4.981 3.2-4.32-.088.408-2.37-.61 0 0zm-4.8 1.44c-.166 1.492-1.384 2.043-2.4 2.88-.403-1.784.438-3.477 2.4-2.88-.176 1.584 0 0 0 0zm-2.4 4.32c.862-.473.81-1.745 1.92-1.92.903.875.137 1.909 0 2.88.93.21 2.314-1.785 4.32-1.44 1.429 1.375-1.065 3.036-1.92 3.36.125-1.509-.962-1.73-1.62-.66-1.18 1.918 1.62.751 1.62 2.07 0 1.238.579 2.781-1.172 2.917-1.445.111-3.19-.136-2.667-1.927a6.26 6.26 0 0 0 2.4.96c-1.299-1.507-1.569-3.408-.96-5.28-1.411.389-.73 2.859-1.2 3.84-1.623-.303-.445-3.761-.721-4.8.827-.453.387 1.453 0 0zm3.84 2.4c-.242.242.225.652-.48.48-.173-.705.238-.239.48-.48zm2.4 6.24c-.324 1.155-8.499-.629-8.16-1.44 2.716.506 5.407 1.15 8.16 1.44-.238.849-2.895-.305 0 0zm-7.2-11.04c-.242-.242-.652.225-.48-.48.705-.172.238.238.48.48zm-2.4-1.92c.416-.704.73-1.509 1.92-1.44.13 1.25-.668 1.572-1.92 1.44zm.96 12c-1.114-.006-1.434-.807-2.88-.48.46-1.14 2.681-.209 2.88.48zm-4.32-1.44c-.242.242.225.652-.48.48-.173-.705.238-.238.48-.48zm-.96.48c-1.191.072-1.981-.259-2.4-.96 1.192-.072 1.981.258 2.4.96zM63.84 72c-1.192.072-1.981-.259-2.4-.96 1.192-.072 1.981.259 2.4.96zm-1.44-3.36c.981.168 1.667-.392 1.44.96a2.493 2.493 0 0 1-1.44-.96s.093.708 0 0zm27.84-20.16c.77.294.189-.774.96-.48.045.754-.791.529-.48 1.44-.55-.076-.71-.396-.48-.96.777.296.055.425 0 0zm4.8-6.72c-.312 1.723-1.607 5.505-2.88 5.76.726-1.986 1.355-4.206 2.88-5.76-.392 2.168-1.427 1.454 0 0zm.48-1.92c-.011-.031-1.566 1.824-1.92 1.92-.202-1.407.512-2.122 1.92-1.92.242.722-1.495-.215 0 0zm-3.36 4.8c-.332-.972.521-.759.48-1.44 1.127.098.119 1.539-.48 1.44zm0 3.36v.96h-.48c-.274-.92.38-.727.48-.96zm-1.44-.48c.104-.536.424-.856.96-.96-.104.536-.424.856-.96.96zm11.52 16.8c.241.241.652-.225.479.48-.7.172-.24-.238-.48-.48zm-.48-1.92c.241-.241-.226-.652.48-.48.17.705-.24.238-.48.48zm-.96-2.4c-.241.242.226.652-.479.48-.17-.705.24-.239.48-.48zm-3.84 5.28c.101.234.755.039.48.96h-.48v-.96zm-.481.96c-.241.241.225.651-.479.479-.172-.703.238-.238.479-.479zm-7.199 4.32c3.122.229 6.954-2.004 10.081-2.88.126 2.325-10.074 2.844-10.081 2.88 1.381.101-.193.913 0 0zm8.64-4.32c.294-1.074-.628-1.392-.479-2.4.834-.207.65-.021 1.156-.497-.098.341-.323.506-.677.497-.248-1.453 1.017-1.989.96-3.36 1.2.094.017.997 0 1.44l1.44-.96c-.106 1.252.258.763.96.48a6.266 6.266 0 0 1-.96 2.4c-.3-.071-.54-.231-.721-.48-.648.883-.697 2.234-1.679 2.88.362-1.323.917-.603 0 0zm3.84-3.36c-.241.242.226.652-.479.48-.17-.705.24-.239.48-.48zM110.4 60c.241-.242-.226-.652.479-.48.17.705-.24.239-.48.48zm4.32-.48c.104-.536.425-.856.96-.96-.1.536-.42.856-.96.96zm1.92 0a4.373 4.373 0 0 1 1.92-1.92 4.409 4.409 0 0 1-1.92 1.92zm3.36-2.88c.104-.536.425-.856.96-.96-.1.536-.42.856-.96.96zm.48-1.92c-2.438.22-3.183 2.998-5.688 2.872-2.503-.127-5.082.747-7.837.334-2.249-.337-2.971-2.528-4.714-2.726.354-1.075-2.117-3.84-2.775-3.84-7.499 0-2.779-19.522 1.815-18.24-1.007 1.688-2.048 2.288-2.915 4.045-.86 1.743-1.027 2.478-1.191 4.52-.223 2.769-.619 6.489 1.466 8.714.809-2.466-2.28-5.075-.72-7.44-.207-1.324.037-2.476.458-3.718.396-1.168 2-3.215 1.942-4.202 3.476-1.989 5.357-2.789 9.301-2.911 2.3-.071 5.205.442 7.019 1.471 1.643 2.203 3.1 2.942 4.354 5.485 1.57 3.183 1.914 6.707.928 10.405-.468 1.756-2.933 4.582-4.322 5.71-1.57.044-2.688.884-4.08 1.44-1.095.225-3.859-.763-4.56.48 1.616 2.123 6.226-.96 7.965-.96.566 0 2.438-1.84 2.914-2.402.632-.746.976-1.703 1.712-2.368 1.217-1.1.867-2.19 1.81-3.63.491-6.728-1.782-10.04-6.24-14.64-.572-.1-4.858-1.317-5.2-1.708-1.151-1.32-5.494 1.129-6.32-.691 4.238-.82 8.508-.16 12.48 1.44-.303 1.504 3.284 3.119 3.954 4.514 1.693 3.524 1.969 6.598 1.755 10.507-.1 1.841-1.026 3.234-1.188 4.507-.17 1.422-2.35 1.371-2.11 3.032-2.28.205-.2-1.391 0 0zm-38.4-31.2c3.923-.341 6.396 3.169 9.461 3.962 2.472.639 4.34 2.772 6.634 4.263 1.386.428 1.558 1.063.514 1.905-1.489 1.497-1.659-.909-2.543-1.636-1.257-1.035-2.545-2.879-4.466-2.734.043-1.317-2.5-1.766-3.265-2.255-.992-.635-2.38-.924-2.975-2.064-1.091-.128-2.865-.161-3.36-1.441 2.628-.228.446 1.154 0 0zm2.88 2.4v.96c-.826.187-1.146-.133-.96-.96h.96zm-6.24-3.84c-.238-1.832 1.989-6.168 4.717-3.094 1.214 1.368 5.848-.105 7.201 1.44.329.375 5.378.179 5.423.934 0 .014 6.529 1.188 6.658 1.2-1.018 2.071-4.066 1.492-5.279 3.36-1.297-.186-1.768.638-2.881.96-.048-.79-2.061-1.92-2.64-1.92-1.374 0-5.969-1.751-6.96-2.88-2.011-.585-4.259.09-6.24 0-.055-.425 1.478.067 0 0zm2.88 2.4c-.242.242.225.652-.48.48-.172-.705.238-.238.48-.48zm40.32 4.32c2.058-.339 3.6 2.912 3.36 4.8-2.242-.189-4.348-2.657-6.708-3.068-1.628-.284-3.013-1.333-4.578-1.246-.827.046-2.071.08-2.634-.006-.352-1.204-5.598-.156-6.414.162-1.469.572-2.615.865-3.904 1.64-1.868 1.122-4.291-1.237-5.522-2.762 4.612-.832 8.271-6.382 13.052-4.789 1.68.564 13.69 4.306 13.34 5.269 0 0 .37-1.012 0 0zm2.88 24.96c-.038.865-1.33 2.236-2.399 2.4-.06-1.615 1.62-1.445 2.4-2.4 0 0-.72.881 0 0zm-2.88 1.44c.104-.536.425-.856.96-.96-.1.536-.42.856-.96.96zm1.92-2.4c.564-.23.884-.07.96.48-.91-.311-.686.525-1.439.48-.3-.771.78-.19.48-.96.43.054.3.777 0 0zm-.48-.48c.241-.242-.226-.652.479-.48.17.705-.24.239-.48.48zm.96-.48c.241-.242-.226-.652.479-.48.17.705-.24.239-.48.48zm.96 3.36c-.098 1.272-1.074 1.592-2.4 1.92.66-.891 1.1-1.881 2.4-1.92 0 0-1.4.042 0 0zm-.48-6.72v-.96h.48c.28.921-.38.726-.48.96zm0-2.64c-.199-.548.827-3.924-.479-4.32-.023-3.427-1.74-5.878-3.841-8.4 2.025-.511 4.786 2.306 4.911 3.964.251 3.32.459 6.623.369 9.956-.87.121-.22-1.169-.96-1.2-.28-.755.69.029 0 0zM104.16 31.2c.563-.23.884-.07.96.48-.91-.311-.686.525-1.44.48-.29-.77.78-.189.48-.96.42.055.3.777 0 0zm-1.92 1.44c-.241.241.226.652-.48.48-.17-.705.24-.238.48-.48zm-20.16-7.68h.96c.444 1.325-1.231-.121-.96 0zm43.68 31.68c3.439.46 6.28-1.072 9.601-1.44-1.332 3.38-10.974 2.376-13.92 4.32.65-1.916 3.5-1.122 4.32-2.88 4.25.569-.76 1.638 0 0zM67.68 16.32c1.529-2.068 7.53-1.835 9.6-1.44 2.68.512 5.817.569 8.4 1.44 6.288 2.125 12.93 1.926 19.026 3.872 7.002 2.235 13.331 3.607 19.632 6.011 4.505 1.719 3.396 10.214 3.422 13.964.021 3.203-.042 6.407-.137 9.608-.021.742.388 6.098-.903 5.425-1.695-.802.2-8.849.124-10.456-.262-5.527 1.064-11.699-2.528-16.18-1.944-2.426-9.676-4.443-11.943-5.096-3.97-1.143-8.021-2.049-12.622-3.054-4.554-.994-8.861-2.133-13.35-2.654-1.04-.12-6.397-.27-7.124-1.218-1.032-1.348-7.281-.58-8.476-.222-1.26.379-1.877 1.558-3.12 1.92-.079 1.085-1.294 4.852-2.4 5.28.083-2.685 1.753-4.691 2.402-7.2.362-.489-.658 2.542 0 0zm-2.16 8.64c4.302 0 6.545 2.379 10.87 3.976 2.615.965 4.629 3.773 7.185 4.372 2.207.517 5.512 3.671 6.906 5.572.801-4.92-8.501-4.973-9.36-8.64.728-.479 1.527-.64 2.4-.48.227.865-1.103.381-1.44.48.296 1.6 2.479 1.414 3.6 1.92.888-1.524-2.344-1.436-1.68-3.36-.851.043-2.899-.784-3.521-.162-.568.567-1.985 1.286-2.238-.318 1.159.173 1.131-.743 1.92-1.2-1.036-.991-2.661-.711-3.84-.24-.364.988 1.324-.028.96.96-1.074.294-1.391-.628-2.4-.48a2.493 2.493 0 0 1 1.44-.96c.097-1.61-1.293-1.44-2.505-1.44-1.351 0 1.288 1.348 1.065 1.92-1.084-1.024-3.894-.262-3.84-2.4 1.245-.174 3.307-.615 4.476-.484.385.043 2.355.13 2.724.004.394.968-1.038.076-.96.72.941 1.764 9.831 2.277 9.12 5.28 1.259.917 4.284 1.773 5.76 1.68 1.035-.024-2.358-1.555-1.243-1.317a18.39 18.39 0 0 0-3.557-.123c.187-.827-.133-1.146-.96-.96.205-.493.525-.893.96-1.2-.6-.738-2.158-.227-1.92-1.68 1.523.384 2.925 1.095 2.4 2.88 2.592-1.784 7.812 2.928 8.678 4.762 1.331 2.816-1.299 5.727-4.218 5.741-2.716.013-.842.286-1.099 1.977.754.045.53-.791 1.44-.48.045.754-.791.53-.48 1.44-.3-.072-.54-.232-.72-.48-1.493 2.198-2.29 4.776-3.12 7.2-3.265-1.413-7.214-1.913-10.654-2.257-2.827-.283-8.113-3.372-9.985 1.297-1.009-.277-5.051-3.36-2.64-3.36 1.326 0 1.107 2.657 2.388.588 1.157-1.868 1.021-.112 3.132-.588-.149-1.179-1.559-3.509-2.396-3.978-1.193-.668-.762-2.433-.97-3.696-.404-2.458-.014-3.412.733-5.855.475-1.553 2.787-1.802 3.591-.149.458.941 2.503 1.548 3.493 2.044 1.967.985 4.333 2.485 6.176 3.983 1.895 1.541 4.733 2.104 4.733 4.771 0 1.955-2.687 4.341-1.2 5.76.835-1.446 3.581-6.004 1.718-7.398-1.287-.963.074-.761-1.892-1.789-1.229-.642-2.225-1.606-3.307-2.453-1.693-1.324-3.56-2.245-4.914-3.006-1.438-.808-5.164-2.475-5.766-4.074.386-.05 2.419.751 2.88.96-.125.374 3.775 2.43 4.313 2.887.812.691 3.847 1.595 3.847 2.393 0 .564 3.425 2.368 4.32 2.4v.96c.653-.079 1.134.161 1.44.72.307.559.787.799 1.44.72a8.428 8.428 0 0 1-.543 4.137c-2.286 5.77.401 2.532 1.392-1.23.784-2.975-2.092-4.481-3.918-6.316-1.2-1.206-3.298-1.783-4.674-2.926-1.279-1.062-3.598-2.562-4.794-3.206-3.814-2.051-7.826-5.531-12.902-4.858-.064-1.192 2.135.158 2.156-.961 0 0-.019 1.021 0 0zm-1.44 2.4c1.524-1.166 4.163-.068 5.04 1.44-2.185-.616-4.492-.596-6.72-.96-.191-.905 1.326-.367 1.68-.48 1.641-1.255-.545.175 0 0zm-12.72 4.32c-.427-3.557 8.03-3.112 10.591-2.965.487.028 3.381.698 3.405.788.257.953 1.736.393 1.844 1.698-.336 1.007-1.47.44-.96 1.92-4.413.421-10.78.956-14.88-1.441 0 0 .584.341 0 0zm2.88 5.76c-.627-.371-1.279.344-.96-.96.535.104.856.424.96.96 0 0-.104-.536 0 0zm-5.28-.96c-1.265.283-3.445-.504-3.36-1.92 1.484-.025 2.66.612 3.36 1.92-1.443.323-.613-1.147 0 0zm-10.08-4.32c-.165 1.85-2.197.726-1.92 0-.101.022 1.788-.045 1.92 0 0 0-.972-.332 0 0zm-1.44-1.44c-.39-.41-1.347-.253-1.44-.96.919-.119 1.27.33 1.44.96zm-1.92 0c.242.242.652-.225.48.48-.705.173-.238-.238-.48-.48zm-1.44-.48v1.44c-.851-.203-1.491-.683-1.92-1.44.619 0 1.315-.113 1.92 0zm-2.88-2.88c.242.242.652-.225.48.48-.705.172-.238-.238-.48-.48zm0 1.92c.242.242.652-.225.48.48-.705.172-.238-.239-.48-.48zm-.96-2.4c.242.242.652-.225.48.48-.705.172-.238-.238-.48-.48zm.96 3.84v.96c-.784.104-1.265-.215-1.44-.96h1.44zm-1.92 1.92c5.368 1.642 12.299 4.173 18.24 4.32-.314.889-.954 1.209-1.92.96.284 1.435-.566 2.448-.48 3.84 1.483-.263 3.433-1.648 4.8-1.44l-.96-1.44h.96c.102-1.09-1.334-.521-1.44-1.44.706.035 1.798.197 1.44-.96 1.639.59 2.909 1.104 2.4 3.36h.96c.086-.225-.073-1.352 0-1.92.958-.271.962.752 1.92.48-.316 1.294-1.982 1.35-1.92 2.88-.166.056-.73-.96-1.68-.96-1.77 0-1.2.745-1.2 2.43 0 1.931-10.734.384-10.905-.267-.18-.687-8.231-1.227-8.599-1.026-1.721.941-4.149-1.03-5.011-.402-.711.518-2.991 1.564-4.286 2.626.413-.923 1.373-1.55 2.022-2.286 1.255-1.422.276-2.584.394-4.273.033-.469.095-2.256-.753-2.478-.893-.233-.602-4.626-.703-5.364 1.213-.061 1.976 9.483 3.12 10.56.805-3.997-2.135-7.495-1.68-11.52.144.015 1.796 3.496 1.92 3.84 1.138.164 2.297.152 3.361.48.041.013-.297-.091 0 0zm18.24 6.72c-.242.242.225.652-.48.48-.172-.705.238-.238.48-.48zM20.16 43.2a4.367 4.367 0 0 0-1.92 1.92c-1.026-.189-1.987-.03-2.88.48-2.123-.832-3.391-1.04-3.982-3.218-.528-1.947-1.523-1.807-1.104-4.268.248-1.451.778-2.881 1.759-4.001 1.836-2.097 6.252-3.517 8.212-1.558 1.434 1.434.887 3.499 2.315 5.125-.337 2.109-2.392 3.269-2.4 5.52-.844.436.01-2.63 0 0zm-.96 2.4c.165-.955 1.275-.965 1.44-1.92 1.179.5-.372 2.1-1.44 1.92zm-2.4.96c.958.272.962-.751 1.92-.48-.114.89-3.541 3.407-4.32 3.36.28-1.44 2.249-1.348 2.4-2.88 1.117.317-.158 1.602 0 0zm-1.92.96c-.311-1.271.169-1.75 1.44-1.44a2.47 2.47 0 0 1-1.44 1.44s.687-.273 0 0zM12 47.04c-.242.242.225.652-.48.48-.172-.705.238-.238.48-.48zm7.68-16.8c.242-.242-.226-.653.48-.48.173.705-.239.239-.48.48zm.96-.96c-.242-.242-.652.225-.48-.48.705-.173.238.238.48.48zm.96 1.44v.96c-.827.186-1.146-.134-.96-.96h.96zm2.4-3.84v.96h-.48c-.274-.921.379-.727.48-.96zm-.48-.48c.242-.242-.225-.652.48-.48.172.705-.238.238-.48.48zm.96-.48c.242-.242-.225-.652.48-.48.172.705-.238.238-.48.48zm3.84 0c.242.242.652-.225.48.48-.705.172-.238-.238-.48-.48zm-1.44-.48h.96c.444 1.325-1.231-.122-.96 0zm-.48.96c.101.233.754.04.48.96h-.48v-.96zm-.96-1.92c.242.242.652-.225.48.48-.705.172-.238-.238-.48-.48zm3.36 3.36c.193.69 0 1.678 0 2.4a2.46 2.46 0 0 1-1.92-.48c.205-.493.525-.893.96-1.2-.338-.757-1.316.01-.96.72h-1.44c-.304-1.956 2.267-1.4 3.36-1.44 0 0-1.543.057 0 0zm-21.12 7.2c1.213-.036 3.788-2.46 4.32-3.36 1.768-.322 3.33-2.57 4.736-3.544.779-.54 7.452-8.043 8.224-3.656-.714-.107-1.354.052-1.92.48-.379-3.469-.382 2.999-.48 3.36-1.114-.458-.78-2.087-1.44-2.88-1.497-.363-6.297 5.145-7.2 6.24-3.218.289-4.321 5.058-7.2 5.76-.292-1.31 1.252-1.09.96-2.4 1.398-.041.32 1.44 0 0zm0 4.8c-.868.228-.335-.945-.48-1.44.867-.227.335.945.48 1.44zm.48 1.44c1.224 1.017 1.645 2.835 1.44 5.28-1.215-1.025-1.157-3.323-1.44-5.28zm3.36 11.04c-1.663.47-2.39-.257-1.92-1.92 1.052-.074 1.516.763 2.64.48.707-.4.629-1.178 1.68-.96-.738.885-1.995 1.218-2.4 2.4 0 0 .408-1.192 0 0zm.96 0c3.182-1.888 6.957-4.296 9.12-7.2.801-.601 1.528-1.19 2.449-1.751 2.508-1.529 1.574-1.22 4.308-.365 3.1.97 5.83 3.302 9.07 4.289 1.832.559 9.417 2.668 9.613 5.027-3.42-1.232-7.809-3.452-11.099-5.221-3.581-1.926-9.837-5.952-13.091-1.569-.837 1.128-9.245 7.24-8.92 7.58 1.375 1.444 4.533 1.398 6.388 2.412 1.313.718 2.795 1.04 4.18 1.58 1.274.497 4.43 1.48 5.262 2.418-2.004.484-4.663-.997-5.76-1.92-1.01-.847-3.074-.453-4.32-.96.034.014-1.903-1.349-1.92-1.205.107-.904-5.825-.229-5.28-3.115 1.406-.834 0 0 0 0zM24 60.96c.283-.182.019-.761.96-.48-.076.55-.396.709-.96.48 0 0 .425-.055 0 0zm-4.8-1.92c.283-.182.019-.761.96-.48-.076.55-.396.71-.96.48 0 0 .425-.055 0 0zm-.48-.96c-.242.242.225.652-.48.48-.172-.705.239-.238.48-.48zm-.96 0c-1.568.085-4.396-.948-3.84-2.88 1.356.851 2.663 1.791 3.84 2.88-1.861.101-1.164-1.076 0 0zm3.36 12.48c2.531-.061 7.217 2.284 3.057 4.305-2.074 1.008-2.385.384-3.522-1.079-.619-.796-1.857-3.181-2.175-4.186-1.996 2.388 5.637 7.634-.24 9.601.114-1.938-.96-3.36-.96-5.28v-4.8c.74-.166 4.266.323 3.84 1.439 2.131-.051.297-.777 0 0zM168 75.36h-1.44c-.104.784.216 1.264.96 1.439a4.868 4.868 0 0 0-.479 2.88c-.076.375-.855 2.386-.711 2.402.365.041-1.223 2.426-1.209 2.397-.59 1.178-.797 1.701-1.504 2.72.003-.004-1.372 1.617-1.363 1.494-.093 1.234-6.329 4.482-7.693 4.427.778-2.438 3.165-2.888 3.36-5.28-2.414 1.427-3.54 5.598-6.293 6.787-3.321 1.436-7.986 5.384-11.947 3.773-.125.366.78 1.668.422 1.861-1.25.672-3.271 1.007-4.759 1.961a5.863 5.863 0 0 0-1.902 1.938c-.39.264-1.247-.208-1.681 0-.681 1.405-2.342.896-3.482 1.976-2.199 2.082-4.757 1.957-7.317 3.544-1.309.812-5.056 2.472-4.32-.72 2.25-2.029 3.902-4.594 5.761-6.96-1.331-.615-7.303 7.193-7.681 8.64.665.175 1.305.415 1.92.721-.281 1.351-1.926 1.392-2.88 1.92.312-.91-.525-.687-.479-1.44-.889.313-1.209.954-.96 1.92-1.224.896-1.93 1.2-3.324 1.637-1.784.558-3.941 1.377-5.583 2.369-3.169 1.914-7.944 4.389-11.733 4.635 1.569-2.202 7.94-6.012 7.68-8.641-3.22 1.427-6.325 5.102-8.64 7.681-3.615-.045-4.535-3.498-7.44-4.801-.459 2.319 5.075 5.963 6.96 5.761-1.883 2.061-14.713 6.11-14.88 3.359 1.171.129 2.384-.009 3.36-.72a15.177 15.177 0 0 0-2.938.279c-2.74.259-1.261-1.111-3.062-.999-.866 1.115 1.141 1.434 1.2 2.399-1.81.316-3.237-1.357-4.8-.96-.098-1.315 1.063-1.329 1.44-2.399-1.114 1.105-2.592-.057-3.84 0-.349 1.022.604.808.097 1.537-.361.52-4.156-1.192-5.377-1.058-.918-1.055-3.077-1.42-3.898-1.861-.924-.497-2.054-.98-3.24-1.68-1.222-.72-4.902-4.734-5.552-6.637-.947-2.771 7.349-4.943 8.371-7.822-.668-.591-7.476 4.478-8.16 5.521-4.531 1.021-4.057-6.474-7.2-6.24.228 1.521 2.409 5.597 3.84 5.76.324 2-1.831 3.674-3.36 4.561 1.95 1.291 3.27-2.443 5.76-1.2 1.059 1.928 4.007 3.245 4.32 5.279-1.833.109-3.694-.346-4.8-1.92-1.403.161-3.937-.993-5.122-1.503-3.083-1.324-6.716-3.686-10.238-3.776-.542-2.886 7.889-3.905 7.68-6.721-2.594-.336-5.29 4.801-8.04 4.801-2.733 0-3.824-7.196-5.88-6.721.478 1.561 1.49 2.819 2.24 4.24.75 1.418 2.264 1.698 2.08 3.44-3.265.175-7.336-4.046-7.68-7.2 1.037.077 1.517-.403 1.44-1.44-.91-.311-.686.526-1.44.48.144-2.294-1.91-3.693-1.44-6.24 1.291.984 1.509 2.727 2.64 3.84.478-1.662-.772-3.522-2.16-4.32.219-1.809-1.701-3.308-1.94-5.1-.477-3.568-2.687-7.769-.939-11.7 1.118.118 2.037-2.172 2.952-1.191 1.179 1.265 2.255 1.958 3.206 3.674.927 1.673 2.505 2.592 2.482 4.718-1.83 1.731-4.554 2.164-6.24 4.08 1.789 1.084 4.619-2.64 6.6-2.64 2.54 0 3.223 5.619 5.88 5.76-.154-1.384-2.417-3.65-3.305-4.695-2.122-2.496 1.387-4.752 3.087-5.986 2.678-1.944 4.048-4.438 6.199-1.06.814 1.278 1.948 3.972 3.619 4.062-.255-2.143-4.075-7.401-6-7.2-1.38 2.118-8.555 7.657-9.993 4.473-.767-1.698-2.298-3.2-3.526-4.634-2.104-2.456 1.383-3.455 2.802-4.916 1.998-2.057 3.964-.157 6.511.498 2.177.561 2.477 3.529 4.445 3.619a6.244 6.244 0 0 1-.96-2.4c.857.1 5.172 1.563 2.4 1.92v.72c1.875.378 3.062-1.397 5.28-.72 1.756.54 3.308 1.443 5.271 1.809 3.273.607 4.114 1.778 1.108 3.804-1.703 1.147-2.938 2.422-4.7 3.508-.944-.631-2.423-.597-2.965.571-.808 1.741-.942 1.54-2.557 2.883-1.505 1.251-3.416 2.626-4.625 3.359-3.526 2.139-5.998 5.622-9.773 7.826-.101 1.301 3.961-1.812 4.022-1.856 1.782-1.284 2.783-3.057 5.108-1.754 1.848 1.036 1.835 5.048 4.549 5.771.866.068-3.6-5.618-3.6-6.109 0-.774-.314-2.31 0-3.011.741-.781 2.482-.411 2.4-1.92.925-.196 4.805-2.189 5.28-3.359 1.579.528 4.967 4.537 5.28 6.239a1.58 1.58 0 0 0 .96-.72c-1.52-1.033-4.786-4.927-3.84-6.96 1.328-1.304 8.013-4.381 8.147-6.133.039-.513 7.133.655 8.173.853.615 1.252 2.958 1.058 3.782 1.499-.278-.149-3.438 3.244-3.782 4.021 1.038.579 3.259-1.752 3.36-2.64 1.255.296.856-.89 1.44-1.44 1.421.623 2.902 1.094 4.441 1.318 2.306.337 5.638.481 5.638 3.722 0 1.959-6.899 6.174-8.64 7.439.106-.343-2.786-2.89-3.25-3.55-.629-.897-3.635-3.791-3.471-4.609-1.531-.198-4.825 3.064-5.76 4.319-1.601.426-5.138 2.458-4.8 3.84 2.777-.594 4.43-2.771 6.554-4.426.872-.68 3.074-2.83 4.006-2.773 1.173 1.484 1.618 3.476 3.017 4.904 1.557 1.59.135 3.665 1.304 4.695-3.656 1.441-5.688 4.754-8.64 6.48 1.272.417 8.551-4.443 8.16-5.521 1.685.432 5.85-4.453 7.367-5.773 1.602-1.393 3.42-2.292 4.579-4.041.729-1.1.977-.547 2.121-2.198a14.88 14.88 0 0 0 1.773-2.867c1.27.255 2.226-.029 3.368-.521 3.144-1.352 6.962-3.343 10.552-3.8-.333 1.716-1.892 2.694-2.399 4.32-1.294-.315-1.35-1.982-2.88-1.92a6.208 6.208 0 0 0 1.92 2.64c-.303 1.534-1.458 2.436-2.268 3.673-.896 1.37-3.923 4.017-3.973 5.688-3.596-.185-2.812.853-4.916-2.164-.808-1.158-.423-2.078-1.624-2.816-1.425-.876-1.528 1.498-2.581 2.341.651.704 1.539-.593 2.4-.24-.699 1.064-3.12 1.501-2.88 2.64-.065.839 3.503-1.448 3.84-1.68-.146 2.057-3.106 2.534-4.32 4.08-.103 1.33 3.769-1.777 3.801-1.8 1.502-1.025 3.754.313 3.399 2.52-1.358.802-2.388 2.601-3.658 3.782a5.417 5.417 0 0 0-1.622 2.458c-1.495.358-2.521 1.385-2.88 2.88 1.311.291 1.09-1.251 2.4-.96.376 1.12-3.392 1.589-.911 4.03.879.865.414 2.19 1.66 2.18.585-.004-.829 2.105-.75 2.43 1.299-.937 2.343-.785 3.84-.479-.81-1.049-1.462-2.823-2.312-3.328-2.125-1.264.304-1.304-.088-2.912-1.311-.291-1.09 1.251-2.4.96-.009-.852 2.373-2.704 1.91-3.19-.723-.759.919-2.561 1.844-3.255 1.248-.937 1.901-2.063 2.919-2.801 2-1.447.92-.837 3.167.606.239-.689.099-1.301-.421-1.836-.911-1.064-.578-.945.049-2.375.264-.722.788-1.078 1.571-1.069-.018-1.197.673-1.819 1.456-2.576.611-.604 1.892-2.008 1.892-2.464 0-1.504 2.608-2.474 2.4-4.08 1.678-1.021 3.999-4.59 4.32-6.24 4.06-.096 10.935-3.133 14.399-5.279.43 1.803-1.728 3.467-2.405 4.795-2.223 4.356-2.167.09-5.274-.476.212 1.264 1.323 1.737 1.98 2.699 1.395 2.039.922.123 3.06.661.228-.013 3.235-5.989 4.08-6.72.96-1.406-1.188-.871 1.146-1.974 1.459-.689 3.298-1.385 4.906-2.226 1.686-.881 3.296-1.813 5.227-2.041.78-2.085 2.313-.663 3.601-.96-.588 2.841-4.32 6.318-4.32 8.399 0 1.065-1.259 1.971-2.399 1.681-.748-1.6-2.716-4.809-4.801-4.8 1.799 1.458 2.195 4.029 4.32 5.279-.107 1.128.48 1.141.48 2.041 0 1.532-1.552 2.951-2.269 4.211-.861 1.514-2.057 4.309-3.731 4.309-1.643 0-4.037-3.318-5.291-4.754-1.934-2.215-3.164-1.235-4.595.669-.368.489-2.6 4.133-2.354 4.564-.249.375-.708.206-1.298 1.103-.832 1.264-.813 1.777-2.302 1.777-2.696 0-3.593-5.458-6.001-5.279-.068 1.203 2.455 3.693 2.98 4.219 2.528 2.528 1.672 4.287-.126 7.515-.606 1.087-3.127 5.066-4.189 5.066-1.899 0-1.515.323-2.436-1.189-.419-.688-2.79-2.698-3.43-2.65.784 2.632 5.519 4.175 3.36 7.199-1.877 2.639-5.941 6.355-8.64 7.921 2.313 1.441 6.908-4.627 8.23-6.151 1.231-1.419 2.369-3.517 3.976-1.375.729.973 3.192 3.358 4.354 3.446 1.312-1.191-8.398-4.903-3.689-7.29 3.099-1.57 3.18-6.971 6.81-8.551.443 1.7 4.834 6.021 6.24 6.24-2.404-4.773-7.599-5.198-4.037-10.619.945-1.439 3.786-7.141 5.236-7.141 1.489 0 3.018 3.297 4.528 4.473 2.472 1.923.532 4.178.032 5.607-.289.817-.483 1.711-.96 2.399-1.233 1.795-3.566 3.422-4.32 5.521-.118 1.532 4.464-3.957 4.691-4.309 1.063-1.644 2.027-3.349 2.989-5.052 1.073-.294 1.391.629 2.399.48-.065 1.153 1.891 3.249 2.88 3.359-.615 2.173 2.573 1.652 2.4 3.36 4.368-1.349 4.762-7.177 8.16-9.6.288-.68 2.682-5.195 2.4-5.761a3.395 3.395 0 0 0 1.516-2.004c.656-1.811 1.308-1.029 2.08-2.56.912-1.804 1.768-3.041 2.578-4.861.926-2.078 4.654-5.262 3.906-7.854-1.758.445-3.143 5.156-3.841 6.24-4.128 6.487-5.675-4.473-10.08-4.32.304 1.558 3.323 4.705 4.636 5.78 2.911 2.385 1.95 4.179-.065 6.744-1.7 2.164-1.317 4.253-4.33 5.716-2.001.473-3.558-4.337-6-4.801 1.079.984 4.352 6.816 5.76 6.721.343 2.527-4.698 8.525-6.72 9.6-.075-3.579-7.581-5.299-5.628-9.047 2.125-4.076 5.571-7.688 7.173-11.647.545-1.347 3.944-8.872 4.695-8.586.295-.771-.774-.188-.48-.96.903-.743 2.21-.543 3.188-1.131 1.963-1.18 4.229-1.039 5.703-3.178 2.688-3.901 3.703 1.909 5.588 1.909 2.097 0 3.443-1.635 3.761-3.84.533-.07 2.617-3.462 2.4-3.84 2.522-.252 4.456-2.093 6.96-2.4.716-1.479 4.494-2.169 6.103-2.873 5.621-2.46-2.201 8.604-2.982 10.073-2.334-.636-2.558-5.615-5.761-5.28 1.897 2.905 4.782 4.907 4.363 7.907.35 1.257-2.635 2.506-2.431 3.621.047.257-1.272 2.392-1.452 2.871-2.333 6.151-5.52-4.225-7.68-3.359-.013-.057-.183-1.831-.721-.96-.908-.071 2.083 3.51 2.641 3.84.051.972.53 1.611 1.439 1.92.143 1.654.711 3.105.48 4.8-.1.021-1.857 2.265-1.92 2.4-.287.619-1.987 2.883-1.903 3.372.094.621-.226 1.038-.959 1.252-1.616 1.075-1.78-.282-2.812-1.59-1.108-1.405-2.538-4.184-4.405-4.475 1.444 3.125 4.807 4.921 5.76 8.16.949.246 4.007-3.126 3.84-4.32 2.174-2.151 5.822-7.178 6.24-10.079 2.631-.951 2.76-6.729 5.76-7.681.242 1.415 2.562 5.134 3.84 5.28.845 4.814 3.083.8 4.8-.48.25 1.683-.65 3.126-.52 4.793 0 0-.15-1.912 0 0zM77.28 87.84c-.182-.752.815-.324.48-1.2-.004-.706-1.779.341-1.44-.72 1.692-.597 2.411.639 3.84-.479-.166 1.492-1.385 2.042-2.4 2.88.031-.351-.13-.511-.48-.481-.179-.739.293.027 0 0zM146.4 62.4c-.209.355-2.596 3.416-2.88 3.36-.169-1.434-1.874-1.438-2.335-2.657-.637-1.684 4.706-3.198 6.175-3.583-.47 1.113-.49 2.079-.96 2.88-.09.159.14-.239 0 0zm23.52-4.32c-1.5-.675-1.745-2.544-3.12-3.36-.202-.016 2.676 5.711 2.684 6.603.012 1.251.18 7.797-1.484 7.797-1.924 0-.684 5.353-3.514 1.914-1.091-1.326-2.842-5.549-4.646-5.754 1.227-4.189 4.655-7.275 5.76-11.52.166-.277 1.196-.941 1.694-1.825.604-1.071 1.874-2.308 3.586-2.015-.39 2.705-.26 5.502-.96 8.16-1.49-.67.63-2.406 0 0zm-4.8-5.28v-.96h.479c.27.919-.38.727-.48.96zm8.64-12.48c-.068.913-.298 2.701-.479 3.84-.529 3.309-1.661 2.862-3.921 4.575-3.406 2.584-8.055 3.067-11.648 5.136-3.198 1.84-10.282 2.668-12.751 5.649-1.083.516-2.639.847-3.824 1.216-2.552.794-3.904 2.353-5.774 3.825-1.356 1.068-3.921 1.605-5.585 2.155-1.627.537-2.455-.035-4.257.004-.499 1.032-.975.819-2.018 1.103-1.336.362-3.857 1.715-4.942 2.737-1.759-.011-4.6 1.405-6.135 2.254-2.857 1.58-6.393 3.726-9.945 3.986-.815 1.697-5.555 1.945-6.96 2.88-1.628 1.095-4.306.635-5.963 1.836-2.778 2.014-9.479 3.505-13.236 3.444-3.007-.049-7.043-.988-10.08-1.92-1.896-.58-6.283-2.783-8.638-2.418-.329.052-2.027-.316-1.922-.942-3.363.079-6.265-1.857-9.6-1.92.132-.359-13.04-4.372-14.555-5.125-1.786-.887-4.206-1.438-6.177-1.983-1.867-.516-3.668-2.131-5.668-2.012.187-.508-3.305-1.714-3.953-2.286-2.047-1.811-1.738-6.091-2.287-8.753 4.05.832 7.431 3.979 11.556 4.604 2.841.43 5.582 2.254 8.988 2.932 7.084 1.409 12.756 3.928 19.777 5.561 4.022.935 8.487 1.644 11.999 3.224 1.516.685 2.875.588 4.32.96 3.297.847 6.934.816 10.56.48-.947 1.584-2.07.161-2.4 1.92 1.325-.64 3.856-.065 3.36-2.4.546-.314 1.589.28 2.16 0 .534-1.102 1.146-.915 2.327-1.225 5.074-1.333 9.743-2.817 14.657-4.741 8.783-3.438 16.219-6.509 24.904-9.746 4.264-1.589 8.422-1.561 12.479-3.601.407-.204 3.771-2.583 3.952-3.248 2.109-.246 5.148-1.398 6.72-2.88 1.378.018 9.673-3.259 9.601-4.32 2.302.586 5.212-2.293 7.209-3.111 1.935-.792 6.667-1.908 7.671-4.089.91.376.54 1.719.49 2.399-.04.55.06-.785 0 0zm-2.4-2.4c.169-1.287 1.439-.649 1.439-2.56 0-1.247-1.337-.816-1.439-1.76 3.73-.717 3.46 3.902 0 4.32.09-.707 1.86-.224 0 0z"/><path d="M148.8 21.6c-.788 1.522-1.059 2.276-1.939 3.18-.76.774-.21-2.462 1.94-3.18-.44.843-1.44.482 0 0zM154.08 33.12c-.075.617 1.583 3.663-.098 2.497-.11-.078-.76-2.135.1-2.497-.13 1.092-1.42.598 0 0zM151.2 36.96c1.534-.523 1.559 1.671 1.764 2.543.164.693 1.461 2.156 1.116 3.697-1.48 0-2.32-4.622-2.88-6.24.97-.332.7 2.02 0 0zM72 122.88c-.216-.633 8.108-6.934 9.6-6.72-.867 1.432-2.283 2.354-3.36 3.6-.158.599 1.117-.118.96.48-.275 1.588-1.937 1.852-2.88 2.88.97.885 1.288-1.081 2.4-.72-.129 2.107-2.893 1.85-4.32 1.92.611-1.829 2.441-2.577 3.84-4.08-.044-.32-5.242 2.72-6.24 2.64-.332-.97 2.445.2 0 0z"/></g></svg>