<svg xmlns="http://www.w3.org/2000/svg" viewBox="0 0 493.39 238.943"><path clip-rule="evenodd" d="M456.64 1.186c-.176-2.271 3.716-.473 5.236-1.047.18 2.271-3.71.473-5.24 1.047zM135.11 106.97c-2.788 4.194-6.994 6.971-12.567 8.379 2.58-3.73 8.58-9.55 12.57-8.38zM363.43 114.3c4.003 1.935 7.512 4.358 9.426 8.38-3.771.279-5.048-1.935-8.38-2.094-1.843 2.695-4.554 4.522-6.283 7.331-2.52-4.56 8.07-8.5 5.23-13.62zM411.61 126.87c-3.136 3.151-9.573 2.997-14.664 4.189 3.75-2.13 10.36-6 14.66-4.19zM332.01 189.71c1.89 6.307 5.394 16.028 4.19 21.993-2.53-6.2-4.65-12.81-4.19-21.99z" fill-rule="evenodd"/><path clip-rule="evenodd" d="M493.3 224.27c-1.531-4.157-4.559-.096-7.33 0-7.908.275-18.848-2.087-27.231 0 2.674-6.383-3.777-7.448-5.238-12.568.878-1.216 1.383-2.809 1.047-5.237-1.377-2.81-2.812-5.566-4.188-8.379-1.038-23.749-13.293-36.282-17.806-56.557-11.083-10.562-14.638-28.651-19.899-45.034 5.021-8.944 5.217-22.714 13.614-28.278 19.575 1.072 34.013-2.995 45.036-10.475.927-10.698 7.255-29.489-1.047-36.658 1.803 7.831-3.182 16.618 1.047 25.138-7.756 7.605-16.203 14.52-27.231 18.853-3.516-6.363-14.236 4.396-16.759-1.047.949-4.518 6.052-5.519 2.097-9.426 4.626-2.977 11.201-3.766 13.615-6.286-5.394 1.88-8.552-2.378-12.566-4.189-1.113-.501-4.401.819-5.238 0-.214-.209.25-2 0-2.094-6.769-2.503-12.867-.801-15.71-7.333-4.583-10.534 8.842-22.5-2.096-32.468-8.512-4.06-14.778.753-21.993 1.049-6.408 8.34-4.046 19.209-1.047 28.278 1.448 1.693 4.982 1.302 4.188 5.237-3.8 4.228-13.062 2.995-15.709 8.379 7.039-3.088 15.154-5.095 24.089-6.285-2.162-.631-3.965-1.621-3.141-5.237 3.848-.339 5.794-2.583 9.426-3.143.448 1.996 2.255 2.633 2.094 5.239.505 3.297-4.802.783-5.236 3.141h7.33c-3.4 4.426 7.672 1.62 5.238 8.379.414 2.51-4.77-.58-3.143 3.143-.749 2.842 4.938-.751 4.189 2.093-.769 3.421.629 9.008-4.189 8.379 1.031 3.507 4.34 4.738 4.189 9.426-2.398 2.867-11.651 4.369-9.426 8.379 1.894-1.6 3.209-3.775 7.332-3.143-.236 1.98 1.18 2.31 1.047 4.189-1.333 4.253-9.592 1.582-10.473 6.284 5.029-.492 8.666.412 9.426 4.189-3.013 2.205-6.181 1.138-8.379 2.096-.469 3.343-1.47 5.131-3.143 2.093.73 3.874-1.659 4.626-5.236 4.19-2.629 3.657-4.427 8.143-7.333 11.52-11.196 2.294-12.976-6.192-17.805-7.33.996-10.915 1.713-24.216 2.096-35.611.116-3.484 3.916-9.308-1.049-11.52-2.352 10.915-1.359 25.172-13.614 26.182-2.175-.619-3.57-2.014-4.189-4.187 2.14.751 4.145 3.281 6.283 1.046 1.02-4.162-5.853-.432-5.236-4.189-1.358-2.599 2.337-5.084 0-5.236-2.421 14.66-16.467 7.51-27.231 5.236-2.077-.717.653-6.24-3.143-5.236-10.061 5.997-27.154 4.961-30.372 17.805-8.375 2.797-12.64 9.704-25.138 8.377-.929-1.861-2.922-2.66-2.094-6.283-6.104 3.471-6.618-1.509-13.615-2.094-4.482 1.072-10.428 5.193-15.71 2.094-1.052 1.393-.991 3.896-3.143 4.189-16.082 2.492-34.136 1.905-48.177 0-4.205-7.667-23.556-.184-27.231-8.379 3.291-.548 5.843-1.836 8.379-3.143-.471-5.357 2.867-6.907 3.142-11.52-4.564-5.562-6.005-14.244-11.521-18.853-13.987-.719-24.772 1.759-23.042 16.759 1.123 2.715 4.554 3.125 5.237 6.283.124 4.663-3.667 5.41-3.142 10.473-5.172 1.461-8.929 4.337-16.757 3.143-.43 1.315-1.351 2.139-3.143 2.094-2.214 4.868-7.752 8.266-9.426 12.569-1.647 4.235-2.939 7.264-5.236 11.52-4.422 8.193-7.868 12.942-12.568 18.853-7.242 9.109-12.275 18.067-19.9 26.185-7.411-1.475-6.701 5.168-12.568 5.236-.566 3.71 3.708 2.576 3.142 6.286-2.781 2.104-6.176 3.598-5.236 9.426 10.044-2.526 16.103-9.035 23.042-14.665 10.515-1.36 14.616-14.699 23.042-14.662-14.168 14.46-28.571 28.686-45.037 40.847-14.754 1.654-19.244 13.572-32.468 16.759-6.58 10.85-22.375 12.51-24.075 28.27 13.561 5.999 24.744-3.19 40.847 1.047 1.077-2.415 3.605-3.378 3.142-7.333-3.721-.517-6.03 5.76-9.426 2.097.499-4.143 3.531-5.421 6.285-7.333 6.563-4.559 14.548-8.827 21.994-13.615 7.405-4.761 14.558-10.469 21.994-14.663 2.537-1.432 5.859-1.326 9.426-3.143 9.804-4.981 19.507-15.206 28.28-16.756 4.362-.771 11.761-.258 16.757 0 1.667.084 3.577 1.95 5.236 2.094 8.105.71 16.517-3.423 25.137-1.047-5.459 10.948-9.877 22.941-14.663 34.563 7.667 1.408 17.567.585 21.994 5.236-6.517 4.727-19.898 1.127-23.042-4.189.879 8.559-5.114 10.247-6.285 16.756 14.082 13.937 45.153-.921 63.889 4.19-.615-10.041-15.357-1.938-23.042-3.141-4.334-4.745-14.497-3.66-17.805-9.427 3.999.506 6.685-.298 8.379-2.096-1.445-20.452 18.226-35.62 20.947-58.65-3.878-6.056-11.573-9.187-21.995-10.475-8.261-1.02-20.032 3.317-24.088-4.19 6.316-3.432 4.51-11.554 7.331-18.852.644-1.664 3.193-2.188 4.189-4.189 1.079-2.165.552-5.574 1.048-6.284 6.364-9.128 19.558-2.947 27.23-2.094 8.785.974 14.676-2.658 18.853-4.189 7.626-2.797 21.244-4.736 29.326-6.286 1.214 3.325 5.487 3.591 8.376 5.236-4.256 1.329-7.788 3.382-10.471 6.286l37.703-17.805c8.443-1.502 13.159-.511 22.398-.169 4.042.15 12.844 1.08 16.355 1.216 4.547.177 52.057 3.67 52.057 3.67-.444-.313-84.021-8.061-84.021-8.061l12.062-6.083c6.565 3.646 19.699 6.882 25.138 0 9.997 2.221 18.95 4.787 25.138 11.52 1.599.341 4.877.359 4.188-1.047 9.167.08 13.805-9.92 17.806-11.52.169 2.712.255 5.341-.014 7.615-.172 1.718-.347 3.437-.493 5.158-.116 1.355.06 3.028-.467 4.299a1.717 1.717 0 0 1-.191.338c-.529 2.455-3.43 5.792-1.976 6.679 6.827-7.401 23.299 5.136 31.419 3.143-.23-3.75 2.717-3.673 6.285-5.239 1.406-2.954-5.551-2.624-2.096-4.188 4.874 1.122 2.191 3.332 6.283 5.237 1.256 3.12-7.569 1.343-4.188 3.14 3.724-.471 12.021-6.101 11.52-2.093-.83 6.627-16.783 4.95-27.231 5.236.417 3.425.91 6.77 4.189 7.333 5.696-4.779 16.839-4.108 25.136-6.286.828 2.681 2.779 7.389 1.047 9.426 14.032 10.059 16.891 31.291 25.138 47.13-8.352 4.632 3.045 25.19-5.236 30.375 1.572-6.11-1.468-7.608-5.236-8.38 4.497-3.069 1.495-7.262 2.094-13.615-5.212-1.373-4.456 3.225-8.379 3.143-6.996-9.763-13.19-20.322-20.946-29.325 1.338.057 1.452 1.341 3.141 1.047-8.507-7.689-15.903-21.61-33.513-16.759-1.479 4.62 6.268.019 6.283 3.143-4.244 4.138-10.098 6.659-16.759 8.38 1.803-.057 2.686.806 3.144 2.094-4.593 2.739-13.332 1.333-15.712 6.285 3.736.797 7.191-3.245 8.379 1.047-4.501 8.396-18.802 14.711-26.185 8.38 7.53 10.475 21.148 23.176 9.427 36.654.7 4.538 4.847 5.628 5.238 10.476-.814.229-1.218.876-1.047 2.094-7.811.478-13.704-.958-17.806-4.189-.914-9.219-2.316-23.504 0-32.468 1.808.635-.081 4.968 2.094 5.236-.441-10.202-4.465-16.649-2.094-25.136 1.512-5.416 5.513-6.788 8.38-10.473 5.575-7.166 10.396-16.071 13.613-20.948-6.795 8.076-13.418 16.03-18.853 23.042-5.898 7.612-3.902 13.504-5.233 25.138-1.37 11.938-.271 24.197 1.046 36.655-1.817 5.514-10.286 4.378-14.664 7.332 5.302 9.52 28.371 3.835 45.036 3.143 7.979-.332 14.706 1.421 19.899-1.049-6.459-3.98-22.912-2.453-27.231 0-3.683-2.715-1.026-6.547-1.047-10.473-.063-12.25-.396-27.519-1.047-38.751 2.508-4.825 7.742-6.921 9.426-12.569 13.013-4.094 17.715-16.499 30.372-20.946 10.883 9.718 20.7 20.498 27.231 34.562 11.461 7.043 13.613 23.395 20.948 34.563-2.212 14.658 7.717 24.253 20.948 23.039 1.661-.152 3.059-2.216 5.234-3.14 7.448-3.161 15.898-4.682 25.138-4.19.3-2.45 4.94-.61 4.16-4.18zM394.85 5.37c.337 7.319-2.891 11.074-10.474 10.473-3.85-6.968 2.22-12.196 10.47-10.473zm-1.05 23.042c-2.417 1.076-3.378 3.605-7.333 3.143.241-4.899 1.739-8.6-3.143-9.426-.763-2.858 2.082-2.11 2.096-4.19 2.913 6.19 8.853-5.944 12.567 1.047-2.76 2.241-7.07 4.54-4.2 9.426zm23.04 39.8c-3.231-2.298 1.475-5.428 4.192-5.239.45 3.585-3.13 3.148-4.19 5.239zm0-24.091c5.455 2.234 13.418.066 15.712 7.332-3.614 1.274-5.537 4.24-8.379 6.284 4.479-.084 2.357 2.824-2.094 4.189-2.91-4.771-11.44-10.272-5.24-17.805zm-255.55 177c.151 3.293-2.686 3.598-5.236 4.189-.813-.931-1.126-2.364-1.047-4.189 1.96-2.05 3.84-.33 6.29 0zm22 11.52c-4.915 2.917-12.334-.633-18.853-1.047-4.798-.308-15.792 4.888-13.616-5.239 14.59-1.55 24.8-2.72 32.47 6.29zM157.1 72.401c-2.061-2.185.9-5.255 4.189-5.237-.65 2.488-1.41 4.877-4.19 5.237zm-4.19-16.757c1.397-1.495 5.934-1.495 7.331 0 .429 2.524-1.913 2.276-1.048 5.236-4.27.433-6.6-1.073-6.28-5.236zm-8.38 0c2.739-.296 4.505.382 4.189 3.143-2.509.633-4.779 1.504-8.379 1.047-1.22-4.627 5.86 2.406 4.19-4.19zm8.38 26.183c-2.438 2.802-8.515 6.363-13.616 3.143-.49-7.685 9.85-5.121 13.62-3.143zM4.19 231.597c2.551.589 5.387.896 5.237 4.187-2.648 2.9-8.863-.81-5.237-4.19zm9.427-1.05c-3.91.419-6.146-.835-6.285-4.189 2.347-.717 5.248-3.147 7.332-1.047.865 2.97-1.476 2.72-1.047 5.24zm8.378 4.19c-2.759.315-3.436-1.45-3.142-4.19 2.821.08 5.034 2.4 3.142 4.19zm160.25-39.79c-.223 5.378-7.808 12.428-11.521 17.806-5.378.837-7.954-1.124-11.521-2.096-1.461-5.624 4.886-10.1 6.284-15.71 1.45-5.814 2.828-13.105 6.285-16.758 1.725-1.821 5.037-1.842 6.283-4.19 1.327 4.384 9.203-1.29 11.521 1.047-3.512 10.104-9.575 17.658-14.663 26.185 1.81 1.38 5.53-4.21 7.34-6.29zm13.61-27.24c-3.988.496-6.538-.443-7.331-3.143-10.475 6.759-26.245 12.944-40.847 9.426.476-4.41 5.321-4.455 6.285-8.379-2.703.638-9.471 9.727-10.473 2.096-2.983 1.206-3.435 4.943-6.285 6.283-15.054 1.091-26.951-.979-32.468-9.426-2.941 5.07 8.272 4.968 7.332 11.522-3.837.346-5.819-1.163-8.378-2.097-1.094 1.655 4.084 3.564 3.142 6.286-8.744 4.521-16.113 10.418-27.231 12.566-4.614-1.095-8.413-2.025-12.567-1.047 2.815 2.771 10.314.858 13.616 3.143-.132 3.414-5.165 2.467-7.332 3.141-5.391 1.682-14.268 3.65-20.948 6.286 3.656 1.179 10.798-3.146 17.806-2.097-14.329 8.391-31.908 19.027-51.32 18.853 1.512 3.026 4.163 4.916 6.285 7.332 2.645-6.083 10.679-6.776 17.804-8.379-4.819 2.86-8.031 7.33-14.663 8.379 6.747 9.29-16.295-.184-14.663-8.379 17.251-7.535 26.143-23.431 48.178-26.185 3.203-2.032 2.312-8.158 9.426-6.283.428-2.523-1.913-2.275-1.048-5.236 12.15-8.1 19.909-20.589 33.516-27.231-.311-9.037 5.082-12.373 8.378-17.806 5.797 2.234 9.313 6.745 14.663 9.426 6.813-1.986 16.046-.919 20.947 2.097-.096 5.488-8.192 2.979-6.283 10.473 6.198-.435 8.349-4.918 12.568-7.33 16.72 1.84 44.59-2.04 41.89 15.72zm37.71-64.93c-2.582.139-5.046.159-6.283-1.047-2.73 5.114-6.601 3.917-12.569 5.236-2.093.462-4.16 2.893-5.237 3.141.305-.068-5.471-3.885-5.236 1.049-2.313-.132-.445-4.445-1.048-6.286-4.484 1.452-3.833 8.038-9.426 8.379.541-7.025-6.916-.275-6.284-6.284-12.121-1.299-19.243 2.401-25.136 7.33 3.565 7.014-7.069 8.07-10.474 11.522 1.499 2.539 6.48-3.76 8.379-1.047-2.081 4.552-6.819 6.447-11.521 8.377 1.394 2.658 4.649-1.536 7.332-1.047-4.594 4.158-3.607 8.734-8.379 13.615-13.535-2.596-25.599-.724-33.515-9.426 1.476-3.762 2.373-8.102 8.379-7.33-9.11-7.899-2.715-23.235-1.048-31.421-3.71.13-1.737 5.942-4.189 7.33-1.399-1.044-2.056-2.831-4.188-3.141-3.085 3.493 1.906 7.822 3.142 10.473-1.125 8.998-2.415 17.833-10.474 19.899-.024 5.214-3.226 7.248-5.236 10.473-2.945-.195-2.866-3.416-5.236-4.188.662 3.525 3.007 5.371 2.095 10.474-3.201.755-3.816-1.072-6.285-1.047-2.05 1.957-.323 3.834 0 6.283-5.756.178-4.896 6.973-10.473 7.332-.69-1.406-2.239-1.952-4.19-2.096 1.025-9.446 7.578-13.368 12.568-18.853 1.599-6.431 5.43-10.63 11.521-12.568v-6.283c8.879-8.578 9.717-25.195 20.947-31.421 11.462.735 25.701-8.07 34.563 0 10.128.694 21.672-.025 27.231 5.236 7.305-.323 13.626.339 16.757 4.19 6.335-1.618 16.773-5.767 23.042-1.047 2.434-3.095 6.337-3.106 10.473-2.094v6.306zm10.47-9.427c1.254-3.284 5.197-3.88 9.427-4.189-.36 4.394-7.09 7.98-9.43 4.189zm7.33 9.427c-1.568 3.479-4.372-4.14-5.237 1.047-1.604-.021.523-4.94 1.047-6.283 3.414-.273 5.041 1.242 5.237 4.189-2.48-.88-4.82 1.47-1.05 1.04zm2.1 5.24c2.812-8.243 8.873-7.023 16.756-9.426-5.42 3.306-10.37 7.086-16.76 9.426zm48.18-27.236c-3.035-.585 1.607-1.634 1.047-3.14 3.46 1.021-1.17 2.068-1.05 3.14zm4.18 5.237h-2.094v-2.094h2.094v2.094zm2.1-2.094c-2.271.175-.476-3.714-1.047-5.237 3.78-1.003 1.86 4.52 1.05 5.237zm4.19 2.094c-3.259-.232-1.771-5.211-2.094-8.377 4.12-.643 1.23 5.748 2.09 8.377zm1.05-9.427c4.822.066-.196 9.975 4.189 10.475-3.83 3.068-4.79-5.646-4.19-10.475zm40.84 8.38c-2.756 1.251 4.937 3.586 1.047 6.283-3.861-.676-5.491-3.582-6.283-7.33-4.046 2.697-7.385.853-10.473 3.143.607-3.882-3.231-6.074-1.047-8.379 10.587.234 16.226 5.417 28.278 4.19-1.85 4.341-7.81 4.735-11.53 2.093zm40.85 26.186c1.506-.587 2.556-1.634 3.141-3.143 1.329 1.061-2.521 5.796-6.284 5.237-.611-4.8 3.498-4.882 5.237-7.331-1.739-2.678-2.813 4.087-6.283 3.141 3.247-3.033 4.981-7.585 9.426-9.426-.014 2.082-2.858 1.331-2.096 4.189 2.416.321 1.165-3.024 3.143-3.143 2.15-.21-5.58 6.67-6.29 10.47zm-47.13 69.12c-2.189.441-2.774-.72-4.191-1.049-.33-1.84 5.87-1.86 4.19 1.05zm-25.14 45.04c.471-.623 5.426-5.71 9.426-6.283-.46 4.78-5.47 5-9.43 6.28zm129.88-11.52v4.189c-4.14.72-3.43-4.41 0-4.19zm-4.2-10.48c-1.557-.885-1.516-3.37-2.094-5.236 2.29.16 2.25 2.65 2.09 5.24zm-6.28 20.95c-2.068-.724-2.792-2.794-3.143-5.236 3.991-3.859 1.095-8.104 3.143-13.615 2.203-3.644-1.574 6.681 2.094 2.093 2.217.956-1.976 4.211-1.047 7.333.438 2.357 5.744-.157 5.236 3.143.46 4.64-6.1 2.28-6.28 6.29zm12.57 0c-3.296-2.532-6.65 1.878-10.474 2.094 1.46-3.05 9.13-8.16 10.47-2.09zm0 5.24c.088 4.196-9.23 2.235-7.331-2.094 2.38.76 8.17-1.89 7.33 2.09z" fill-rule="evenodd"/><path clip-rule="evenodd" d="M465.02 2.232c5.541-2.043 5.974 10.837 4.189 16.758-2.467.023-3.086-1.805-6.285-1.047-2.697 9.046-8.434 24.548-1.047 31.419-3.341.899-3.24-1.647-5.236-2.094-.863 2.802-.503 3.921-5.236 2.094.666 2.396 2.077 6.32 0 8.379-2.622-1.917-.269-8.807-5.237-8.379 13.32-2.738 12.344-19.774 13.616-34.562-1.033-4.902-10.127-1.743-8.379-9.426 2.83 6.902 8.051 2.342 13.615 1.047.669 3.908-4.94 7.542 0 9.426 1.36-2.782 4.31-11.767.02-13.615zM372.86 46.222c-1.067 2.424-2.107 4.875-5.236 5.236 1.23-2.257 2.28-4.708 5.24-5.236zM363.43 55.648c1.317 2.756-2.829 9.007-5.237 11.52-3.64-1.286 4.66-7.594 5.24-11.52zM141.39 122.68c1.145 5.009-11.264 5.478-14.664 9.426-.76-4.63 10.63-6.12 14.66-9.43z" fill-rule="evenodd"/></svg>