<svg xmlns="http://www.w3.org/2000/svg" viewBox="0 -50 396.72 195.04"><g clip-rule="evenodd" fill-rule="evenodd"><path d="M296.16 6.72c1.389-.149 1.599 2.097.24 2.16-.4-.398-.19-1.409-.24-2.16zM294.72 7.68c.967-.234.967 1.434 0 1.2v-1.2zM301.44 11.52c-.072.968-.354 1.726-1.439 1.68-.86-1.099.5-3.033 1.44-1.68zM285.84 31.92c-1.346 3.184 1.53 6.834 0 10.08.074.326.601.199.96.24v2.16c1.093-.311 1.025 1.913 1.68 3.36.356.788 1.196 1.131 1.44 1.68 1.212 2.73 1.057 6.291 2.64 7.92-3.96-.28-1.662-6.818-4.32-8.4-.185-1.255-.544-2.335-1.439-2.88-.866.094-1.609.311-2.4.48-1.191-.558-1.738-2.253-1.2-3.84 4.896-.4.776-7.62 1.681-10.56-1.27.949-1.339 3.122-2.4 4.8 2.556.128 1.81 2.841 2.16 4.08-.679-.198-.622.338-1.2.24-.317-.722-.066-.837-.24-1.92-.324-.635-1.345-.575-1.92-.96.322-2.078 1.34-3.46 2.16-5.04-2.051.67-2.096 3.344-3.12 5.04-.565.005-.706-.413-1.439-.24v-2.4c.771-.211.328.791.96.72 1.53-1.677 3.39-6.302 6-4.56zM271.2 32.16c1.752.808 1.807 3.313 4.08 3.6v1.68c-2.1-.54-2.702-2.578-3.84-4.08-.758 1.246.19 2.844.48 3.84-1.78-.02-1.4-4.073-.72-5.04zM277.68 35.28c.49.47.716 1.205.72 2.16-.98.06-.95-1.752-.72-2.16zM331.92 41.28c.632-.072.787.333.72.96-.63.072-.79-.332-.72-.96zM300.72 46.8c-2.301 1.54-2.074 5.606-5.28 6.24 1.55-2.127 2.62-6.016 5.28-6.24zM279.84 51.84c-1.382-.559-3.38.14-5.04-.24-1.409-.322-2.116-2.259-3.601-1.44-.205-.766.378-.743.48-1.2 1.889 1.176 4.241 2.255 7.439 1.44.15.572 1.05.394.72 1.44zM162.72 51.12c.313-.727 1.125-.955 2.16-.96-.1.887-1.44 1.442-2.16.96z"/><path d="M163.92 51.84c.22-.98 1.341-1.059 2.4-1.2-.21.921-1.74 1.495-2.4 1.2zM290.16 59.52c.885 5.516 3.714 9.086 5.761 13.44-2.036-.149-2.336-2.701-3.12-4.32-1.23-2.54-2.86-4.818-2.64-9.12zM246.72 69.6c1.135.594-.485 2.322-1.2 2.64-.41-1.691.88-1.683 1.2-2.64zM301.2 71.28c.431-.03.507.294.96.24.082 1.042-.66 1.259-1.439 1.44-.003-.477-.655-.305-.48-.96 1.12.087 1.22.564.96-.72zM296.64 72.48c.788.564 2.039.572 3.12.24-.27 1.131-3.3 1.399-3.12-.24zM159.36 75.36c.454.862-.91 1.963-1.2 2.88-.45-.863.91-1.963 1.2-2.88zM316.8 78.96c.669 1.543-1.996 3.709-1.92 6.239-.94-1.764.62-5.113 1.92-6.239zM238.08 83.28c4.812 1.694 4.109 11.074 1.681 14.88 1.338-.008 2.17-1.578 3.6-.72-1.255 1.448-3.296 5.215-.479 7.44 1.261.061 1.735-1.674 2.88-.96-.481 1.641-1.313 3.374-1.44 5.279-.244 3.67 1.134 7.413-.96 9.601-1.275 1.332-3.188 2.468-4.8 3.84-3.236-.188-5.291-.011-6.96-1.2-3.744-2.668-1.198-10.348-4.32-13.68 1.352-.575 1.389.81 2.641.96-2.171-4.285.322-8.099 1.199-12 .557-.077.922.038 1.2.24 1.145-.936 1.535-2.626 1.92-4.32 1.609.566 1.762 2.542 1.2 4.08 2.695-1.521 4.53-6.669 3.6-10.561-.27-1.132-1.63-1.733-.96-2.879zm-6 36.96c.733.174.875-.245 1.44-.239 2.11 3.696 7.609.99 8.64-1.921h.721c2.046-2.913-.015-9.935 1.68-13.199-1.264-.145-.459 1.781-1.68 1.68-2.767-1.324-2.872-5.908-.96-8.4-2.138.343-3.018 1.942-3.36 4.08-.278.202-.644.316-1.2.24-.295-2.751 1.217-3.34 2.16-5.28 1.389-2.854 2.283-6.094.72-9.84-.311 4.307-2.649 12.115-6.239 10.32.268-.771.656-1.423.72-2.4-1.271.409-.792 2.568-2.88 2.16-.169 2.534-1.923 4.128-1.92 6.72.002 2.6 2.335 4.522 1.439 6.721-1.231.794-1.511-1.125-2.16-.721 1.3 3.03.57 7.64 2.88 10.08zM168.48 87.36c1.843 2.147.266 5.213-1.2 6.72-1.48-1.528.14-4.939 1.2-6.72zM149.04 91.2c.692.908 1.138 2.062 1.2 3.601-.99-.51-1.61-2.471-1.2-3.601zM144.72 92.16c1.286.394.644 2.716 1.2 3.841-1.6-.284-.51-2.342-1.2-3.841zM145.92 92.16c.87.011.487 1.273.96 1.681.244-.156.249-.552.72-.48.278.842.86 1.38.96 2.4h-.96c.05-.689-.061-1.22-.48-1.44-.557.17.615 1.127 0 1.44-1.18-.421-1.03-2.171-1.2-3.601zM167.52 94.32c.859.146.319 1.535-.48 1.44-.51-.505.28-.935.48-1.44zM159.12 99.12c.474.063.888.962.48 1.681-.65-.1-.99-1.141-.48-1.68z"/><path d="M231.12 111.6c.421.219.834.446.721 1.2h-.96c-.08-.56.04-.92.24-1.2zM131.76 116.64c-.085 1.182-2.137 1.21-1.92-.24.53-.15 1.79-.6 1.92.24zM27.6 116.64c1.097.023 1.003 1.236 1.2 2.16-.578-.099-.521.438-1.2.239-.209-.6-.469-1.86 0-2.4zM30 117.6c.388-.067.413.227.72.24-.864 2.416-1.109 5.451-2.88 6.96-.752-2.08 1.446-5.02 2.16-7.2zM70.32 117.84c.755-.275.583.377.96.479-.076.563-.743.537-.96.96-.676-.24.066-1.02 0-1.44zM31.44 120h.96c.171 1.108.557 2.002.72 3.119-.566.074-.447.834-1.2.721-.553-.79-.948-2.8-.48-3.84zM144.72 122.16c1.071 3.62 5.716 4.773 9.84 3.12.901-.538.331-2.549 2.16-2.16-.4 5.89-12.81 4.19-12-.96zM327.84 127.68c-3.796 1.01-7.171-1.233-9.12-3.84 3.78-.41 5.85 2.94 9.12 3.84zM197.28 126.72c-.523 1.27-2.234-.069-2.64-.48.58-1.14 1.11 1.06 2.64.48zM193.68 126.96c-4.11 1.228-10.271.188-15.36.479-.24-1.095.67-.661.96-.72 3.44-.69 10.3.32 14.4.24z"/><path d="M345.6 149.04H342c-.83-3.436 1.083-5.012 1.199-8.159-.817-.143-1.297-.623-1.439-1.44.078-3.717.084-8.489-.24-11.52 3.824-.509 5.736 2.877 8.4 4.319 2.4-2.209 3.165-6.614 5.04-8.64.604 2.252-.413 6.101-1.921 6.24.524-1.076.744-2.456 1.2-3.601-1.831 2.221-2.157 7.052-5.52 6.96-.076.956 1.109.65 1.2 1.44-.771.351-.826 1.414-1.681 1.68.063.687 1.175.957.48 1.681-.923.042-.931-.83-1.681-.961.152 1.849 2.68 1.321 3.36 2.641-3.297 1.571-4.763-2.724-6-4.8.216 3.001-.299 6.955-.479 10.319.458-.357 2.229-.147 2.88-.72-.283-.037-.682.041-.721-.24 1.41-.573 4.498-1.827 6-3.359 1.767-1.802 1.611-5.096 2.4-7.92.886-3.173 3.189-4.839 3.36-6.96.408-5.082-4.496-9.76-6.96-5.04 2.074-.514 4.045 1.498 2.64 2.88-1.142-.778-1.203-2.638-3.36-2.4-.27.871-1.012 1.082-1.68 1.2-5.437.963-10.752-6.229-16.56-4.08-.478-.003-.306-.655-.96-.48.072.561.512 1.034-.24 1.2-.457-.103-.604-.517-1.2-.479-.355 1.846-2.575.581-3.36 1.92 1.554 2.848 5.214 4.865 6.24 7.439-3.179-.086-5.437-2.015-7.68-3.6-1.221-.862-3.316-1.834-2.641-3.36 2.62 1.78 4.713 4.088 7.921 5.28-.79-2.024-4.497-3.334-6-4.8-.119-.754.827-.634.239-1.2-1.861-1.178-3.177-2.902-4.8-4.32-.332-2.24.172-5.312.24-7.439-.622.978-.233 2.967-1.44 3.359.647-3.602 1.841-8.712 2.4-13.199.821.392.721-.029 1.2-.48.314-1.034-1.143-.297-.96-1.2 1.839.242.596-1.542.239-1.92.523.044.764-.196.721-.72.855-4.229-.616-9.451.479-13.2-3.062-5.177-3.753-14.007-6.72-18.48.252.013.188.308-.24.24.35-1.893-1.396-2.51-.96-4.32-1.047.14-1.314.761-2.16 0 .673-5.324-.557-9.618-2.64-13.2-.385-.697.442-.623 0-1.68-2.946-1.374-6.598-2.042-10.32-2.64.021-.778.826-.774 1.2-1.2-.899-1.291.041-2.712.48-5.04-.608-3.629-.746-9.51-4.561-11.76 2.952 4.61 4.429 12.615 1.68 18.48-4.187 1.013-8.742.836-10.56-2.16.466-3.935 1.105-7.781-.24-9.84-1.555-2.381-4.036-3.119-6.96-3.84-1.017-.25-2.126-.931-3.12-.96-5.908-.174-9.794 4.87-10.8 10.08-1.409.049-1.773-.947-2.88-1.2-.434.669.46 1.669.72 2.4.876.531 1.645.24 2.4.48-.146 3.062.777 4.63 0 7.2.378.201 1.338 1.037 1.68.48-.928-.628-.258-2.477.48-2.88-.334.76-.334 2.12 0 2.88 3.394.512 9.984-.896 8.64 3.6-1.115-.867-1.94.761-4.08.24-.882-1.837-2.717-2.723-4.56-3.6.347 2.357-1.079 6.278.96 7.92 1.104-.175 1.586-.974 2.64-1.2.451.349.029 1.571.48 1.92 2.3 1.204 4.438-2.123 5.76-.24-.977.623-2.745.423-3.601 1.68 2.325-.194 1.085 1.929.721 2.88 4.021 1.442 4.734-2.452 7.2-3.36-.575-.708-1.495 1.084-2.16.24 2.36-1.288 3.212-2.615 4.8-4.56.101-1.002-1.32-2.868.24-3.12 1.689 3.499-1.187 5.596-1.92 7.2 1.851 2.034 5.962-1.029 6 2.64-.75.835-1.268-.738-1.92 0 .201.598.313 1.286.239 2.16-1.126.074-1.185 1.215-2.399 1.2-.426-.775-.699-2.71-1.681-2.16 1.942 9.9 4.969 20.791 6.48 31.92 2.82 1.02 5.426 2.254 6.72 4.8-.047.698-.091.905-.96 1.2 2.051.261 5.136-.442 7.44-.721.136-.751 1.375-2.109.239-2.64-.305 1.936-2.028 2.452-4.319 2.4-1.742-3.938-2.225-9.136-3.84-13.2-.843-.043-.79.811-1.44.96 1.06 2.016 4.404 6.658 1.44 8.88-1.531.092-1.154-1.726-1.92-2.4-.18.542-1.347.095-1.921.24-2.465-8.859-4.942-20.016-5.76-28.32 1.979 3.541 2.067 8.972 4.8 11.76 1.598.163 3.217.304 3.841 1.44.091.892-.973.627-.721 1.68 2.557 1.683 4.176 4.305 6.48 6.239 3.54.141 5.183.061 9.12 0 .368-3.371-1.851-5.533-3.12-8.16-1.969-4.072-2.213-10.141-4.561-13.68-1.098 2.963.952 6.069.721 8.16-2.021-1.98-1.175-6.825-1.681-10.32 1.291-.557 2.701.872 3.601-.24.152.549.476 1.448 0 1.92-.784.121-.509-1.194-1.2-.48 2.389 6.891 4.757 13.803 8.88 18.96-.503 1.671 1.013 3.058 1.2 4.561.389 3.113-.853 6.512-.48 9.84.302 2.695 1.209 5.281 1.44 7.92.567 6.479-2.537 12.373-2.4 18-2.315 2.725-3.287 6.793-6.239 8.88 4.231.338 3.545-4.353 6.479-4.8 3.782-.577 5.096 5.197 9.84 5.04-6.801.691-13.066.862-19.439 0 .713-2.247 5.06-.86 5.04-3.84-.506-.752-.675-2.376-.24-3.36-.79-1.131-2.006-1.834-2.641-3.12-1.464.295-2.883.637-3.6 1.68-3.708-.335-5.978 2.813-9.36 3.601-.779 2.605-4.174 2.39-6.96 2.16 5.774-3.746 13.235-5.805 18.96-9.601-1.922-4.317-2.067-10.412-4.319-14.399-6.768 2.714-12.148 6.279-17.04 10.8-1.165 1.076-1.652 2.827-2.88 3.84-1.776 1.464-4.438 1.668-5.28 4.08.712 1.208.737 3.103 1.44 4.32-.479-.241-.379-1.062-1.2-.96-.096 2.415 1.434 3.206 2.16 4.8-18.2.478-36.045-.705-52.08-.24-3.597.104-7.099-.542-10.561-.479-2.56.045-6.484 1.808-9.12.239.961-1.68 2.469-2.812 4.801-3.12.575-.81-1.057-1.071-.721-2.399 3.822-.928 6.793 2.315 10.8 1.2-4.12-2.68-11.845-1.755-15.6-4.801 2.048-1.231 4.356-2.203 5.28-4.56-2.257 1.103-4.173 2.548-7.44 2.64-.81 1.253-1.771 1.042-3.12 1.44-2.255.665-3.893 3.095-5.76 3.36-1.289.183-2.505-.363-3.84-.48-4.34-.38-9.242-.812-13.2-1.44-2.151-.341-4.033-1.185-6.24-.479-2.136-5.394-1.023-13.517-1.92-18.72-.228-1.323-1.782-3.382 0-4.08-.253 1.213.345 2.565.96 4.08 2.552-.248 4.282-1.318 5.76-2.641-1.31-3.736.548-8.6-2.88-11.279-.101-3.381.466-6.095 1.92-7.92.723.717 1.919-.037 2.64.96.451-3.491-2.304-3.777-2.88-6.24 1.811-.871 2.632 1.163 4.08 1.44-.145-.575-.345-1.095-.24-1.92-2.593-.621-8.217-.731-9.84 1.68-6.136-3.283-10.739 2.135-13.92 5.041-3.597 3.284-9.041 5.851-11.04 8.64-1.539 2.147-2.301 5.295-4.56 6-.703-.845-1.081-2.141-2.4-.96.425.055 1.202-.242.96.479-4.737.921-10.184-1.139-14.64.96-.759-.656.758-1.023 0-1.68-1.142.501-.331 1.462-.72 2.64 1.312.485 2.79.704 3.6.48.614.187.91.689.72 1.68 1.031.231.421-1.179 1.2-1.199.412.308.005 1.435.72 1.439.022-.377-.032-.832.48-.72.339 1.002 1.061 2.031 1.92 2.64 1.502 1.065 4.277 2.421 6.72 3.601 3.807 1.837 7.509 2.652 11.52 4.079 2.577.917 4.328 2.78 6.96 1.2-.983-2.492-.902-7.209-.48-10.319-1.76-1.162-4.756-3.508-4.08-5.521 1.152.928 1.248 2.912 3.12 3.12-1.088-2.893-.917-8.294-.24-11.52.558-.269.643.051 1.2-.48.179-3.103 1.45-6.389 3.12-7.2-2.287 2.958-3.646 9.71-1.92 14.4-.067-.547.058-.902.48-.96.146 1.418 2.142 2.848 1.2 3.84-1.373.012-.894-1.826-1.68-2.4-.154 1.354.522 1.878.96 2.641-.114 4.771.674 10.774.96 15.359 2.271 4.609 3.258 10.502 4.56 16.08.739.277 2.104-.042 2.16 1.44-1.681.142-1.984-.601-3.12-.48-1.779-3.46-1.16-8.989-3.12-12.72-2.567 1.102-2.472 5.075-6.72 3.84.074.562.47.991 0 1.44-1.254.106-2.088.632-2.64 1.439 1.428.785 2.713-.426 4.08-.479 1.396.684 2.97 1.189 4.8 1.439.246.703.323 1.201 1.2.721.794 1.625 1.559 4.367-.24 5.52-.856-.023-1.648-.112-1.92-.72.976-.072 1.888-1.461 1.44-2.16.172.389-1.132.389-.96 0-.08-.96.428-1.332.24-2.4-2.874-.93-5.062-1.528-8.4-.96-.789.745-2.196 1.997-1.2 3.12 1.389-.051.092-2.788 2.16-2.16.532.767-.312 1.817-.479 2.641-1.289-.473-1.841.548-2.88 0-2.157-1.525 1.243-5.105-.72-5.521-.653.22.639.446.24 1.2-.594.605-1.549.851-2.4 1.2.747-.661-.299-1.707-.96-.96-1.115.414.555.863.24 1.92-1.347.913-2.328.243-3.36.24.332.388 1.142.298.96 1.199-.561-.073-.991-.47-1.44 0 .026 2.694 3.504 1.937 4.8 3.36-3.344.704-4.624-3.679-6.72-1.92.231 1.405 1.981 1.036 2.4 1.68-8.025-.118-19.272.915-29.04-.239 7.906-.609 15.927-.054 22.56-.721 1.611-1.589 3.752-2.647 6-3.6-.109-1.012-1.614-.626-1.68-1.68.944-.543.609-.871 1.2-1.681.688-.82 1.607.971 2.16.24-1.092-1.064-3.176-1.884-4.56-1.92-2.223-2.417-8.12-1.16-9.84-4.08-4.335.212-8.345-4.148-12.24-5.04.934 1.227 3.082 1.238 3.84 2.64-.098.851-1.049.475-.48 1.44 2.639 1.212 8.107.838 8.88 3.12-10.469-3.235-25.369-4.067-30 5.28.416 1.349.535 1.628 0 2.88 1.062.482.979.909 2.16.96.072.472-.324.476-.48.72.916.032 1.76-.236 1.2.72 4.307.053 7.518-.086 10.56.96-7.921.287-18.042.4-27.36 0-1.52-.065-3.719.257-4.56-1.199 4.804-.507 10.677-2.938 16.56-4.32.437-2.123 1.981-3.14 2.64-5.04.912.032 1.417-.343 1.68-.96-3.995-1.106-9.076-1.832-11.52-3.36-1.897-1.187-7.32 1.755-8.88 2.641-2.031 1.151-3.892 3.74-6.48 2.88.347-1.413 2.731-.79 2.88-2.4h-2.64c-.076-.324-.342-.458-.24-.96-3.684.169-6.86-2.002-10.8-2.16-9.002-.361-18.146 3.326-25.92 4.8.076 1.658.649 4.736 2.64 5.28 1.583.433 5.87-1.112 9.36-1.2 7.318-.185 13.708 2.805 19.92 3.12-.535-1.411-2.126-.923-2.88-1.68.143-.497-.297-1.577.24-1.68 1.031-.231.421 1.179 1.2 1.199.041-.358-.086-.886.24-.96.767.193.687 1.234 1.2 1.681.895.255.38-.9 1.2-.721 1.37 1.306 4.053 3.194 6 2.4.05 1.572 1.964.631 2.64 1.2.472.857-.075 1.317-.72 1.68-27.803-.04-50.113-.22-76.56-.48v-1.44c3.825-.446 8.14.844 11.04-.24-2.244-.732-5.869-1.308-5.04-4.319 1.411.858 4.163 1.733 6 .72 1.226-3.574 2.913-6.688 6-8.4 3.145 2.142 10.128 1.156 12.72 3.12.807-1.113 1.865-1.975 3.36-2.399 4.426 2.08 9.24-.899 14.88-1.681 4.091-.566 7.396-1.074 11.28-1.2-2.78-8.701 2.199-16.241 5.521-21.84.266-.929-.849-.854-.24-1.439.812-.309 1.227-1.014 2.16-1.2 6.85-10.104 16.116-16.63 26.4-23.28 13.045-8.436 29.651-15.859 47.28-18.24 7.932-1.071 17.887-.254 24.72.96 1.023.182 2.443-.358 3.12.72-2.269 1.356-4.718-.622-7.2-.96-6.609-.901-14.397-.884-20.88 0-19.384 2.643-34.971 10.833-48.48 19.68-7.05 4.617-12.967 9.042-18.72 15.36-5.068 5.565-10.902 13.661-12.48 21.6-.633 3.186-.611 5.964 1.2 8.64-.103-1.873 2.202-2.486.72-4.319-.149-.57-1.291.922-1.44-.24.98-11.086 7.274-18.278 13.92-24.96 13.183-13.253 30.847-24.278 49.68-30.48.007.356-.982 1.072 0 .96 1.284-.456.38-.583.72-1.44 2.685-.145 3.674-.486 6-1.2-.131.449-.958 1.156.24.96 1.522-.045-.562-.971.72-1.44 1.219.036-.063 1.184 1.2.96 1.272.232.666-1.414 1.68-1.44.542.097-.126 1.407.96.96 1.505.131.114-1.152 1.44-1.2.637-.076-.225 1.345.72.96 1.028-.012 1.372-.708 1.92-1.2-.373 1.262 3.094.729 2.64-.24 4.735.858 10.431-1.379 15.36.96.05 2.481-2.274 1.136-4.08 1.44-.961.162-1.749.896-2.64 1.2-5.951 2.034-11.528 3.144-16.8 5.28-5.126 2.078-9.235 4.808-13.92 8.16-8.533 6.106-16.487 13.227-21.36 22.8-1.149.61-1.658 1.861-2.88 2.4-.789-.575-1.866-.658-2.88-.961-.116.99.658.875.24 2.641 1.901.319.102 3.209 2.16 3.6-.998-2.517 1.59-4.272 1.92-6.24 2.071-1.687 5.208-1.894 5.28-5.039-.977.082-.914 2.148-2.16 1.199 8.581-11.579 19.217-21.103 32.88-27.6 7.968-2.375 16.305-6.864 25.44-6.48.18.82-.975.305-.72 1.2 1.687.539 3.536-1.547 3.84.48 1.036-.012 1.754-1.595 2.88-.72-1.288.872-2.782 1.538-4.08 2.4 2.099-.414 3.533-2.115 5.76-1.68.457-.663.021-2.219.96-2.4 1.175.392.648.278 1.92 0 .009 1.031.736 1.344 1.44 1.68-.21 1.571.4 2.32 1.68 2.4.097-1.139-.739-2.5.24-3.12 1.563.549 3.343 2.056 4.56 2.16-.527-2.432-2.702-3.218-3.6-5.28-1.945-.628-4.667.719-5.28-1.44 6.738-3.038 16.339-1.161 22.32.96.67.237 3.96 4.022 4.32 4.56 1.364 2.04 1.494 5.248-1.68 5.28-.922-.198-.118-2.122-.96-2.4-1.027.653-1.667 1.693-2.88 2.16-8.155-.224-15.089 5.378-14.16 13.44 1.279-.073 1.295-1.623 1.68-2.4 1.268-2.56 3.419-5.358 6.48-6 4.274-.896 8.317.892 10.8 3.6.706-.414.506-1.734 1.92-1.44.692 2.189.185 3.941-.48 5.76 1.167.037 1.3-1.937 2.641-.96-1.389 3.201-.271 7.844-2.4 11.04 1.118 1.006.084 2.894.24 4.08.102.78.771 1.807.96 2.64.652 2.887 1.322 6.746 1.2 9.601-.162 3.79-2.267 6.808-4.561 8.399.338 4.355-1.196 7.943-.24 11.521 2.979 1.711 5.115-1.246 7.44-1.92.542-.157 1.092.32 1.68.24 3.258-.447 5.041-4.915 7.92-3.36-1.784 2.056-1.896 5.783-5.04 6.479 1.765.315 2.968 1.193 5.04 1.2.881-.6 1.191-1.919 2.16-2.399 1.46-.725 3.396-.167 4.561-.96 2.585-1.763 1.96-5.755 5.52-6-.853 1.479-.107 3.245-.479 4.8-.395 1.646-2.344 2.286-1.92 3.6 4.36 2.119 10.442 2.518 12.239 7.2-2.606-.187-4.71-.862-7.2-1.68-.01 1.829-1.818 1.86-2.64 2.88 16.183-.538 33.344-.097 49.92-.24-.568-2.231-1.214-4.386-.96-7.44.784-2.324 3.312-2.676 5.04-4.079 1.5-1.219 2.291-3.19 3.601-4.561 2.429-2.542 5.699-4.683 8.64-6.479 3.091-1.89 6.601-3.099 9.6-5.521-6.52-.25-8.733-5.533-14.64-5.04-.611-5.238-.575-11.824-1.44-16.08-3.745 1.763-5.041 9.679-10.319 8.641-8.191-1.611-12.027-11.209-16.561-16.8-3.187 3.21 2.915 5.99 1.2 9.12-.934-1.066-2.751-1.248-3.84-2.16-.695-1.944-1.256-4.024-3.12-4.8-4.242 3.679-7.73 9.389-13.92 10.32-.154-2.717 3.167-3.23 3.36-4.8-1.644 1.624-5.321 2.022-6.96 1.92-.228-2.453 2.456-2.399 3.84-3.12 3.349-1.745 6.134-4.684 7.439-8.16 4.097-1.424 4.124-6.916 7.681-8.88 10.695-1.922 11.642 9.918 19.92 12 1.415-5.224 5.119-8.161 7.439-12.48-1.324.82-3.288 1.348-5.04.48.384-2.057-2.097-2.741-.96-4.08-2.553-.561-3.09-1.225-5.76-.96-.779-2.012-1.265-4.804-.72-7.44-.461-1.14-2.286-.915-2.641-2.16.593-2.021 1.082-3.182.721-5.76-1.604-.956-3.539-1.582-3.12-4.56 1.021-.737 1.555-.708 2.88-.24 1.197-10.937 18.178-12.638 22.56-3.6 1.207 2.488 1.004 5.564.48 8.88 2.345 1.219 4.555 3.155 8.399 2.16 4.045-10.959-2.537-24.057-13.92-22.56-.982-.057-1.265-.815-2.16-.96-1.24-.041-1.31 2.099-2.399 1.44-1.975-2.138.271-3.542.96-5.04.502-1.093.255-2.224.96-3.12.726-.922 1.812-.712 2.16-1.68 3.777-1.423 7.3-3.1 11.76-3.84.438-.522.71-1.209 1.44-1.44 5.834-1.113 12.979-.938 19.199 0 27.194 4.1 51.57 19.015 63.841 38.64 5.778 9.243 10.962 19.998 14.399 30.96-.039 5.078 2.217 12.087 1.68 18.72-.334 4.13-1.573 7.674-1.68 11.04-1.521 1.813-2.466 4.465-2.88 6.72-1.444 1.058-6.748 2.247-7.68-.48 1.03-.455 1.595.115 2.64-.239.408-.633.024-2.057.48-2.641.252-.707 1.085-.834 1.68-1.2 2.336-5.355 1.115-13.77.24-18.96-1.468-.372-1.504-2.521-2.88-3.6-.337-5.664-1.268-10.733-3.36-14.64.951 4.009 2.477 8.722 2.16 13.2-2.021-.347-1.232-2.45-1.44-3.84-.63-4.205-2.564-8.763-4.08-12 .171 3.86 4.005 8.052 3.601 13.2-.393 4.986 1.144 12.161-.24 17.76-1.016 4.111-4.191 9.737-7.68 10.08-1.312.129-3.796-.563-5.04-1.2-.834-.875.049-2.161.479-3.119.997.203 1.176 1.224 2.4 1.199.199-1.4 1.279-1.92 2.16-2.64 2.006-6.418.561-15.311-2.16-19.92-2.707-.089-7.221 2.187-7.92-1.68.923-1.016 2.557 1.21 3.359-.721-.657-1.411-1.904-.279-.96-2.16-4.32-1.219-4.2-5.816-9.12-6-4.623-.172-7.324 4.322-10.56 1.44.626-1.139 2.827.639 2.88-1.2-.1-2.347 1.365-7.538-1.2-9.6-1.354-1.088-2.705-.535-4.319.48-1.493.938-2.613 2.36-3.841 3.12-2.258.253-7.118 1.203-6.72-1.92.474-.531 1.747.47 2.4-.24 1.853-2.469-1.024-4.571-1.92-6.48-1.78-.642-3.025-.628-3.601-2.16-.906.687-1.729.137-2.88.72-.476-.164.15-1.43-.72-1.2.401 1.508-1.459 2.006-1.68 3.6 1.555 2.002 2.481 4.213 3.119 6.72.312 1.225 1.531 1.767 2.16 2.64 1.311 1.818 2.222 3.564 3.36 5.28 2.298.502 3.454 2.146 5.28 3.12 1.285-.29 1.687-.017 3.12 0 .821 2.959.775 6.188 2.159 9.36.391.894 1.527 1.669 2.16 2.64.88 1.35 1.526 3.72 2.16 5.521.906 2.573 2.955 4.412 3.12 5.76.243 1.984-1.837 9.491-2.64 10.8-.242.395-1.125.515-1.681 1.2-.476.586-.547 1.498-.96 1.92-3.098 3.164-7.541 4.67-8.64 0-1.579 1.381-3.19 2.729-4.08 4.8 4.778 1.302 8.323 3.837 13.439 4.8.63-.171.23-1.37.961-1.439 2.668.027 3.488-1.792 5.52-2.4 4.148.846 6.834 4.416 5.76 9.36-.374 1.725-2.105 3.199-2.88 5.04-1.163 2.765-.763 6.479-2.399 8.88-1.86 2.729-5.154 2.747-6.24 5.28-.479.642-2.08.159-2.16 1.199-.5.21-.25 1.67 0 1.92zm-41.76-133.2c2.366-.529 3.556 1.385 5.279 2.4.812.479 1.867.498 2.641.96 1.312.785 2.158 2.344 3.6 3.12.533.287 1.133.218 1.68.48 1.279.614 1.831 2.254 2.881 3.12 1.034.854 2.199 1.183 3.119 2.16 3.853 4.091 6.499 8.866 8.881 14.64 1.862.102 1.946 3.081 3.359 4.32-1.33-4.417-3.504-8.146-5.76-11.52-2.253-3.369-4.798-6.76-7.68-9.6-3.031-2.987-7.265-4.735-10.801-7.2-1.096-.764-1.79-1.794-2.88-2.4-1.737-.966-4.613-1.43-5.04-3.36-.164-.476-1.43.15-1.199-.72.173-1.597 2.666-1.348 4.08-1.2 4.859.508 9.525 1.606 13.68 3.12 3.087 1.125 5.999 2.748 8.64 2.64-7.946-3.494-16.221-6.66-27.84-6.48-.107-.692-1.032-.567-1.2-1.2-.198-.678.339-.622.24-1.2-.914.114-1.498-.102-1.68-.72.201-.279.316-.644.239-1.2 10.692-2.004 22.311 1.59 30.721 3.36-.459-.101-1.033-.087-.96-.72 8.787 1.967 17.013 6.481 24 11.04-.147.333-.924.036-.96.48.778.139 1.116-.164 1.68-.24 17.982 10.658 29.684 27.597 36.72 49.2 2.496.704 1.689 4.71 3.12 6.48-2.65-12.804-8.434-24.545-15.84-34.56-6.151-8.317-13.333-16.405-22.32-21.6-15.865-9.171-34.381-17.041-56.88-14.64-.947 1.47-2.388 1.185-4.32 1.44-3.721.493-6.942 2.728-10.079 3.6-.001 1.12-1.04 1.201-1.921 1.44.473 1.594-1.505 3.596-2.159 5.52 1.456-.399 1.847-1.977 2.399-2.64.914.206.334 1.906 1.44 1.92.191-1.231-.506-1.575-.48-2.64.515-.445 1.278-.642 2.16-.72-1.837-2.353 1.849-2.535 3.601-3.36-.104 1.237 1.983.516 1.199 2.16 1.651-1.069 3.514-1.927 4.32-3.84 1.514 3.618-3.344 2.878-3.36 5.76 2.008-.127 3.334-.906 3.601-2.16 1.516 1.139.727 2.898.72 4.32 2.128.448 1.631-1.729 1.68-3.36 1.229.428.964-.636 1.681-.72.259.781-.13 2.209.72 2.4.668.108-.188-1.308.479-1.2v1.92c.715-.086 1.218-.382 1.681-.72.2 1.534 2.2.705 3.12 1.92zm-4.32-8.16c3.126-.315 8.604-.537 12.24-.48-3.49-.089-9.87-2.112-12.24.48zm-11.04 6.24c.825.376 1.14-1.607.24-1.44.07.73-.77.933-.24 1.44zm8.88.48c.073-1.033.018-1.937-.96-1.92.03.931-.29 2.211.96 1.92zm-6.48.72c.743-.316 1.331.711 1.68 0-.52-.154-1.49-.899-1.68 0zm7.68 2.64c7.738 4.145 13.408 13.287 10.08 24.479.606.354 1.072.848 1.92.96 1.387-2.535.57-4.823 1.2-7.68-1.055-.653-.431-2.082-.48-3.6-.702-.098-.778-.821-1.2-1.2-.834-6.427-5.623-11.044-11.52-13.92v.961zm69.6 47.28c.43 1.688.102 4.889 1.681 5.04-2.392-15.533-10.339-27.579-19.2-37.44-6.646-5.114-12.701-12.099-20.88-14.88 17.13 10.768 32.87 25.546 38.4 47.28zM300 19.92c-1.159-.761-2.167-1.674-3.601-2.16-.31 1.165 2.57 2.349 3.6 2.16zm8.16 14.4c-.175-.545.433-1.872-.479-1.68-.29.318-.24 1.651.48 1.68zm29.52 9.36c-.562-2.079-1.412-3.868-2.641-5.28.69 1.954 1.34 3.939 2.64 5.28zm-33.12-3.36c.113-.754-.3-.98-.72-1.2-.47.463-.25 1.469.72 1.2zm9.36 16.32c1.275 3.974 3.782 7.651 5.04 12 1.547 5.354 4.34 10.836 4.56 16.32 2.09-.072 3.793-2.606 3.6-5.761 1.028-1.572 5.759-3.918 5.761-6.24 0-1.371-2.586-3.485-3.36-4.56-2.549-3.537-3.38-7.42-5.52-10.8-3.028-4.782-9.754-8.833-13.2-12.48 2.29 3.581 1.86 7.608 3.12 11.521zm21.12-6c-.301-2.178-1.022-3.937-1.92-5.52.36 2.116 1.15 3.813 1.92 5.52zm-61.92-3.6c.805-.781 1.522-.363 1.681.72.967.006 1.371-.549 1.68-1.2-.64-1.247-5.01-1.89-3.36.48zm-78.48 4.56c-1.711-.167-1.697-2.224-3.12-3.12-1.271-.8-3.71-.886-6-1.44-1.252-.303-2.496-1.073-3.6-1.2-3.455-.398-7.341.571-10.08 1.44 1.998.118 3.51-.427 4.56.24.82.18.305-.975 1.2-.72v.72c.895.255.38-.9 1.2-.72.396.004.134.666.48.72.773-.911 2.39-.1 3.6-.48.01.331-.113.527-.24.72.756.116.543-.737 1.44-.48V48c.896.257.684-.596 1.44-.48.041.359-.086.886.24.96.268-.639 2.628-.368 1.92.72.739.179.292-.828 1.2-.48.229.447-.719.802 0 .96.209-.352.359-.761.96-.72 2.899 1.151.148 3.312.96 6 1.565-.275-.045-3.725 2.16-3.36-.191.448-.401.879-.48 1.44 1.812-1.218 2.142 2.032 3.6 2.64.71-1.871-.69-2.95-1.44-4.08zm144.72-4.32c-.431-.369-.193-1.407-.96-1.44 0 .661.38 2.162.96 1.44zm3.6 12.96c-1.046-4.394-1.925-8.956-3.841-12.479 1.39 4.051 2.3 8.577 3.84 12.479zM180.72 49.2c1.773.012 5.497 1.715 7.68 1.92-1.43-1.629-5.25-2.085-7.68-1.92zm155.04 4.56c-.111-1.009-.005-2.236-.721-2.64.2.925-.12 2.361.72 2.64zm2.64 3.84c-.649-1.353-.611-4.665-1.68-4.8.76 1.402.03 4.285 1.68 4.8zM180.48 54c.751.111 1.071-.208.96-.96-.66-.747-1.71.298-.96.96zm-5.04.48c.027-.613.804-.477 1.44-.48.04-1.362-2.64-.572-1.44.48zm175.2 4.8c-.522-1.96-1.012-5.226-2.16-5.76.95 1.687.94 4.344 2.16 5.76zm-182.16-4.8c-3.132 4.504-7.705 8.369-8.4 14.88-.166 1.55.299 2.269-.48 3.36-2.631-1.125-.072-6.124-.24-7.68-1.791 2.449-1.068 7.412-2.88 9.84 1.428-.652 2.61-1.55 4.08-2.16.331-.759-.594-1.449 0-1.68 1.25-.37.378 1.382 1.44 1.2.928.128 1.171-.428 2.16-.24-1.596-7.641 2.413-13.28 6.24-17.04-.8-.56-1.654-1.066-2.64-1.44-.21.771.79.329.72.96zm177.6.96c-.25-.696-1.101-2.205-.96-1.2.1.709.678 2.747 1.44 4.08-.18-1.472-.12-1.889-.48-2.88zm-9.36.24c-.284-.117-.544-.256-.72-.48.066-.547-.059-.902-.48-.96-.5 1.028.47 2.138 1.2 1.44zm10.56-.96c.558 1.042.408 2.792 1.2 3.6.1-1.55-.73-3.426-1.2-3.6zm4.8 4.56c.468 1.521.943 3.946 1.681 4.32-.954-3.126-1.288-6.873-3.12-9.12.44 1.431.92 3.102 1.44 4.8zm-217.2 23.76c.603-.437.44-1.64 1.44-1.68-.159 1.121-.453 2.107-1.2 2.641-.352.004-.761-1.013-.72 0-.521-.041-.109.851-.24 1.199 1.028.148.979-.781 1.92-.72-.004-1.927 1.606-3.509 1.44-4.8-.217.418-.537.924-.96.479 3.012-7.147 7.684-12.636 12.48-18 3.355-2.646 8.224-5.056 11.28-7.2-12.56 5.119-20.84 15.801-25.44 28.081zm30-25.44c.524-.756 1.264-1.296 1.68-2.16-.81.317-1.89 1.62-1.68 2.16zm191.28 9.12c-.363-4.357-1.357-8.082-2.88-11.28.92 3.802 1.6 7.837 2.88 11.28zm-174.72-9.36c.077.557-.039.921-.24 1.2-4.212 2.668-6.878 6.882-8.16 12.48.878-.052.92-.33 1.68 0 .691-8.775 6.724-13.4 14.16-14.64-1.9-.995-5.2.699-7.44.96zm177.12 10.8c-.258-4.862-1.555-8.686-3.12-12.24 1 4.166 1.75 8.04 3.12 12.24zm3.84 1.68c-.396-5.364-1.461-10.059-3.36-13.92 1.41 4.35 1.78 9.739 3.36 13.92zm-1.92-.96c-.408-5.032-1.681-9.199-3.6-12.72 1.39 4.05 2.17 8.707 3.6 12.72zm-21.12-9.36c-.935-.025-.412-1.507-1.2-1.68.442 1.729-1.147 4.016.721 4.32.245-.969 1.403-2.156 2.159-1.2-.415-1.025-.328-2.552-.96-3.36.06.945-.09 1.668-.72 1.92zm-63.12 19.44c-.665-3.015-2.528-4.832-4.08-6.96-6.29-1.312-8.383-9.783-13.439-12.24-6.53-3.174-7.797 4.075-10.561 7.2-.89 1.006-2.341 1.678-2.88 2.64-2.136 3.812-4.772 5.646-8.88 7.68 4.034.88 5.798-3.776 8.88-3.84-.7 3.379-4.173 3.987-5.76 6.48 5.363-1.837 7.972-6.429 11.76-9.84 3.772-.306 2.673 6.05 6.721 6.24-3.414-2.886-1.203-9.939-1.921-13.68 1.396.364 1.144 2.376 1.2 4.08 5.143 7.177 7.926 16.714 18.96 18 2.268-2.934 4.868-5.532 6.96-8.641-.65-4.758-.19-12.739-5.52-12.72-1.642 3.25-3.766 4.545-4.08 9.12.307.333 1.133.147 1.439.48-.155 2.149 2.976 2.891 2.881 5.76.627.28 1.032-.741.96.24v.72c-.189.24-.84-.09-1.2.479-.32-.555-.86-.901-1.44-1.198zm88.56-7.44c.071-4.4-1.462-9.728-2.641-11.28 1.2 3.437 1.28 8.002 2.64 11.28zm-204.48-7.68c-.044-1.013 1.365-1.822.96-2.4-.31.66-1.5 1.684-.96 2.4zm206.4 10.8c1.126-.5.61-2.591.479-3.84-.36-3.442-.905-7.177-2.16-9.12.46 4.425 1.72 8.036 1.68 12.96zm-186.48-7.2c-.778 1.575-1.076 4.706.48 4.8.098.579-.438.522-.24 1.2 1.688.392 1.862 2.299 3.12 3.12.489-1.511-.023-4.023 1.44-4.56 1.119 1.041 2.077 2.243 2.64 3.84-.241-.001-.286.194-.48.239-1.3-.3-1.042-2.159-2.4-2.399-.679 4.068 1.672 5.406 2.64 8.64.041.411-1.361.944-.24.96 1.919-.56 4.476-.483 6.24-1.2.592-1.244.126-2.484.48-3.6 1.316.336.104 1.828.96 2.4.518-.203-.09-1.53.48-1.681.554-.073.267.693.72.721 3.639-3.349-1.209-8.697.96-13.2-.946-.066-.734 1.026-1.68.96-2.82-5.893-12.32-5.899-15.12-.24zm171.36-1.2c-.447.23-.802-.719-.96 0 .527.273.797.803 1.439.96.444-2.051.064-2.223-.479-4.08h-.72c.82.979.51 1.594.72 3.12zm26.16 12.24c-.485-5.515-2.097-9.903-4.08-13.92 1.66 4.34 2.34 9.659 4.08 13.92zm1.92-.24c.444-3.657-1.336-7.726-2.4-10.56-.379-1.01-.523-2.415-1.439-2.64 1.89 4.076 2.63 9.014 3.84 13.2zm-5.28.24c.483-4.971-1.331-9.702-2.88-13.44 1.08 4.356 1.96 8.923 2.88 13.44zM72.24 91.92c1.316-.045 1.384-1.337 1.92-2.16 7.571-7.478 15.762-15.331 24.24-21.6 1.197-.886 2.587-1.617 3.36-2.88-10.929 7.791-21.175 16.264-29.52 26.64zm6.24-10.08c-1.916 1.957-4.288 3.793-5.04 6.479 6.888-8.792 16.625-16.016 24.72-22.8-6.957 4.839-13.931 10.447-19.68 16.321zm92.4-11.76c.882.231.954-1.179.24-1.2-.21.424-.76.701-.24 1.2zm205.44 8.4c.149-2.526-1.008-5.67-1.92-7.92.9 2.615.84 6.077 1.92 7.92zM92.4 79.92c-3.164 3.164-6.962 5.95-9.12 10.08.974-.279 1.606-1.447 2.16-2.16 4.952-6.374 12.145-11.625 17.28-16.8-3.727 2.641-7.127 5.687-10.32 8.88zm275.52-2.4c.512.665 1.307-.444 1.439.48-.298.65-.927.597-.479 1.439 2.319-.862 2.129-6.652.479-8.16-.36 1.658.18 4.056-1.44 6.241zM72.96 93.12c1.207.008 1.224-1.634 2.64-.72.198-.679-.338-.622-.24-1.2 5.965-6.078 13.511-13.521 19.2-18.24-8.15 5.77-14.798 13.042-21.6 20.16zm80.4-19.2c.675-.045 1.022-.417.96-1.2-.76-.034-.82.615-.96 1.2zm178.32 10.56c-.615.745-1.842.878-2.4 1.68 1.548-.611 3.038-1.281 4.08-2.399-.389-1.052-1.493-1.388-1.92-2.4-.238-.9 1.179-.523.48-1.2-1.133-.632-.733 2.074-2.641 1.44-.165-1.963.751-2.879 2.4-2.4 1.298-.861 2.334-1.986 3.359-3.12 2.931.11 4.601 1.48 4.801 4.32-.454-.054-.53.271-.96.24-.864-.177-1.097-.983-1.44-1.68-.727.073-.857.742-1.92.479.418 3.606-.712 7.468.48 9.36.039-1.48.015-3.025.72-3.84.552.647-.23 2.63.72 2.88.154-.966-.312-2.553.24-3.12 1.506.254.062 3.457 1.439 3.84.277-1.857-.566-3.396 0-4.8-1.975.422-3.378-2.912-1.92-3.601.529 1.312 2.551 1.13 3.12 2.4-.291.946-1.32.765-.479 1.68.624-.571.964-.712 1.68-.72.018-1.298-.753-1.808-1.2-2.64.63-1.317 1.079-3.59.24-5.04-2.894.093-4.475-1.125-6.24-2.16-1.371 1.588-3.191 2.728-4.56 4.32.84.337 1.536-.674 1.92 0-1.202-.082-1.326.914-2.641.72.403 1.32-1.001 1.196-.479 3.6 1.28-.332 4.18-1.065 3.12 2.161zm-150.24-4.56c.025-.728-1.25-.675-.48-1.44-.964-.811-1.983-3.184-3.84-2.88 1.87 1.009 2.68 3.084 4.32 4.32zM79.92 90.48c4.761-4.679 10.398-9.762 14.4-14.4-5.156 4.444-10.154 9.045-14.4 14.4zm9.84-1.2h-.72c.159.765 1.739.809 1.92.24-.293-.027-.568-.072-.48-.48 3.365-4.314 8.258-8.382 11.28-12.239-4.251 3.908-8.689 7.63-12 12.479zm304.32 2.64c.169-5.252-.056-10.518-1.68-15.12 1.02 5.171.98 10.977 1.68 15.12zm-243.6-12.24c1.313-.451 3.018-1.778 3.12-2.641-.77 1.147-2.37 1.47-3.12 2.641zm-40.32 5.04c2.085-2.075 3.809-4.512 6-6.48.052-.302.374-.49-.24-.479-1.59 2.493-5.36 4.083-5.76 6.959zm-23.28 4.56c2.011-1.484 3.672-3.646 5.52-5.52 1.864-1.889 4.128-3.556 5.28-5.521-3.735 3.547-7.888 6.674-10.8 11.041zm20.88-4.32c.134-.571.722.267.24.479 1.169-2.911 4.481-4.957 5.52-7.2-1.96 2.042-5.08 4.196-5.76 6.721zm5.04-.96c.88-.608 1.501-1.841 2.4-2.881.762-.881 2.419-1.904 1.92-2.64-1.24 1.887-4.18 3.343-4.32 5.521zm2.16-.72c1.966-.756 3.372-3.346 3.84-4.8-1.15 1.727-3.03 2.728-3.84 4.8zm12-2.64c.11-.702 1.333-1.531.96-1.92-.21.604-1.61 1.255-.96 1.92zM77.76 91.2c1.417.046 1.169-.625.72-1.439 3.36-3.361 7.443-7.276 10.08-10.561-3.48 3.963-8.932 7.224-10.8 12zm40.8-7.2c1.642-1.08 3.525-3.192 3.84-4.801-1.07 1.807-3.05 2.716-3.84 4.801zm-1.92 0c1.696-.946 3.345-3.213 3.84-4.561-1.1 1.705-3.13 2.473-3.84 4.561zm3.6 0c1.537-.945 3.251-2.986 3.6-4.32-1.15 1.494-2.76 2.523-3.6 4.32zm16.56-.24c.978-.865 2.134-2.822 1.92-4.08-.47 1.531-1.72 2.281-1.92 4.08zm2.64.72c.5-1.344 1.644-3.312 1.44-4.56-.45 1.393-1.85 3.109-1.44 4.56zm1.92.48c-.455-1.458 1.826-3.204 1.2-4.801-.08 1.609-2.87 3.771-1.2 4.801zm225.36-4.32c.636-.004 1.413.133 1.439-.48-.49.145-1.67-.387-1.44.48zm-245.04 4.32c1.312-1.25 3.209-3.188 3.6-4.561-1.03 1.549-3.63 2.737-3.6 4.561zM91.2 90c1.345.115 1.728.695 2.64.479.189-.989-1.149-.451-.96-1.44 2.074-2.967 5.665-5.694 7.2-8.399-3.14 2.941-6.243 5.917-8.88 9.36zm81.84-8.88c.095.865 1.188.732 1.68 1.2v-1.439c-.64.001-1.37-.091-1.68.239zM144.96 84c2.037-.119.894-1.83 1.2-2.881-.3 1.063-.93 1.79-1.2 2.881zm-21.84 1.44c.62-1.083 2.471-2.946 2.88-4.08-.99 1.084-3.72 2.739-2.88 4.08zm73.68-2.16c.356-.204.516-.604.48-1.2-.342-.057-.405-.395-.72-.479-.52.352-.66 1.538.24 1.679zm111.12 0c1.034 3.007-.15 9.102 3.359 8.88-.069-2.477.129-4.853-.24-6.479-.713 1.286.428 4.427-.72 5.28-1.162-2 1.125-6.538-.96-7.2.057-.663 1.354-.086 1.2-.96-.82-.356-1.95.024-2.64.479zm-113.52-.24c-.3-.093-1.065.665-1.92.48-1.702 3.868-4.781 3.519-6.72.72-.481.399-1.116.645-1.2 1.44 1.077.923 2.499 1.5 2.88 3.12-.539.717-1.581-.461-1.68.479.904 1.017 1.744 2.097 2.4 3.36 1.755.183 2.551-.524 2.16-1.44-.106.396-1.813.396-1.92 0 .096-.817.739-.396 0-.96 1.68-.803 4.07-4.913 6-2.399-.417.603-1.697-.612-1.92.479.875.564 1.75 1.131 2.88 1.44.73-1.77.86-6.155-.96-6.719zm109.92 3.36c.889.009.269-1.492 1.2-1.439.36.279.587.692 1.2.72-.053-.907.244-2.164-.72-2.16.17 1.589-2.49 1.429-1.68 2.879zm19.68 0c1.393-.606 2.783-1.216 3.359-2.64-1.25-.204-2.44 1.717-3.36 2.64zm-135.6-.96c.309-1.307 2.201.174 2.4-1.439-1.32-.978-4.55.368-2.4 1.439zm-81.84.24c-.853.373-.145-.815-.72-.72-.69.506.44 1.867.72.72zm77.28 1.2c-.125-1.075-1.358-1.042-1.68-1.92-.63.887.93 2.418 1.68 1.92zm-56.88.24c.153 1.768 1.626 2.214 1.44 4.32 1.104.341 2.86 1.293 4.08.72-.812-.548-2.365-.354-2.64-1.439-.247-1.128 1.121-.64.96-1.681-.103-.376-.755-.205-.48-.96-.595-.365-1.861-.059-2.4-.479-.314-.816.535-1.675 0-1.92-.26.542-.54 1.054-.96 1.439zm179.52 3.36c.3-.867-.73-2.464-1.44-3.12-.21.854.4 2.737 1.44 3.12zm17.28-.96c.19-.529 1.128-.312 1.2-.96-.697-.184-.623-1.138-1.681-.96.07.726-.27 1.866.48 1.92zm9.12-.72c.565.005.706-.414 1.439-.24.03-.601.458-.751-.24-.96-.11.692-1.03.567-1.2 1.2zm-264 5.04c.847-.033 1.073-.688 1.92-.721-1.147-2.162 2.5-3.566 1.68-4.56-1.264 1.697-2.602 3.318-3.6 5.281zM123.36 90c-.819-.062-1.247-.514-1.2-1.44-2.274.588-3.078 2.592-5.76 2.16.849.111.844 1.076 1.92.96.99-2.092 3.33-2.662 5.04-1.68zm16.56.48c.202-.454 1.157-1.381.72-1.68-.16.498-1.38 1.162-.72 1.68zm50.4-.48c.543.546 1.056-.163 1.44-.48-.317-.003-.22-.421-.48-.48-.22.422-.88.396-.96.96zm-79.2-.48c1.306-.337 2.347.84 3.12.24-.68-.213-3.17-.87-3.12-.24zm224.4 3.36c-.056-1.123.817-3.239 0-3.601-.16.908-1.05 3.007 0 3.601zm5.76 12.96c4.095-1.822 1.194-11.96.721-16.561-.24 4.654.56 12.171-.72 16.561zm-159.84-14.4c.744-.056.749-.852.96-1.439-1.02-.221-1.02.574-.96 1.439zm-80.88.72c-.861.199-1.161-.541-1.68 0a1.213 1.213 0 0 1-.72.721c-.177 1.137.27 1.649.24 2.64-.49.229-.95.49-1.44.72-.878-.321-1.484-.915-2.4-1.2-4.479 3.922-7.983 8.817-9.6 15.601 4.245-2.396 5.451-7.829 10.32-9.601.978-2.862 3.019-4.661 4.8-6.72 3.749-1.036 5.629 1.462 8.16 2.4 3.182-1.218 5.692-3.108 8.16-5.04-4.4-1.569-12.28-2.341-15.84.48zm206.4-1.2c1.193 2.966 3.433 4.887 5.76 6.72-1.35-2.66-3.67-5.598-5.76-6.72zM65.04 106.08c.03.984.619 1.711.48 2.641-.185 1.24-1.371 1.568-1.2 2.64 4.987 1.996 12.363 4.585 16.8.72-.576-1.504-.562-3.598-1.2-5.04 1.375-2.81 2.195-5.576 3.6-8.159 1.338-2.461 3.593-4.591 4.08-7.681-10.359.174-22.884 4.216-22.56 14.88zM302.4 91.92c.547.066.902-.059.96-.48-.343-.058-.405-.396-.72-.479-.08.324-.34.457-.24.959zm-114.72 2.4c-.878-.481-.983-1.737-2.16-1.92-1.303.748-1.44 2.757-.24 3.84-.88 6.658-1.146 16.239 1.68 23.04.63.119 2.053-.046 3.12.24.294-1.706 2.191-1.81 3.84-2.16-1.069-6.026 1.231-13.135-.96-19.439-.704.273-.891.141-1.2-.48.614-1.492 2.068-4.615.96-6.24-.82 1.894-2.48 2.956-5.04 3.119zm-72 .48c.044-.355.58-.221.96-.24.262-.537.397-1.202.72-1.68-1.32-.269-2.48.866-1.68 1.92zm216.24 7.2c-.175.545.432 1.872-.48 1.68-.697-2.38.893-4.546.72-7.2-3.776-1.413-7.209.677-9.6 2.64-.92 5.262-2.207 11.092-2.16 16.561 1.806 1.234 2.825 3.254 5.04 4.08 2.545-.83 3.951-4.03 6.48-4.08.096-1.761 1.104-2.657 2.88-3.36-.048-1.232-.949-1.61-1.44-2.399.664-.536.517-1.884.72-2.881-.431-.608-2.318.239-2.399-.72.443-1.745.814-4.745 2.88-4.08-.222-2.066 1.707-6.747.24-8.399-.36 2.543-1.2 10.119-2.88 8.159zm-136.8 1.2c2.853-.042 4.155-4.954 3.6-8.399-.32 3.674-1.2 6.799-3.6 8.399zm-127.68-6c.384-.896 1.493-1.066 1.68-2.16-1.349-.221-1.846 1.664-1.68 2.16zm51.12-.96c7.664 3.626 16.23 8.021 24.48 11.521 2.944 1.248 5.772 2.976 8.88 3.12.747.034 3.021.071 3.36-.96-.883-.821-2.218.125-3.36 0-2.426-.267-4.018-2.199-6.24-2.881-2.938-.9-6.227-1.562-9.12-2.88-3.602-1.64-9.059-4.977-11.04-6.72-2.213.052-4.659-1.739-6.96-2.4v1.2zm-17.04-.72c-.259.557.424 1.877.48 2.88 1.625 1.576 3.62 2.851 5.28 4.561 2.949 3.036 5.119 7.267 9.12 8.399-3.614-1.103-4.417-4.928-6.48-7.439-1.261-1.536-3.473-1.938-3.84-4.08-1.76-.327-3.87-1.291-3.6-2.88 2.275-.564 3.444 1.972 4.56 3.359-.482-.785-.572-1.592-.24-2.64-1.8-.544-2.98-2.902-5.28-2.16zm13.92 0c-1.216 2.98 1.767 3.611 3.6 4.32-.574-1.666-2.774-1.706-2.4-4.32h-1.2zm54.24 6.24c3.683-1.438 6.476-3.765 9.6-5.76-.027-.293-.071-.568-.48-.48-2.67 2.448-6.37 3.869-9.12 6.24zm171.6 8.4c-1.004-.836-1.947-1.732-2.64-2.88-.262-.61 1.124-.931 0-.96-.763.278-1.953.127-1.92 1.2.188.932 1.476.765 2.16 1.2.189 1.227-.168 1.712.479 2.64 2.621 1.155 5.001-1.371 7.2-2.16.72-3.608 2.028-9.16.96-12.96-1.14 5.56.99 14.01-6.24 13.92zm31.2-6.24c-1.018.312-1.901-.732-2.16.239 1.185 1.079 1.808.462 3.36.24.528-.507-.309-.709-.24-1.439.975-.455 1.152-.557 2.4-.96-.666-1.345.486-3.262 0-4.32.03 3.23-2.4 4-3.36 6.24zm-64.8-3.36c.748 1.252 1.414 2.586 2.399 3.6-.38-1.5-1.3-3.61-2.4-3.6zm-180.24 5.76c-3.003-1.348-4.978-2.253-7.68-3.359.038.015-2.332-1.109-.48 0 .856.512 3.351.882 4.8 2.88-4.555.301-7.915-3.912-12-4.08 1.699 1.774 4.21 3.071 6.48 4.319 9.882 5.438 22.141 8.535 35.76 10.08.621-.578 1.066-1.333 1.44-2.159-1.355-.315-1.129.951-2.16.96-7.58-.066-13.801-1.751-20.4-3.36-.764-1.504-3.98-1.742-3.6-3.6 1.112-.75 1.258 1.212 2.4 1.199-.44-1.53-2.77-2.08-4.56-2.88zm-15.84-1.2c.626-.093 1.317-.123 1.68-.479-1.074-.606-1.933-1.427-3.12-1.92.18 1.1.96 1.6 1.44 2.4zm-14.16-.48c-.736-.154-1.204-1.822-1.92-1.2.736.15 1.204 1.82 1.92 1.2zm79.44 3.84c-.246 2.322.959 5.179-.48 6-1.229-3.19-.083-8.053.72-10.8-2.505 1.494-5.037 2.963-7.2 4.8-.595 3.358.267 5.94.72 8.88 5.167-.549 9.795 1.146 14.4 1.92-.122-3.037-1.312-6.979-1.92-10.319-.706 1.13-1.837.773-2.4 1.68.364 2.349-.519 6.669-3.12 4.32.457-.823 1.589-.971 1.92-1.921-1.765-2.108-1.438-7.076-1.2-9.84-.33 1.39-1.22 3.16-1.44 5.28zM99.6 106.8c-.661-.151-1.221-1.644-1.68-1.2.356.46 1.304 1.56 1.68 1.2zm286.8 1.44c.058.343.396.405.48.721.86.061.879-.721 1.68-.721-.3-1.245-.555-1.333-1.44-1.68.39 1.19-.84.76-.72 1.68zm-44.88.24c.458.103.435.686 1.2.48-.041-.359.086-.886-.24-.96.17.65-1.13-.17-.96.48zm2.16 3.6c-.315-.784-1.836 1.139-3.601.48.92 1.39 2.58-.39 3.6-.48zm-128.88 5.76c-.273.526-.62.98-.48 1.92 1.128.312 2.635.245 3.601.72.673-.379-1.295-.858-.48-1.44 3.32-.23 6.088-3.47 5.04-6.479-1.89 2.43-2.73 5.91-7.68 5.28zm94.32 4.08c.731-2.166 3.282-5.017 1.92-7.681-.74 2.18-3.36 4.91-1.92 7.68zM10.8 123.84c-.474-.338-1.799-1.064-2.4-.48 3.587 1.391 8.402 1.781 12.48 1.44 2.359-2.469.595-6.033.72-9.12-6.281-3.18-6.671 6.17-10.8 8.16zm11.52.48c1.614.837 3.935 1.241 6.24.72.502-.378.422-1.338.96-1.68 1.814.57 3.427 1.43 5.04.24.671.254 1.297 1.408 2.16.72-.211-2.052-2.645-3.898-2.88-6.72-4.132-.316-6.462-1.696-11.28-1.68-.485 2.71 1.902 5.91-.24 8.4zm123.12-5.76c-.243-.638-.395-1.365-1.2-1.44.25.63.19 1.57 1.2 1.44zm45.12.96c2.175-.678 4.255-.006 5.52-1.44-2.15.19-4.06-.26-5.52 1.44zm32.4 1.68c2.574 1.162 6.147 2.297 9.119 2.641-3.004-2.356-7.372-3.348-11.279-4.801.1 1.07 1.29 1.77 2.16 2.16zm.72 3.6c.691-.029 1.571.131 1.92-.24-1.118-1.682-2.929-2.671-4.8-3.6.32 1.92 3.14 1.34 2.88 3.84zm-171.6-2.16c-4.933-.724-12.573.089-14.64 3.12 10.575-.24 18.471.891 29.76-.24-5.012-.14-10.046-2.14-15.12-2.88zm155.04 4.08c1.456.177 5.306.498 6.96-.48-2.184.104-1.963-2.196-2.88-3.359.33 2.97-3.34 1.94-4.08 3.84zm8.88 0c.188-.979-1.352-2.118-1.681-3.36h-1.68c-.02 2.26 1.9 2.58 3.36 3.36zM73.44 126c-1.826-.364-3.535-2.026-5.04-1.921 1.384.69 3.624 2.84 5.04 1.92zm142.32-2.16c.03 2.443 2.397 3.866 4.319 2.399-.778-.421-1.199-1.2-1.68-1.92-2.11.16-1.36.06-2.64-.48zm4.8 2.16c1.227.015 1.712.897 2.64 0-.231-1.449-1.642-1.719-3.12-1.921-.42.5.26 1.34.48 1.92zm92.16.72h3.84c-.43-2.43-4.65-3.2-3.84 0zm-278.88-1.68v.721c.679-.041 1.646.206 1.68-.48-.538-.16-1.203-.72-1.68-.24zm52.8 1.44c1.495-.185 3.805.445 4.56-.479-1.169-.38-3.991-.52-4.56.48zm257.04 7.44c.69-1.229 2.261-1.58 1.92-3.841-.832-.128-1.278-.642-2.16-.72-.27.99-.65 3.95.24 4.56z"/><path d="M160.32 50.4c-.21-.771.623-.498.72-.96.71 1.063.842.282 2.16.24-.151.809-.815 1.104-1.68 1.2.15-1.242-.5-.358-1.2-.48zM276 124.08c.678.683 1.003 1.717 1.92 2.16-1.22.81-1.53-1.34-1.92-2.16z"/></g></svg>